<svg xmlns="http://www.w3.org/2000/svg" viewBox="0 0 107.95 111.75"><defs><style>.cls-1{fill:#1d1d1b;}</style></defs><g id="Camada_2" data-name="Camada 2"><g id="Camada_1-2" data-name="Camada 1"><path class="cls-1" d="M82.25,60.35a25.55,25.55,0,0,0-10.77,2.37L37.89,45.17a19.08,19.08,0,0,0-.82-5L55.59,19.52a9.86,9.86,0,0,0,3.27.57,10.1,10.1,0,1,0-9.69-7.46L26.66,28.48A18.7,18.7,0,0,0,19,26.82a19,19,0,0,0,0,37.92,18.69,18.69,0,0,0,7.69-1.66L56.55,86v0a25.7,25.7,0,1,0,25.7-25.7ZM49.82,10a9,9,0,1,1,9,9.05,8.92,8.92,0,0,1-2.54-.38l2.5-2.78a4.18,4.18,0,1,0-5.55-6.19L50.06,12A9,9,0,0,1,49.82,10Zm4.08.49.08-.08a3.18,3.18,0,0,1,5.57,2.09,3.19,3.19,0,0,1-1.36,2.6l-21.51,24a19,19,0,0,0-9-10.15ZM19,63.74A18,18,0,1,1,36.84,44.62l-8-4.17c-.14-.07-3.59-1.79-5.73-1.79a9.61,9.61,0,0,0-5.5,17.5l8.11,6.22A17.74,17.74,0,0,1,19,63.74Zm-.75-8.39a8.61,8.61,0,0,1,4.91-15.69c1.91,0,5.25,1.67,5.28,1.68l42,21.93A25.74,25.74,0,0,0,56.58,84.79Zm64,55.4A24.7,24.7,0,1,1,107,86.05,24.73,24.73,0,0,1,82.25,110.75Z"/></g></g></svg>