<svg xmlns="http://www.w3.org/2000/svg" viewBox="0 0 107.95 111.75"><defs><style>.cls-1{fill:#fff;}.cls-2{fill:#1d1d1b;}</style></defs><g id="Camada_2" data-name="Camada 2"><g id="Camada_1-2" data-name="Camada 1"><path class="cls-1" d="M82.25,60.85a25.13,25.13,0,0,0-10.79,2.42L37.4,45.48a18.32,18.32,0,0,0-.9-5.42L55.44,18.94a9.53,9.53,0,1,0-5.7-6.1l-23,16.21a18.46,18.46,0,1,0,0,33.46L57.06,85.78c0,.09,0,.18,0,.27a25.2,25.2,0,1,0,25.2-25.2Z"/><path class="cls-2" d="M82.25,111.75a25.73,25.73,0,0,1-25.7-25.7v0L26.66,63.09A18.67,18.67,0,0,1,19,64.74a19,19,0,0,1,0-37.92,18.68,18.68,0,0,1,7.7,1.66l22.5-15.84a9.92,9.92,0,0,1-.34-2.6,10.07,10.07,0,1,1,6.76,9.49L37.07,40.18a19.51,19.51,0,0,1,.83,5L71.47,62.71a25.47,25.47,0,0,1,10.78-2.36,25.7,25.7,0,0,1,0,51.4ZM26.79,61.93,57.56,85.54v.51a24.7,24.7,0,1,0,24.7-24.7,24.45,24.45,0,0,0-10.58,2.37l-.22.11-34.54-18v-.3A18,18,0,0,0,36,40.22l-.09-.28L55.3,18.35l.32.13A9,9,0,1,0,49.82,10a8.89,8.89,0,0,0,.4,2.66l.1.34L26.77,29.62l-.27-.12a18,18,0,1,0,0,32.56Z"/></g></g></svg>