<?xml version="1.0" encoding="utf-8"?>
<!-- Generator: Adobe Illustrator 25.2.1, SVG Export Plug-In . SVG Version: 6.00 Build 0)  -->
<svg version="1.1" id="Camada_1" xmlns="http://www.w3.org/2000/svg" xmlns:xlink="http://www.w3.org/1999/xlink" x="0px" y="0px"
	 viewBox="0 0 106.9 110.8" style="enable-background:new 0 0 106.9 110.8;" xml:space="preserve">
<style type="text/css">
	.st0{opacity:0.15;}
</style>
<g id="Camada_2_1_" class="st0">
	<g id="Camada_1-2">
		<path d="M81.8,60.3c-3.7,0-7.4,0.8-10.8,2.4L36.9,45c0-1.8-0.3-3.7-0.9-5.4l18.9-21.1c1.1,0.4,2.2,0.6,3.4,0.6
			c5.3,0,9.6-4.3,9.6-9.5c0-5.3-4.3-9.6-9.5-9.6s-9.6,4.3-9.6,9.5c0,1,0.1,1.9,0.4,2.8l-23,16.2C17,24.2,6,28.2,1.7,37.5
			S1.4,57.7,10.6,62c4.9,2.3,10.7,2.3,15.6,0l30.3,23.3c0,0.1,0,0.2,0,0.3c0,13.9,11.3,25.2,25.2,25.2S107,99.5,107,85.5
			S95.7,60.3,81.8,60.3L81.8,60.3L81.8,60.3z"/>
	</g>
</g>
</svg>
