<svg xmlns="http://www.w3.org/2000/svg" viewBox="0 0 425.2 118.29"><defs><style>.cls-1{fill:#0082ba;}.cls-2{fill:#475e77;}</style></defs><g id="Camada_2" data-name="Camada 2"><g id="Camada_1-2" data-name="Camada 1"><path class="cls-1" d="M18.46,23.5A20.23,20.23,0,0,1,27,25.4L52.39,7.53A10.54,10.54,0,0,1,52.76.35,59.12,59.12,0,0,0,10.89,25,20.45,20.45,0,0,1,18.46,23.5Z"/><path class="cls-1" d="M73,4.44A10.52,10.52,0,0,1,62.45,15a10.27,10.27,0,0,1-3.77-.71L37.8,37.54a20,20,0,0,1,1,6L76.35,63.13a27.8,27.8,0,0,1,38.3,16.47,59.16,59.16,0,0,0-42.09-78A10.25,10.25,0,0,1,73,4.44Z"/><path class="cls-1" d="M60.46,88.25V88L27,62.3A20.31,20.31,0,0,1,.31,53c-.2,2-.31,4-.31,6.11a59.19,59.19,0,0,0,79.6,55.51A27.81,27.81,0,0,1,60.46,88.25Z"/><path class="cls-1" d="M302.43,90.18a37.88,37.88,0,0,1-10.27-1.38,15.8,15.8,0,0,1-6.48-3.61,12.78,12.78,0,0,1-3.38-5.85,29.75,29.75,0,0,1-1-8V2.29L295.2,0V68.73a19.49,19.49,0,0,0,.4,4.24A6.84,6.84,0,0,0,297,75.9a6.44,6.44,0,0,0,2.81,1.83,22,22,0,0,0,4.53,1Z"/><path class="cls-1" d="M332.72,27.54a33.92,33.92,0,0,1,11.59,1.72,18.38,18.38,0,0,1,7.51,4.82,17.93,17.93,0,0,1,4,7.51,37,37,0,0,1,1.2,9.7V87.66q-3.21.69-9.69,1.66a99,99,0,0,1-14.63,1,43.9,43.9,0,0,1-9.87-1,20.83,20.83,0,0,1-7.63-3.32,15.76,15.76,0,0,1-4.93-6,20.65,20.65,0,0,1-1.78-9.07,17.45,17.45,0,0,1,2-8.71,16.55,16.55,0,0,1,5.45-5.8,23.57,23.57,0,0,1,8-3.21,44.92,44.92,0,0,1,9.47-1,43.17,43.17,0,0,1,4.82.29,44.54,44.54,0,0,1,5.39,1v-2.3a18.1,18.1,0,0,0-.57-4.59,9.7,9.7,0,0,0-2-3.84,9.39,9.39,0,0,0-3.79-2.58,16.44,16.44,0,0,0-5.91-.92,52.31,52.31,0,0,0-8.83.69,39.06,39.06,0,0,0-6.54,1.6l-1.72-11.24a55.92,55.92,0,0,1,7.69-1.84A60.33,60.33,0,0,1,332.72,27.54Zm1.15,51.74a51.55,51.55,0,0,0,9.75-.69V63.22a26.55,26.55,0,0,0-3.33-.69,30.92,30.92,0,0,0-4.81-.34,31.83,31.83,0,0,0-4.65.34,14.55,14.55,0,0,0-4.25,1.26,7.8,7.8,0,0,0-3,2.58,7.26,7.26,0,0,0-1.15,4.19c0,3.29,1,5.56,3.1,6.83A16,16,0,0,0,333.87,79.28Z"/><path class="cls-1" d="M425.2,59.09a37.51,37.51,0,0,1-2.13,13A28,28,0,0,1,417,82a26,26,0,0,1-9.58,6.31,34.86,34.86,0,0,1-12.73,2.19,80.43,80.43,0,0,1-13.14-1,82.58,82.58,0,0,1-10.38-2.29V2.29L385,0V31.09A33.07,33.07,0,0,1,391,28.8,29.69,29.69,0,0,1,410,30a22.16,22.16,0,0,1,8.32,6.37,29.38,29.38,0,0,1,5.11,9.92A43.71,43.71,0,0,1,425.2,59.09ZM411,58.86q0-8.84-3.5-14T396.4,39.7A21.33,21.33,0,0,0,385,43V77.56a37.42,37.42,0,0,0,3.84.63,48.07,48.07,0,0,0,5.68.29q7.69,0,12.05-5.22T411,58.86Z"/><path class="cls-2" d="M268.3,72a29.38,29.38,0,0,1-5.11,9.92,22.16,22.16,0,0,1-8.32,6.37,29.5,29.5,0,0,1-19,1.2,33.07,33.07,0,0,1-5.91-2.29v31.09L216,116V31.09a82.58,82.58,0,0,1,10.38-2.29,80.45,80.45,0,0,1,13.14-1A34.82,34.82,0,0,1,252.29,30a26,26,0,0,1,9.58,6.31A28,28,0,0,1,268,46.18a37.51,37.51,0,0,1,2.13,13A43.71,43.71,0,0,1,268.3,72ZM251.49,45q-4.37-5.22-12.05-5.22a48.07,48.07,0,0,0-5.68.29,37.9,37.9,0,0,0-3.84.63V75.27a21.33,21.33,0,0,0,11.36,3.32q7.58,0,11.07-5.16t3.5-14Q255.85,50.25,251.49,45Z"/><path class="cls-2" d="M204.57,59a38.65,38.65,0,0,1-2.07,13,28.78,28.78,0,0,1-5.85,10,26.37,26.37,0,0,1-9.12,6.42,29.48,29.48,0,0,1-11.76,2.3,29,29,0,0,1-11.7-2.3A26.45,26.45,0,0,1,155,81.92a29.53,29.53,0,0,1-5.91-10A37.66,37.66,0,0,1,147,59a37.24,37.24,0,0,1,2.12-12.91,29,29,0,0,1,6-9.92,26.36,26.36,0,0,1,9.12-6.37,29.42,29.42,0,0,1,11.59-2.23,29.81,29.81,0,0,1,11.64,2.23,25.63,25.63,0,0,1,9.12,6.37,29.31,29.31,0,0,1,5.91,9.92A37.24,37.24,0,0,1,204.57,59Zm-14.23,0q0-8.94-3.85-14.17a13.63,13.63,0,0,0-21.45,0Q161.2,50,161.2,59T165,73.31a13.53,13.53,0,0,0,21.45,0Q190.35,68,190.34,59Z"/><path class="cls-2" d="M283.47,105.83a1,1,0,0,1-.32.78,1.13,1.13,0,0,1-1.51,0,1,1,0,0,1-.32-.78,1,1,0,0,1,.32-.79,1.13,1.13,0,0,1,1.51,0A1,1,0,0,1,283.47,105.83Zm-.19,9.75h-1.74V108h1.74Z"/><path class="cls-2" d="M288.39,108.28c.33-.09.77-.18,1.31-.27a10.9,10.9,0,0,1,1.79-.13,4.07,4.07,0,0,1,1.54.25,2.52,2.52,0,0,1,1,.71,2.76,2.76,0,0,1,.52,1.09,6.22,6.22,0,0,1,.15,1.41v4.24h-1.75v-4a6.17,6.17,0,0,0-.07-1,2,2,0,0,0-.26-.69,1.07,1.07,0,0,0-.5-.39,2,2,0,0,0-.75-.12,5.53,5.53,0,0,0-.69,0l-.54.08v6.08h-1.74Z"/><path class="cls-2" d="M301.45,115.58c-.48-1-1-2.13-1.49-3.41s-1-2.66-1.38-4.13h1.86c.11.42.23.88.37,1.36s.29,1,.45,1.46.32,1,.49,1.41.33.87.47,1.23c.15-.36.3-.77.47-1.23s.32-.93.48-1.41.31-1,.46-1.46.27-.94.37-1.36h1.81c-.42,1.47-.88,2.85-1.38,4.13s-1,2.42-1.49,3.41Z"/><path class="cls-2" d="M309.38,111.85a4.68,4.68,0,0,1,.3-1.75,3.65,3.65,0,0,1,.78-1.25,3.38,3.38,0,0,1,1.13-.75,3.62,3.62,0,0,1,1.3-.25,3.1,3.1,0,0,1,2.43,1,4.17,4.17,0,0,1,.87,2.88c0,.1,0,.21,0,.33a3,3,0,0,1,0,.32h-5a2,2,0,0,0,.65,1.41,2.44,2.44,0,0,0,1.65.49,5.25,5.25,0,0,0,1.16-.11,4.68,4.68,0,0,0,.83-.25l.23,1.43a2.45,2.45,0,0,1-.4.15,5.83,5.83,0,0,1-.57.15l-.7.11c-.25,0-.51,0-.77,0a4.57,4.57,0,0,1-1.73-.3,3.17,3.17,0,0,1-1.21-.82,3.38,3.38,0,0,1-.71-1.24A5.16,5.16,0,0,1,309.38,111.85Zm5.06-.78a2.26,2.26,0,0,0-.1-.69,1.57,1.57,0,0,0-.29-.56,1.5,1.5,0,0,0-.48-.38,1.54,1.54,0,0,0-.67-.13,1.61,1.61,0,0,0-.71.15,1.54,1.54,0,0,0-.51.4,1.64,1.64,0,0,0-.32.56,2.94,2.94,0,0,0-.16.65Z"/><path class="cls-2" d="M322.81,114.33a2.3,2.3,0,0,0,1-.17.59.59,0,0,0,.31-.57.74.74,0,0,0-.33-.62,5.15,5.15,0,0,0-1.12-.53,9.11,9.11,0,0,1-.87-.37,2.68,2.68,0,0,1-.69-.46,1.87,1.87,0,0,1-.45-.62,2.22,2.22,0,0,1-.17-.9,2,2,0,0,1,.76-1.64,3.3,3.3,0,0,1,2.08-.6,6.52,6.52,0,0,1,1.27.12,5.38,5.38,0,0,1,.91.24l-.32,1.42a3.67,3.67,0,0,0-.73-.24,4.61,4.61,0,0,0-1-.11,1.82,1.82,0,0,0-.87.18.58.58,0,0,0-.33.55.74.74,0,0,0,.07.34.65.65,0,0,0,.22.26,2.58,2.58,0,0,0,.42.25c.17.08.38.16.63.25a10.57,10.57,0,0,1,1.06.45,3,3,0,0,1,.71.51,1.75,1.75,0,0,1,.41.64,2.49,2.49,0,0,1,.13.87,1.86,1.86,0,0,1-.8,1.63,4,4,0,0,1-2.29.56,6.3,6.3,0,0,1-1.6-.17c-.4-.11-.68-.2-.85-.26l.3-1.46a6.16,6.16,0,0,0,.94.3A4.6,4.6,0,0,0,322.81,114.33Z"/><path class="cls-2" d="M330.31,106.05l1.74-.29V108h2.68v1.46h-2.68v3.07a2.23,2.23,0,0,0,.29,1.29,1.14,1.14,0,0,0,1,.39,3.15,3.15,0,0,0,.85-.1,3.94,3.94,0,0,0,.58-.19l.29,1.39a6.14,6.14,0,0,1-.8.27,4.34,4.34,0,0,1-1.15.13,3.75,3.75,0,0,1-1.35-.21,2.08,2.08,0,0,1-.86-.63,2.42,2.42,0,0,1-.44-1,6,6,0,0,1-.13-1.34Z"/><path class="cls-2" d="M341.25,105.83a1,1,0,0,1-.31.78,1.14,1.14,0,0,1-1.52,0,1,1,0,0,1-.31-.78,1,1,0,0,1,.31-.79,1.14,1.14,0,0,1,1.52,0A1,1,0,0,1,341.25,105.83Zm-.18,9.75h-1.75V108h1.75Z"/><path class="cls-2" d="M346.17,108.28c.34-.09.77-.18,1.31-.27a11,11,0,0,1,1.79-.13,4,4,0,0,1,1.54.25,2.38,2.38,0,0,1,1,.71,2.63,2.63,0,0,1,.52,1.09,6.22,6.22,0,0,1,.15,1.41v4.24h-1.74v-4a6.07,6.07,0,0,0-.08-1,2,2,0,0,0-.26-.69,1,1,0,0,0-.49-.39,2.13,2.13,0,0,0-.76-.12,5.53,5.53,0,0,0-.69,0l-.54.08v6.08h-1.74Z"/><path class="cls-2" d="M363.72,114.82a3.42,3.42,0,0,1-.92,2.64,4.07,4.07,0,0,1-2.8.83,8.58,8.58,0,0,1-1.35-.11,7.35,7.35,0,0,1-1.19-.31l.32-1.48a6.18,6.18,0,0,0,1,.3,5.9,5.9,0,0,0,1.23.12,2.12,2.12,0,0,0,1.5-.44,1.68,1.68,0,0,0,.45-1.28v-.29a4,4,0,0,1-.69.26,3.21,3.21,0,0,1-1,.13A3.52,3.52,0,0,1,359,115a2.77,2.77,0,0,1-1-.68,3.08,3.08,0,0,1-.66-1.12,4.55,4.55,0,0,1-.24-1.55,4.6,4.6,0,0,1,.25-1.51,3.33,3.33,0,0,1,.74-1.18,3.41,3.41,0,0,1,1.17-.77,4.36,4.36,0,0,1,1.58-.27,9.29,9.29,0,0,1,1.61.13c.51.09.94.18,1.3.27Zm-4.86-3.21a2.32,2.32,0,0,0,.48,1.63,1.66,1.66,0,0,0,1.25.51,2.56,2.56,0,0,0,.79-.12,2.09,2.09,0,0,0,.6-.27v-3.91l-.47-.08a6.47,6.47,0,0,0-.69,0,1.76,1.76,0,0,0-1.45.62A2.54,2.54,0,0,0,358.86,111.61Z"/><path class="cls-2" d="M381.23,106.05l1.74-.29V108h2.68v1.46H383v3.07a2.23,2.23,0,0,0,.29,1.29,1.14,1.14,0,0,0,1,.39,3,3,0,0,0,.84-.1,4.13,4.13,0,0,0,.59-.19l.29,1.39a6.14,6.14,0,0,1-.8.27,4.34,4.34,0,0,1-1.15.13,3.75,3.75,0,0,1-1.35-.21,2.08,2.08,0,0,1-.86-.63,2.42,2.42,0,0,1-.44-1,6,6,0,0,1-.13-1.34Z"/><path class="cls-2" d="M396.87,111.8a4.69,4.69,0,0,1-.26,1.63,3.57,3.57,0,0,1-.73,1.26,3.35,3.35,0,0,1-1.15.8,3.59,3.59,0,0,1-1.48.29,3.54,3.54,0,0,1-1.47-.29,3.41,3.41,0,0,1-1.14-.8,3.92,3.92,0,0,1-.74-1.26,5,5,0,0,1,0-3.25,3.72,3.72,0,0,1,.75-1.25,3.35,3.35,0,0,1,1.15-.8,3.61,3.61,0,0,1,1.45-.28,3.74,3.74,0,0,1,1.47.28,3.31,3.31,0,0,1,1.14.8,3.72,3.72,0,0,1,.75,1.25A4.91,4.91,0,0,1,396.87,111.8Zm-1.79,0a3,3,0,0,0-.48-1.78,1.72,1.72,0,0,0-2.69,0,2.89,2.89,0,0,0-.49,1.78,2.94,2.94,0,0,0,.49,1.8,1.69,1.69,0,0,0,2.69,0A3,3,0,0,0,395.08,111.8Z"/><path class="cls-2" d="M408.38,111.8a4.93,4.93,0,0,1-.26,1.63,3.73,3.73,0,0,1-.73,1.26,3.35,3.35,0,0,1-1.15.8,3.59,3.59,0,0,1-1.48.29,3.51,3.51,0,0,1-1.47-.29,3.41,3.41,0,0,1-1.14-.8,3.75,3.75,0,0,1-.74-1.26,5,5,0,0,1,0-3.25,3.72,3.72,0,0,1,.75-1.25,3.41,3.41,0,0,1,1.14-.8,3.95,3.95,0,0,1,2.92,0,3.35,3.35,0,0,1,1.15.8,3.55,3.55,0,0,1,.74,1.25A4.67,4.67,0,0,1,408.38,111.8Zm-1.79,0a3,3,0,0,0-.48-1.78,1.73,1.73,0,0,0-2.7,0,3,3,0,0,0-.48,1.78,3,3,0,0,0,.48,1.8,1.7,1.7,0,0,0,2.7,0A3,3,0,0,0,406.59,111.8Z"/><path class="cls-2" d="M415.69,115.73a4.55,4.55,0,0,1-1.29-.18,1.86,1.86,0,0,1-.81-.45,1.61,1.61,0,0,1-.43-.74,3.75,3.75,0,0,1-.12-1v-8.68l1.74-.29V113a2.58,2.58,0,0,0,.05.53.87.87,0,0,0,.19.37.74.74,0,0,0,.35.23,3.12,3.12,0,0,0,.57.12Z"/><path class="cls-2" d="M422.12,114.33a2.27,2.27,0,0,0,1-.17.58.58,0,0,0,.32-.57.73.73,0,0,0-.34-.62,5,5,0,0,0-1.11-.53c-.32-.12-.61-.24-.88-.37a2.8,2.8,0,0,1-.68-.46A1.89,1.89,0,0,1,420,111a2.23,2.23,0,0,1-.16-.9,2,2,0,0,1,.76-1.64,3.28,3.28,0,0,1,2.08-.6,6.59,6.59,0,0,1,1.27.12,6,6,0,0,1,.91.24l-.32,1.42a3.78,3.78,0,0,0-.74-.24,4.48,4.48,0,0,0-1-.11,1.8,1.8,0,0,0-.86.18.58.58,0,0,0-.33.55.9.9,0,0,0,.06.34.78.78,0,0,0,.23.26,1.93,1.93,0,0,0,.42.25c.17.08.38.16.63.25a11.37,11.37,0,0,1,1.05.45,2.88,2.88,0,0,1,.72.51,1.89,1.89,0,0,1,.41.64,2.75,2.75,0,0,1,.13.87,1.86,1.86,0,0,1-.8,1.63,4,4,0,0,1-2.29.56,6.25,6.25,0,0,1-1.6-.17c-.4-.11-.69-.2-.85-.26l.3-1.46a6.38,6.38,0,0,0,.93.3A4.6,4.6,0,0,0,422.12,114.33Z"/></g></g></svg>