<svg width="200" height="200" viewBox="0 0 200 200" fill="none" xmlns="http://www.w3.org/2000/svg">
<g clip-path="url(#clip0_2000_101062)">
<path d="M200 148.186L100 196.419L0 148.186V51.8141L100 3.58154L200 51.8141V148.186Z" fill="#EB9C00"/>
<path d="M143.209 95.3956L135.209 84.6979L106.139 106.465V95.256V74.2328C107.674 74.3723 109.255 74.4188 110.79 74.4188C120.278 74.4188 128.185 71.3956 133.116 65.9537C136.976 61.8142 138.93 56.2328 138.93 49.3491C138.93 42.6514 136.558 36.7909 132.278 32.9304C127.72 28.6514 120.79 26.4653 111.767 26.4653C105.627 26.4653 100.046 26.9304 94.6506 27.8607L92.6971 28.1863V101.861H92.7436V103.349L68.325 82.7444L59.6738 92.977L89.9529 118.512L59.7668 141.117L67.7668 151.814L92.7436 133.163V173.303H106.139V132.14L131.72 153.721L140.371 143.489L111.488 119.117L143.209 95.3956ZM106.092 62.0467V38.6514C107.488 38.4653 109.441 38.3258 111.906 38.3258C118.092 38.3258 125.441 40.2793 125.441 49.7211C125.441 60.6979 116.325 62.3723 110.93 62.3723C109.023 62.3723 107.441 62.2793 106.092 62.0467Z" fill="#292722"/>
</g>
<defs>
<clipPath id="clip0_2000_101062">
<rect width="200" height="200" fill="white"/>
</clipPath>
</defs>
</svg>
