<svg xmlns="http://www.w3.org/2000/svg" width="52" height="52" viewBox="0 0 52 52">
  <g id="Grupo_17454" data-name="Grupo 17454" transform="translate(15502 13445)">
    <rect id="Retângulo_9712" data-name="Retângulo 9712" width="52" height="52" transform="translate(-15502 -13445)" fill="rgba(255,255,255,0)"/>
    <path id="Caminho_10914" data-name="Caminho 10914" d="M644.405,151.936l-21.064-21.064L599.36,154.853a6.87,6.87,0,0,0,4.872,2.019h38.275A2.882,2.882,0,0,0,644.405,151.936Z" transform="translate(-16099.34 -13549.872)" fill="#1d3d66"/>
    <path id="Caminho_10915" data-name="Caminho 10915" d="M642.973,110.872H604.7a6.892,6.892,0,0,0-6.891,6.891v38.217a6.87,6.87,0,0,0,2.019,4.872l45.045-45.045A2.883,2.883,0,0,0,642.973,110.872Z" transform="translate(-16099.806 -13555.872)" fill="#8298c5"/>
  </g>
</svg>
