<svg xmlns="http://www.w3.org/2000/svg" width="133.115" height="32" viewBox="0 0 133.115 32">
  <g id="Grupo_17424" data-name="Grupo 17424" transform="translate(-1100.423 -968.001)">
    <path id="Caminho_10914" data-name="Caminho 10914" d="M627.08,143.834l-12.962-12.962L599.36,145.63a4.227,4.227,0,0,0,3,1.242h23.554A1.774,1.774,0,0,0,627.08,143.834Z" transform="translate(502.306 853.129)" fill="#1d3d66"/>
    <path id="Caminho_10915" data-name="Caminho 10915" d="M625.6,110.872H602.048a4.241,4.241,0,0,0-4.241,4.241v23.518a4.227,4.227,0,0,0,1.242,3l27.72-27.72A1.774,1.774,0,0,0,625.6,110.872Z" transform="translate(502.616 857.129)" fill="#8298c5"/>
    <g id="Grupo_17418" data-name="Grupo 17418" transform="translate(1143.27 976.003)">
      <path id="Caminho_10918" data-name="Caminho 10918" d="M743.393,125.7c-3.329,0-3.353,0-3.353,3.284v3.937a2.48,2.48,0,0,1-.516,1.715,2.679,2.679,0,0,1-3.286,0,2.467,2.467,0,0,1-.515-1.715V125.7h-.007c-3.506,0-3.566.008-3.568,3.394v4.114a4.549,4.549,0,0,0,1.523,3.742,6.422,6.422,0,0,0,4.186,1.247,6.121,6.121,0,0,0,4.09-1.236,4.657,4.657,0,0,0,1.45-3.754V125.7Z" transform="translate(-667.522 -121.839)" fill="#1d3d66"/>
      <path id="Caminho_10919" data-name="Caminho 10919" d="M680.367,126.174A3.489,3.489,0,0,1,682,129.5l-.024,5.734a2.33,2.33,0,0,1-1.51,2.194,10.771,10.771,0,0,1-4.341.683q-5.328,0-5.327-4.15a3.5,3.5,0,0,1,1.091-2.735,4.723,4.723,0,0,1,3.252-.983,7.2,7.2,0,0,1,1.775.227,6.51,6.51,0,0,1,1.534.588v-.767q0-2.087-2.686-2.087a6.566,6.566,0,0,0-2.122.372,5.638,5.638,0,0,0-1.741.9v-3.166a6.277,6.277,0,0,1,1.979-.743,12.6,12.6,0,0,1,2.867-.312A7.23,7.23,0,0,1,680.367,126.174Zm-2.4,9.247a.652.652,0,0,0,.48-.671v-1.87a5.667,5.667,0,0,0-1.848-.288,3.261,3.261,0,0,0-1.715.348,1.207,1.207,0,0,0-.538,1.091,1.35,1.35,0,0,0,.565,1.127,2.118,2.118,0,0,0,1.33.432A5.941,5.941,0,0,0,677.968,135.421Z" transform="translate(-655.252 -121.749)" fill="#1d3d66"/>
      <path id="Caminho_10920" data-name="Caminho 10920" d="M759.845,126.132a2.683,2.683,0,0,1,1.38,2.412V137.9a4.754,4.754,0,0,1-1.607,3.862,6.954,6.954,0,0,1-4.582,1.343,14.749,14.749,0,0,1-2.687-.215,6.116,6.116,0,0,1-1.8-.577V139.17a10.436,10.436,0,0,0,1.944.648,9.88,9.88,0,0,0,2.4.313,3.091,3.091,0,0,0,2.194-.625,2.339,2.339,0,0,0,.635-1.751v-.7a4.531,4.531,0,0,1-3.071,1.055,5.482,5.482,0,0,1-3.934-1.618,6.294,6.294,0,0,1-1.391-4.426q0-3.79,1.741-5.29a7.518,7.518,0,0,1,5.048-1.5A7.06,7.06,0,0,1,759.845,126.132Zm-6.236,8.348a2.325,2.325,0,0,0,1.956.972,4.25,4.25,0,0,0,2.158-.552v-5.565q0-1.224-1.918-1.224-2.928,0-2.926,3.742A4.268,4.268,0,0,0,753.609,134.48Z" transform="translate(-670.958 -121.755)" fill="#1d3d66"/>
      <path id="Caminho_10921" data-name="Caminho 10921" d="M699.071,126.714a6.339,6.339,0,0,0-4.534-1.523,10.282,10.282,0,0,0-4.162.767,2.373,2.373,0,0,0-1.618,2.207v10.412c0,3.5,0,3.5,3.5,3.5v-4.63a6.44,6.44,0,0,0,3.046.648,4.851,4.851,0,0,0,3.935-1.726,6.932,6.932,0,0,0,1.438-4.582Q700.678,128.237,699.071,126.714Zm-2.664,7.688a2.68,2.68,0,0,1-2.158.817,4.617,4.617,0,0,1-1.033-.121,3.175,3.175,0,0,1-.958-.383V129q0-.815,2.134-.815a2.382,2.382,0,0,1,2.1.875,4.562,4.562,0,0,1,.611,2.6A4.219,4.219,0,0,1,696.407,134.4Z" transform="translate(-658.844 -121.737)" fill="#1d3d66"/>
      <path id="Caminho_10922" data-name="Caminho 10922" d="M659.043,127.638l6-6.764c-4.428,0-4.854,0-6.707,2.04l-3.08,3.465v-5.5h-.485c-3.4,0-3.4,0-3.4,3.4v12.6h.036c3.848,0,3.85-.013,3.85-3.886v-1.1l1.065-1.2,2.172,3.086c2.175,3.09,2.187,3.1,7,3.1h.054Z" transform="translate(-651.366 -120.874)" fill="#1d3d66"/>
      <g id="Grupo_17415" data-name="Grupo 17415" transform="translate(44.45 0)">
        <path id="Caminho_10923" data-name="Caminho 10923" d="M723.181,140.873Z" transform="translate(-710.179 -124.874)" fill="#1d3d66"/>
        <path id="Caminho_10924" data-name="Caminho 10924" d="M706.929,140.873Z" transform="translate(-706.929 -124.874)" fill="#1d3d66"/>
        <path id="Caminho_10925" data-name="Caminho 10925" d="M711.576,140.873Z" transform="translate(-707.858 -124.874)" fill="#1d3d66"/>
        <path id="Caminho_10926" data-name="Caminho 10926" d="M719.955,120.874h0l-4.58,6.237-3.364-4.678h0c-1.122-1.559-1.122-1.559-3.1-1.559h-1.98v12.282c0,3.717,0,3.717,3.718,3.717V126.079l4.582,6.238,4.7-6.261v6.931c0,3.886,0,3.886,3.886,3.886V124.736C723.817,120.874,723.817,120.874,719.955,120.874Z" transform="translate(-706.929 -120.874)" fill="#1d3d66"/>
        <path id="Caminho_10927" data-name="Caminho 10927" d="M728.039,140.873Z" transform="translate(-711.151 -124.874)" fill="#1d3d66"/>
      </g>
    </g>
  </g>
</svg>
