<?xml version="1.0" encoding="utf-8"?>
<!-- Generator: Adobe Illustrator 27.1.1, SVG Export Plug-In . SVG Version: 6.00 Build 0)  -->
<svg version="1.1" id="Layer_1" xmlns="http://www.w3.org/2000/svg" xmlns:xlink="http://www.w3.org/1999/xlink" x="0px" y="0px"
	 viewBox="0 0 430 430" style="enable-background:new 0 0 430 430;" xml:space="preserve">
<style type="text/css">
	.st0{opacity:0;fill:#FCC80B;}
	.st1{fill:#FCC80B;}
	.st2{fill:#666666;}
</style>
<rect y="0" class="st0" width="430" height="430"/>
<g>
	<polygon class="st1" points="430,318.6 215,422.3 0,318.6 0,111.4 215,7.7 430,111.4 	"/>
	<path class="st2" d="M307.9,205.1l-17.2-23l-62.5,46.8v-24.1h0v-45.2c3.3,0.3,6.7,0.4,10,0.4c20.4,0,37.4-6.5,48-18.2
		c8.3-8.9,12.5-20.9,12.5-35.7c0-14.4-5.1-27-14.3-35.3c-9.8-9.2-24.7-13.9-44.1-13.9c-13.2,0-25.2,1-36.8,3l-4.2,0.7V219h0.1v3.2
		l-52.5-44.3l-18.6,22l65.1,54.9l-64.9,48.6l17.2,23l53.7-40.1v86.3h28.8v-88.5l55,46.4l18.6-22l-62.1-52.4L307.9,205.1z
		 M228.1,133.4V83.1c3-0.4,7.2-0.7,12.5-0.7c13.3,0,29.1,4.2,29.1,24.5c0,23.6-19.6,27.2-31.2,27.2
		C234.4,134.1,231,133.9,228.1,133.4z"/>
</g>
</svg>
