<?xml version="1.0" encoding="utf-8"?>
<!-- Generator: Adobe Illustrator 27.1.1, SVG Export Plug-In . SVG Version: 6.00 Build 0)  -->
<svg version="1.1" xmlns="http://www.w3.org/2000/svg" xmlns:xlink="http://www.w3.org/1999/xlink" x="0px" y="0px"
	 viewBox="0 0 1609 1636.3" style="enable-background:new 0 0 1609 1636.3;" xml:space="preserve">
<style type="text/css">
	.st0{display:none;}
	.st1{display:inline;fill:#FCC80B;}
	.st2{fill:url(#SVGID_1_);}
	.st3{fill:url(#SVGID_00000123422388694584017800000008112065209917523647_);}
	.st4{fill:#C99B0A;}
	.st5{fill:#666666;}
	.st6{fill:#212529;}
	.st7{fill:#FFFFFF;}
	.st8{fill:#FFDC94;}
	.st9{fill:#202338;}
	.st10{fill:#2F6B8C;}
	.st11{fill:#323657;}
	.st12{fill:#FAA146;}
	.st13{fill:#EEA886;}
	.st14{fill:#F08D29;}
	.st15{fill:#B86C1F;}
	.st16{fill:#C4B4AF;}
	.st17{fill:#EB4747;}
	.st18{fill:#CE622C;}
	.st19{fill:#DD6F37;}
	.st20{fill:#EA7F49;}
	.st21{fill:#EDDAD3;}
	.st22{fill:#DECCC6;}
	.st23{fill:#E3D1CA;}
	.st24{fill:#B39696;}
	.st25{fill:#DBB8B8;}
	.st26{fill:#F2CBCB;}
	.st27{fill:#163342;}
	.st28{fill:#B07C63;}
	.st29{opacity:0.24;fill:#3F444F;enable-background:new    ;}
	.st30{fill:#FF7E55;}
	.st31{fill:#E66947;}
	.st32{fill:#494F5C;}
	.st33{opacity:0.3;fill:#C2C2C2;enable-background:new    ;}
	.st34{fill:#DE9D7D;}
	.st35{fill:#E55353;}
	.st36{fill:#A77860;}
	.st37{fill:#FFB48F;}
	.st38{fill:#A63D3D;}
	.st39{fill:#0E2D3D;}
	.st40{fill:#78C2FF;}
	.st41{fill:#1D3B54;}
	.st42{fill:#285173;}
	.st43{fill:#183C59;}
	.st44{fill:#616161;}
	.st45{fill:#E0CEC7;}
	.st46{fill:#EEA987;}
</style>
<g id="Camada_2" class="st0">
	<rect x="0" class="st1" width="1609" height="1636.3"/>
</g>
<g id="Camada_1">
	<g>
		<g>
			
				<linearGradient id="SVGID_1_" gradientUnits="userSpaceOnUse" x1="477.3199" y1="9.4245" x2="936.83" y2="18.2144" gradientTransform="matrix(1 0 0 -1 0 1633.89)">
				<stop  offset="0" style="stop-color:#FF9F55"/>
				<stop  offset="1" style="stop-color:#FFD255"/>
			</linearGradient>
			<path class="st2" d="M881.2,1620.1c0,8.9-79.1,16.2-176.7,16.2s-176.7-7.2-176.7-16.2s79.1-16.2,176.7-16.2
				S881.2,1611.2,881.2,1620.1z"/>
		</g>
		<g>
			
				<linearGradient id="SVGID_00000138548223089873015690000004471265467155967364_" gradientUnits="userSpaceOnUse" x1="1150.53" y1="27.85" x2="1503.9099" y2="27.85" gradientTransform="matrix(1 0 0 -1 0 1633.89)">
				<stop  offset="0" style="stop-color:#FF9F55"/>
				<stop  offset="1" style="stop-color:#FFD255"/>
			</linearGradient>
			
				<ellipse style="fill:url(#SVGID_00000138548223089873015690000004471265467155967364_);" cx="1327.2" cy="1606" rx="176.7" ry="16.2"/>
		</g>
		<path class="st4" d="M1313.2,345.1H651.1c-169.8,11.3-169.1,198.4-169.1,198.4l0,0v893.9H1145V543.4
			C1145,543.4,1148.1,355.7,1313.2,345.1L1313.2,345.1z"/>
		<rect x="435.7" y="554.8" class="st5" width="8" height="688"/>
		<path class="st6" d="M1200.4,240.4H795.6V16h404.7V240.4z M803.6,232.4h388.7V24H803.6V232.4z"/>
		<path class="st6" d="M443.7,474H39V191.9h404.7V474z M47,466h388.7V199.9H47L47,466L47,466z"/>
		<path class="st6" d="M1589.6,923.3h-404.7V698.1h404.7V923.3z M1192.8,915.3h388.7V706.1h-388.7V915.3z"/>
		<path class="st7" d="M1286.8,332.9c-165.1,10.7-168.2,198.4-168.2,198.4v893.9H455.6V531.3c0,0-0.8-187.1,169.1-198.4H1286.8
			L1286.8,332.9z"/>
		<rect x="542.7" y="566.5" class="st8" width="455.3" height="40.2"/>
		<rect x="542.7" y="659.4" class="st8" width="388.8" height="28.5"/>
		<rect x="542.7" y="734.5" class="st8" width="195.4" height="42.3"/>
		<rect x="795.9" y="734.5" class="st8" width="202.1" height="42.3"/>
		<rect x="542.7" y="815.9" class="st8" width="311.4" height="30.1"/>
		<rect x="542.7" y="891.2" class="st8" width="350.8" height="16.7"/>
		<rect x="542.7" y="966.5" class="st8" width="421.9" height="16.7"/>
		<path class="st8" d="M739.6,1135.4H541.2v-95.1h198.4V1135.4z M544.2,1132.4h192.4v-89.1H544.2V1132.4z"/>
		<rect x="787.1" y="1041.9" class="st8" width="177.5" height="21.8"/>
		<rect x="787.1" y="1087.9" class="st8" width="125.8" height="21.8"/>
		<rect x="542.7" y="1192.5" class="st8" width="379.4" height="16.7"/>
		<rect x="542.7" y="1267.9" class="st8" width="199.8" height="16.7"/>
		<g>
			<path class="st6" d="M1289.3,836.9l-19.6-32c-1.6-2.6-0.8-6,1.8-7.7c2.6-1.6,6.1-0.8,7.7,1.8l13.8,22.6l36.8-21.8
				c2.7-1.6,6.1-0.7,7.6,2s0.7,6.1-1.9,7.6L1289.3,836.9L1289.3,836.9z"/>
			<path class="st6" d="M1302.4,886.2c-38.8,0-70.3-31.5-70.3-70.3s31.5-70.3,70.3-70.3s70.3,31.5,70.3,70.3
				S1341.2,886.2,1302.4,886.2L1302.4,886.2z M1302.4,755.6c-33.2,0-60.3,27-60.3,60.3s27,60.3,60.3,60.3s60.3-27,60.3-60.3
				S1335.6,755.6,1302.4,755.6z"/>
		</g>
		<polygon class="st6" points="965.4,104.7 966.7,134.3 978.5,133.7 976.2,84.2 925.5,86.5 926.1,98.3 956.7,96.8 902.7,156 
			846.6,104.9 838.7,113.6 903.5,172.6 		"/>
		<path class="st6" d="M185.3,295.6c-1.1-1.3-2.8-2.7-5.1-4.1s-4.8-2.9-7.7-4.2c-2.9-1.4-6.1-2.5-9.6-3.5c-3.5-1-7.1-1.6-10.8-1.9
			l-0.1,39.6l3.6,0.8c6.9,1.7,13.1,3.5,18.6,5.6c5.5,2.1,10.2,4.6,14,7.5c3.8,3,6.8,6.6,8.9,10.8s3.1,9.5,3.1,15.6
			c0,6.8-1.2,12.5-3.7,17.3c-2.4,4.8-5.8,8.8-10.1,11.9c-4.3,3.2-9.3,5.5-14.9,7.1c-5.7,1.6-11.8,2.4-18.3,2.5l-0.1,20.1l-9.9,0
			l0.1-20.5c-9.2-0.7-17.9-2.5-26.2-5.5c-8.3-3-15.9-7.2-22.7-12.6l9.8-18.3c1.4,1.5,3.4,3.2,6.1,5c2.7,1.8,5.8,3.5,9.4,5.2
			c3.6,1.7,7.5,3.1,11.7,4.4c4.3,1.3,8.7,2.2,13.3,2.7l0.1-39.6c-0.8-0.3-1.6-0.5-2.4-0.7c-0.8-0.2-1.6-0.4-2.4-0.7
			c-6.8-1.8-12.7-3.7-17.7-5.7c-5-2-9.2-4.4-12.5-7.2c-3.3-2.8-5.8-6.1-7.5-9.9c-1.7-3.8-2.6-8.3-2.5-13.7c0-6.2,1.1-11.8,3.3-16.6
			c2.2-4.8,5.3-9,9.2-12.5c4-3.5,8.6-6.2,13.9-8.2c5.3-2,11.1-3.2,17.5-3.7l0.1-19.3l9.9,0l-0.1,19.3c8.3,0.5,15.9,2.2,22.9,5
			s13.2,6.2,18.5,10.2L185.3,295.6L185.3,295.6z M122.1,300.3c0,5.4,1.8,9.4,5.6,12.1c3.8,2.7,9.5,5.1,17.1,7.1l0.1-37.7
			c-7.8,0.4-13.5,2.2-17.2,5.4S122.1,294.9,122.1,300.3L122.1,300.3z M177.2,364c0-5.6-2.2-9.9-6.7-12.8c-4.5-2.9-10.7-5.5-18.7-7.8
			l-0.1,37.9c8.2-0.1,14.4-1.6,18.9-4.5S177.2,369.6,177.2,364L177.2,364z"/>
		<rect x="245.9" y="272.3" class="st7" width="158.8" height="22.6"/>
		<rect x="245.9" y="321.6" class="st7" width="124.8" height="22.6"/>
		<rect x="245.9" y="371" class="st7" width="140.1" height="22.6"/>
		<rect x="1401.8" y="774.7" class="st7" width="113.5" height="22.6"/>
		<rect x="1401.8" y="824" class="st7" width="127.3" height="22.6"/>
		<rect x="1012.7" y="67.5" class="st7" width="144.4" height="22.6"/>
		<rect x="1012.7" y="116.9" class="st7" width="113.5" height="22.6"/>
		<rect x="1012.7" y="166.2" class="st7" width="127.3" height="22.6"/>
		<polygon class="st7" points="1290.8,1072.7 1167.9,1072.7 1167.9,1064.7 1282.8,1064.7 1282.8,928 1290.8,928 		"/>
		<polygon class="st7" points="702.3,319.5 694.3,319.5 694.3,279.6 960.5,279.6 960.5,251.7 968.5,251.7 968.5,287.6 702.3,287.6 
					"/>
		<polygon class="st7" points="404.8,789.1 265,789.1 265,487.8 273,487.8 273,781.1 404.8,781.1 		"/>
		<path class="st5" d="M1168.2,666.7h-8v-91c-0.1-1.5-9.8-176.2,137.7-201.7l1.4,7.9c-140.5,24.2-131.1,191.8-131,193.5
			L1168.2,666.7L1168.2,666.7z"/>
		<polygon class="st6" points="1609,841.6 1601,841.6 1601,687.4 1435.5,687.4 1435.5,679.4 1609,679.4 		"/>
		<polygon class="st6" points="174.9,497 17.4,497 17.4,348.6 25.4,348.6 25.4,489 174.9,489 		"/>
		<polygon class="st6" points="785.4,116.9 777.4,116.9 777.4,0 972.7,0 972.7,8 785.4,8 		"/>
		<polygon class="st5" points="1171.9,1463.8 1028.6,1463.8 1028.6,1455.8 1163.9,1455.8 1163.9,1238.9 1171.9,1238.9 		"/>
		<g>
			<path class="st9" d="M1271.6,1577.1c0,0-9.4,9.9-19,12c-9.6,2.1-16.3,4.7-16.3,10.4c-0.1,5.7,27.6,9.4,38.5,3.7
				c16.4-8.6,18-6,19.8-10.2c1.8-4.3-2.2-15.7-2.1-17.1C1292.7,1574.2,1271.6,1577.1,1271.6,1577.1L1271.6,1577.1z"/>
			<path class="st10" d="M1272.6,1572.3c0,0-1.2,4.6-1.1,4.7s21.6,2.5,20.9-1.2c-0.5-3-1.3-6.3-1.3-6.3L1272.6,1572.3L1272.6,1572.3
				z"/>
			<path class="st9" d="M1378.1,1579.7c0,0-6.9,9.7-16.2,11.9c-9.2,2.2-15.1,6.4-15.5,11.9c-0.4,5.5,21.6,12.8,37.1,3.1
				c10.2-6.4,14-6,16-10.1c2.1-4.1-1.1-15.4-0.9-16.7C1398.8,1578.1,1378.1,1579.7,1378.1,1579.7L1378.1,1579.7z"/>
			<path class="st10" d="M1378.4,1574.9c0,0-0.5,4.7-0.3,4.8c0.2,0.1,20.6,3.7,20.4,0c-0.1-2.9-1.3-6.6-1.3-6.6L1378.4,1574.9
				L1378.4,1574.9z"/>
			<path class="st11" d="M1294.2,1293.6c0,0-9.9,72-14,96.3c-4.7,28.4-6.3,52-7.7,66.7c-1.7,18.5-0.7,113.3-1.9,118.7
				s23.4,2.6,23.4,2.6s18-123.6,23-143.3c4.6-18.4,17.3-94.1,21.5-89.1c4.2,5,17.8,91.3,20.9,105.8c3.1,14.5,15.7,128.5,15.7,128.5
				s20.9,4.5,26.6,0c0,0-1.3-101.7-3.3-128.8c-0.8-10.3,6.6-123.9-11-169.7C1378.3,1257.1,1294.2,1293.6,1294.2,1293.6
				L1294.2,1293.6z"/>
			<path class="st12" d="M1293.3,1297l-1.1,10.8c0,0,30.2,12.2,103.7,12.2v-12.4L1293.3,1297L1293.3,1297z"/>
			<path class="st13" d="M1208.7,1161c0,0-4.4,9.7-7,10.3c-2.6,0.6-5.7,3.8-7.9,4.8c-2.2,1-9.3,1.5-11.2,3.4
				c-0.8,0.8-3.7,7.2-5.5,8.6c-1.7,1.4-5.6,3.7-4.4,5.2c1.2,1.4,5.2,0.3,5.2,0.3s-1.5,1.3-0.9,2.9c1.3,3.1,3.4,3.3,3.4,3.3
				s-0.7,2.4,0.2,3.5c1.9,2.6,3.9,2.6,3.9,2.6s0.2,1.8,1.8,3.2c2.1,1.8,4.7,0.8,4.7,0.8s2.1,2.9,4,2.3s3.1-2,4.4-2.8
				c1.4-0.8,11-11.9,14.5-22.3c3.5-10.4,9.7-18.8,9.7-18.8L1208.7,1161L1208.7,1161z"/>
			<path class="st14" d="M1210.7,1210.1c0,0,34.2,15.5,46.3,12.6c5.6-1.4,13-9.1,20-18.2c2.3-3,4.6-6.2,6.8-9.3v0
				c8.6-12.4,15.4-24.4,15.4-24.4s25.5-29.8,5-43.2c0,0-7.4-2.8-14.2,4.5c-6.8,7.3-14.8,22.6-16.6,26.5c-1.8,3.9-26.8,40-28.1,40.8
				c-1.3,0.8-12.2-2.1-21-2.8c-14.3-1.2-11.5-1.8-11.5-1.8L1210.7,1210.1L1210.7,1210.1z"/>
			<path class="st14" d="M1323.3,1121c0,0-26.2,5.4-29.3,8.2c-3.4,2.9-9.3,31.7-9.7,39.7c-0.3,8,3.2,41.4,6.5,53.9
				s-4.4,65.4,1.8,74.2c0,0,54.1,17.3,106,10.6c0,0-11.1-50-9.1-67.1c2.7-21.8,9.1-72.2,9.1-72.2s-6.9-33.9-11.6-37.8
				c-4.6-3.9-36.8-10.3-36.8-10.3L1323.3,1121L1323.3,1121z"/>
			<path class="st15" d="M1381.7,1189.4c0,0,4.9,32.2,4.6,34.3C1385.9,1225.7,1408.7,1217.2,1381.7,1189.4z"/>
			<g>
				<path class="st16" d="M1496,1366.9l22.8-37.8c3.9-6.4,1.8-14.7-4.6-18.6l-57.1-34.4c-6.4-3.9-14.7-1.8-18.6,4.6l-22.8,37.8
					c-3.9,6.4-1.8,14.7,4.6,18.6l57.1,34.4C1483.8,1375.3,1492.1,1373.3,1496,1366.9z"/>
				
					<rect x="1232.8" y="978" transform="matrix(0.5161 -0.8565 0.8565 0.5161 -417.5306 1671.9569)" class="st17" width="76.3" height="455"/>
				
					<rect x="1271.4" y="956.2" transform="matrix(0.5161 -0.8565 0.8565 0.5161 -392.5285 1672.6801)" class="st18" width="25.4" height="455"/>
				
					<rect x="1258.2" y="978" transform="matrix(0.5161 -0.8565 0.8565 0.5161 -417.5085 1671.9474)" class="st19" width="25.4" height="455"/>
				
					<rect x="1245.1" y="999.8" transform="matrix(0.5161 -0.8565 0.8565 0.5161 -442.553 1671.2745)" class="st20" width="25.4" height="455"/>
				<polygon class="st21" points="1056.4,1120.8 1095.8,1055.4 1007.3,1037.6 984.6,1033 999.3,1050.9 				"/>
				<path class="st22" d="M1082.6,1077.2c5.8,3.5,13.5,1.5,17.1-4.5c3.6-6,1.8-13.8-4-17.3L1082.6,1077.2z"/>
				<path class="st23" d="M1069.5,1099c5.8,3.5,13.5,1.5,17.1-4.5s1.8-13.8-4-17.3L1069.5,1099z"/>
				<path class="st21" d="M1056.4,1120.8c5.8,3.5,13.5,1.5,17.1-4.5s1.8-13.8-4-17.3L1056.4,1120.8z"/>
				
					<rect x="1467.7" y="1288" transform="matrix(0.5161 -0.8565 0.8565 0.5161 -398.8513 1898.0638)" class="st24" width="25.4" height="28"/>
				
					<rect x="1454.5" y="1309.8" transform="matrix(0.5161 -0.8565 0.8565 0.5161 -423.8405 1897.3348)" class="st25" width="25.4" height="28"/>
				
					<rect x="1441.3" y="1331.5" transform="matrix(0.5161 -0.8565 0.8565 0.5161 -448.7927 1896.5551)" class="st26" width="25.4" height="28"/>
				<polygon class="st22" points="1082.6,1077.2 984.6,1033 1095.8,1055.4 				"/>
				<polygon class="st23" points="1069.5,1099 984.6,1033 1082.6,1077.2 				"/>
				<polygon class="st21" points="1069.5,1099 984.6,1033 1056.4,1120.8 				"/>
				<polygon class="st18" points="999.3,1050.9 1007.3,1037.6 984.6,1033 				"/>
			</g>
			<path class="st13" d="M1327.9,1297.7c0,0,2.4-0.2,3.4-0.8c0,0,1.8-1.2,3.1-2.1c0.4-0.3,0.8-0.5,1-0.6c1.1-0.5,3.5-1.2,5.7-3
				c2.2-1.8,9.7-12.2,9.7-12.2l-4.5-5.6l-3.4-5.9c0,0-17.4,2.7-19.7,4.2c-0.2,0.2-0.4,0.3-0.6,0.5c-1.8,1.4-2.5,3.3-3.4,4.1
				c-0.3,0.3-3.2,3.7-3,5c0.3,1.8,1.3,2.9,2.4,3.4c0,0,0.8,3.5,2.7,5c0,0,0.6,3.3,3.5,4.5C1325,1294.2,1326,1297.4,1327.9,1297.7
				L1327.9,1297.7z"/>
			<path class="st14" d="M1372.6,1129.6c-3.4,1.3-7.1,9.7-4.4,26c2.9,17.5,8.7,25,11,29.1c2.3,4.1,15.1,29.3,12.8,32.6
				c-2.3,3.3-24,24.7-25.2,26.5c-1.2,1.7-25.5,23.7-25.5,23.7l12.3,17.2c0,0,52.3-40.8,56.4-44.9c4.1-4.1,16.3-12.7,11.8-26.9
				c-4.6-14.5-12.8-48.4-14.3-51S1395.3,1120.8,1372.6,1129.6L1372.6,1129.6z"/>
			<path class="st13" d="M1178.4,1192.3c0,0,8.4-9.3,12.6-9.2c4.2,0.2,1.3,3.7,1.3,3.7s2.8-3.6,5.7-1.7s-0.6,5.8-0.6,5.8
				s2.8-2.1,5,0.8c2.2,2.9-1.5,5.6-1.5,5.6s5.5-0.8,4.4,3.7c-2,7.6-10.2,11.3-10.2,11.3s-2.4,0.9-4.3-2.1c0,0-5.2,2-6.6-4
				c0,0-6.2-1.4-4.3-6.3C1179.9,1200,1173.6,1197.6,1178.4,1192.3L1178.4,1192.3z"/>
			<path class="st12" d="M1311.4,1123.6c0,0-1.6-7.2,20.9-8.8c22.5-1.7,37.7,3.4,38.1,9.8c0.4,6.4-56.9,22.5-56.9,22.5
				L1311.4,1123.6L1311.4,1123.6z"/>
			<path class="st13" d="M1334.1,1039.9c0,0-31.5-11.7-29.6,30.2c2,41.9,9.4,46.2,30.1,40.3c20.8-5.8,22.5-32.3,25.2-45
				S1344.4,1041.7,1334.1,1039.9L1334.1,1039.9z"/>
			<path class="st13" d="M1318.1,1127.6c0,0,7.6,3.3,32.2-7.5c0,0-0.7-16.9,4.1-32.6s-33,21-33,21c0.4,0.3,0.5,1.9,0.2,4.1
				c-0.2,1.9-0.6,4.2-1.2,6.5C1319,1124.3,1319.3,1123.3,1318.1,1127.6L1318.1,1127.6z"/>
			<path class="st27" d="M1355.5,1086.2c0,0,0.1-11.2-4.6-12.2c-4.7-1-7.1,5.4-7.1,5.4l-3.8-0.2c0,0,3.3-11.3-1.1-13.9
				s-31-0.3-34.3-4.1c-3.3-3.8,1.5-26.5,8.8-28.7s27-6.7,39.6,4.4c0,0,10.8,4.7,11.2,13.6
				C1364.7,1059.3,1359.2,1080.1,1355.5,1086.2L1355.5,1086.2z"/>
			<path class="st28" d="M1320.4,1119c24.4-4.1,28.1-18,28.2-18.2c-9.5,12.3-26.9,11.7-26.9,11.7
				C1321.4,1114.4,1321,1116.7,1320.4,1119L1320.4,1119z"/>
			<path class="st13" d="M1345.6,1069.2c1.4-3.7,9.3-3.2,8.5,2.6c-0.8,5.9-7.3,14.9-9.9,13.2
				C1341.5,1083.3,1343.7,1074.3,1345.6,1069.2L1345.6,1069.2z"/>
		</g>
		<path class="st8" d="M1062.4,1312.2H937.2V1187h125.2V1312.2z M949.2,1300.2h101.2V1199H949.2V1300.2z"/>
		<polygon class="st8" points="1001.7,1276.1 957.7,1234.6 971.4,1220 1002.6,1249.5 1071.2,1193.2 1083.9,1208.6 		"/>
		<path class="st29" d="M849.9,915.2c-72.8-125.3-233.3-167.9-358.6-95.1c-12.6,7.3-24.3,15.5-35.2,24.4v60.2
			c15.7-18.4,34.7-34.5,56.8-47.4c104.7-60.8,238.9-25.2,299.8,79.5c18.7,32.2,28.2,67.1,29.5,101.8c0.1,2.7,0.2,5.4,0.2,8.1
			c0,75.6-39.1,149.2-109.2,189.8c-93.2,54.1-209.7,31.9-277.1-47.4v60.2c15.8,13.1,33.1,24.1,51.2,33h231.4
			c5.4-2.7,10.7-5.5,16-8.6C880.1,1201.1,922.7,1040.5,849.9,915.2L849.9,915.2z"/>
		<g>
			
				<rect x="-26.1" y="1336.1" transform="matrix(0.7682 -0.6402 0.6402 0.7682 -835.4026 437.1254)" class="st30" width="424" height="72.1"/>
			
				<rect x="346.1" y="1201.8" transform="matrix(0.7682 -0.6402 0.6402 0.7682 -704.0968 513.8221)" class="st31" width="22.6" height="54.7"/>
			<path class="st32" d="M328.2,1178.7c72.8,125.3,233.3,167.9,358.7,95.1s167.9-233.3,95.1-358.7S548.7,747.3,423.4,820
				S255.5,1053.4,328.2,1178.7L328.2,1178.7z M365.5,1157.1c-32.3-55.6-37.4-119.5-19.4-176.3c15.9-50.2,49.8-94.9,99-123.5
				c104.7-60.8,238.9-25.2,299.8,79.5c18.7,32.2,28.2,67.1,29.5,101.8l0,0c2.9,78.4-36.5,155.8-109,197.9
				C560.5,1297.4,426.3,1261.8,365.5,1157.1L365.5,1157.1z"/>
			<path class="st33" d="M346.1,980.8c0,0,228.4-173.4,428.2,57.8l0,0c-1.3-34.7-10.9-69.7-29.5-101.8
				C684,832.1,549.8,796.5,445,857.3C395.9,885.9,362,930.6,346.1,980.8L346.1,980.8z"/>
		</g>
		<g>
			<path class="st34" d="M689.6,659.5c0,0,5.4-18.2,4.7-20.2s-13.4-14.2-13.3-15.7s17-11.9,18.7-14.9c1.7-3,4.8,5.7,5.5,13.2
				c0.6,7.5,1.8,19.5,1.8,21.1s-4,22.1-4,22.1L689.6,659.5L689.6,659.5z"/>
			<path class="st35" d="M640.7,687.8c0,0,0.3,1.9,0.8,4.7l0,0c0.3,1.8,0.7,3.9,1,6.2c1.2,7,2.6,15.4,3.2,18.3
				c1,5.3,4.3,17.6,8.5,23.4c1.7,2.4,6.3,3.5,8.6,3.8c2.7,0.2,9.7,3,17.9-10c8.2-13,21.3-58.6,22-61.1c0.7-2.5,2.7-9.4,2.7-9.4
				l-16.9-6c0,0-12.1,32.9-13.8,37.5c-1.3,3.4-8.9,17.3-9.3,17.7c-0.4,0.4-1.3-37.8-1.3-37.8L640.7,687.8L640.7,687.8z"/>
			<path class="st11" d="M715.1,935.8c0,0,12.5,21.1,17.7,24.6c7.1,4.7,2.7,9.4-0.7,9.4c-3.4,0-20.7,1.2-24.5-3.1
				s-5.7-17.3-9.3-20.7c-3.5-3.4-7.2-16.9,1.7-20.2C708,922.9,715.1,935.8,715.1,935.8L715.1,935.8z"/>
			<path class="st13" d="M709.7,926.5c0,0,14.3,24.7,16.7,28.4s-4.6,3.7-9,1.9c-4.4-1.7-15.5-19.5-17-22.7c-1.9-3.9-0.3-8.3-0.3-8.3
				L709.7,926.5L709.7,926.5z"/>
			<polygon class="st11" points="695.3,939.8 698.6,965.2 700.3,965.3 699.8,947 			"/>
			<path class="st11" d="M591.5,935.8c0,0,12.5,21.1,17.7,24.6c7.1,4.7,2.7,9.4-0.7,9.4c-3.4,0-20.7,1.2-24.5-3.1
				s-5.7-17.3-9.3-20.7c-3.5-3.4-7.3-17.2,1.7-20.2C584.4,923.3,591.5,935.8,591.5,935.8L591.5,935.8z"/>
			<path class="st13" d="M586.9,926.6c0,0,13.5,24.7,16,28.3s-4.6,3.7-9,1.9c-4.4-1.7-15.5-19.5-17-22.7c-1.9-3.9-0.3-8.3-0.3-8.3
				L586.9,926.6L586.9,926.6z"/>
			<polygon class="st11" points="571.7,939.8 575,965.2 576.7,965.3 576.2,947 			"/>
			<path class="st13" d="M536.3,743.5L649,794.9c0,0,2.7,0.9,5.7,3.2l0,0c1.1,0.9,2.3,2,3.5,3.3c2.3,2.7,4.3,6.5,4.8,11.6
				c4.4,43.6,37,112.8,37,112.8c10.5,5.1,9.7,0.7,9.7,0.7c-6.6-21.2-14.6-108.5-17.5-143.6c-0.6-7.4-1-12.5-1.1-14.2
				c0-1.1-1.3-2.6-3.4-4.2C672.3,752,608.7,726,608.7,726C560.9,724.8,536.2,743.5,536.3,743.5L536.3,743.5z"/>
			<path class="st13" d="M528,761.2c3.5,30.5,34,31.4,34,31.4h52.7c0,0-13.8,30.8-19.2,56.8c-5.7,27.6-19.1,76.4-19.1,76.4
				s0.9,1.7,10.4,0.7c0,0,41.4-82.5,57.2-103.2c3.4-4.5,13.2-28.7,14.9-43.1c0.6-4.9,0.2-8.6-1.6-10.1c-1.8-1.5-6-4.4-11.6-8
				c-16.5-10.4-45.2-26.5-61.2-30c-21.4-4.8-46-13.8-46-13.8S524.5,730.7,528,761.2L528,761.2z"/>
			<path class="st11" d="M609.2,792.6H562c0,0-34.3,0.9-38.4-29.5c-3.4-25.5,12.6-43,12.6-43s16,4.3,36.1,9.1
				c10-2.1,22.2-3.5,36.3-3.2c0,0,59.9,12.1,82.1,41.6C690.8,767.7,655.6,749.9,609.2,792.6L609.2,792.6z"/>
			<path class="st13" d="M660.3,592.7c-0.2,3.4-0.2,6.9-0.3,10.2c0,1,0,2.1,0.1,3.1c0.5,6,2.7,11.9,6.1,16.4l0,0l0,0
				c4.9,6.4,12.2,10.2,20.8,8.1c15.8-3.7,26.2-54.9,26.2-54.9c-4.3-20-31-21.2-41.7-14C663.2,567.2,660.9,579.8,660.3,592.7
				L660.3,592.7z"/>
			<path class="st35" d="M533.7,721.5c0,0,0.5,5.8,45.2,12.9c1.2,0.2,2.4,0.4,3.5,0.6c4.1,0.7,7.6,1.3,10.6,1.9
				c21.2,3.9,16.9,3.8,25.7-11c1.2-2,9.3-21.1,12.4-22.9s8.8-7.8,11.2-11.6c2.4-3.7,11.4-1.3,19.8-8.7c8.4-7.4,4.9-17.9,5.4-26.5
				c0.9-15-4.8-32.1-4.8-32.1c-23.5-44.1-57.8-9.1-64.1-2.8s-27.5,58.5-33.3,65.1C544.7,709.8,533.7,721.5,533.7,721.5L533.7,721.5z
				"/>
			<path class="st13" d="M638.7,604.4c0,0,3.5,42.9,13.7,47.8c10.5,5,6.8-37.2,6.8-37.2S650.7,597.2,638.7,604.4L638.7,604.4z"/>
			<path class="st27" d="M701,578.7c0,0,5.4,17.7,4.5,24.7c0,0,7.1-9.5,8.5-18.3c1.4-8.7,5.6-22.7-7.5-33.5
				C693.5,540.9,701,578.7,701,578.7L701,578.7z"/>
			<path class="st13" d="M647.8,617.1c0,10.6,11.3,16.6,12.2,11.5c0.1-0.6,1.4-1.9,2.4-3l0,0c0.4-0.4,0.7-0.8,0.9-1
				c0.8-0.8,1.8-1.6,3-2.4c4.3-2.7,10.4-4.5,10.4-4.5l-11.4-31.2c0,0-2.2,2.4-4.9,6.1C655.1,599.4,647.8,610.2,647.8,617.1
				L647.8,617.1z"/>
			<path class="st36" d="M662.3,625.7c0.4-0.4,0.7-0.7,0.9-1c0.8-0.8,1.8-1.6,3-2.4c0,0-5.6-7.7-6.1-16.4
				C660.1,605.9,657.6,612.6,662.3,625.7L662.3,625.7z"/>
			<path class="st37" d="M622.1,816.1c0,0-1.3-1.6-1.5-2.5c0,0-0.3-1.8-0.6-3c-0.1-0.4-0.2-0.8-0.3-1c-0.3-0.9-1.3-2.8-1.5-5.2
				c-0.2-2.4,1.6-13,1.6-13l6-0.7l5.5-1.4c0,0,8.7,12,9.1,14.2c0,0.2,0.1,0.4,0.1,0.6c0.2,1.9-0.5,3.4-0.5,4.4
				c0,0.4-0.3,4.1-1.2,4.7c-1.3,0.9-2.5,1-3.5,0.6c0,0-2.6,1.6-4.6,1.4c0,0-2.3,1.6-4.7,0.5C626,815.8,623.5,817.1,622.1,816.1
				L622.1,816.1z"/>
			<path class="st35" d="M620.6,637.6c0,0,5.9-22.2-9.5-21.8c-15.4,0.3-16.5,19.5-16.9,23.3c-0.5,3.8-5.7,48.7-5.1,57.2
				c0.6,8.5-1.1,20.1,0.7,31.3c1.4,8.4,28.8,67.2,29.2,67.4s14-5.3,14-5.3s-17.6-57.3-19.9-62.6c-3.6-8.2-2.2-14.3-2.4-18.3
				S620,641.1,620.6,637.6L620.6,637.6z"/>
			<path class="st27" d="M703.2,580.5c0,0-7.4,13.1-19,10s-20.1-0.1-21.5,4.8c-1.4,4.9-11.3,31-21.8,30.2s-18.1-16.8-24-13.7
				c-5.9,3.1-12.3,20.7-20,16s-6.2-21,10.2-28c16.4-7,28.1-7,32.9-16.2c4.8-9.2,16.7-34.1,28.1-39.1c8.4-3.7,18.5-6.4,34.3,3.8
				c15.8,10.3,10.9,27.1,10.9,27.1L703.2,580.5L703.2,580.5z"/>
			<path class="st28" d="M654.8,798.1L654.8,798.1c1.1,0.9,2.3,2,3.5,3.3c0,0,2.3-8.7,1-23.5C659.2,777.9,659.2,784.3,654.8,798.1
				L654.8,798.1z"/>
			<path class="st38" d="M582.4,735c4.1,0.7,7.6,1.3,10.6,1.9l0,0c0,0-3.3-7.5-3.2-10c0-2.5-1.6-29.4,0.5-50.1
				c2.1-20.7,1.9-19.2,1.9-19.2S577.9,700.1,582.4,735L582.4,735z"/>
			<path class="st38" d="M641.5,692.5L641.5,692.5c0.3,1.8,0.3,1.7,0.7,4c13.2-4.8,16.8-11.1,16.9-11.4c-4.5,3.3-10.7,3.7-13.9,4.4
				S641.5,692.5,641.5,692.5L641.5,692.5z"/>
		</g>
		<g>
			<path class="st39" d="M723.6,1037.8c0,0,18.9,9.2,14.2,34.3c-4.7,25.1-6.7,28.5-1.5,38.3c5.2,9.8,11.4,51.6,6.7,59.6
				c-4.7,7.9-58.1-34.8-65.5-70.7s4.7-51.8,9-57.8C690.7,1035.5,706.9,1029.4,723.6,1037.8L723.6,1037.8z"/>
			<polygon class="st40" points="565.8,990.5 645.2,990.5 645.2,1048 645.2,1060.1 633.1,1048 565.8,1048 			"/>
			<path class="st27" d="M731.7,1571.7c0,0,1.9,4.5,5.5,9.2c2.6,3.4,10.8,17.6,14.5,18.6s14.8,3,15.8,9.2c1,6.2,1.5,10.7-9.5,11.2
				c-11,0.5-18.2,1.2-23.5-6.6s-13.6-13.3-13.6-13.3v20.2h-4.3c0,0-2-21-3.1-22.5s-4.1-17.6,6.1-26S731.7,1571.7,731.7,1571.7
				L731.7,1571.7z"/>
			<path class="st13" d="M751.7,1599.5c0,0-9.9,2.5-13.6,0c-3.8-2.5-16.6-24.2-20.9-25.5c0,0,4.1-8.4,14.6-2.3
				C731.7,1571.7,748.9,1595.9,751.7,1599.5L751.7,1599.5z"/>
			<path class="st13" d="M847.9,1227.7c0,0,6.8,1.3,9.2-1.9c2-2.7,6.5-4.8,7.9-5.5c1.9-0.9,6.6-5.7,7.7-3.3s-7.4,8.3-9,9.9
				c-1.5,1.6,8.4,2.3,10.1,3.9c1.7,1.6-0.4,18-7.2,16.7c-6.8-1.3-13.2-7.1-14.4-7.1c-1.2,0-5-0.7-5-0.7L847.9,1227.7L847.9,1227.7z"
				/>
			<path class="st13" d="M872.4,1230.1c0,0,20.5,5.3,21.5,6.8c1.1,1.5,0.7,2.6-1.2,2.2c-1.9-0.4-19.9-4.5-19.9-4.5
				s23.2,10.3,24.3,11.3c0.7,0.6,0.1,2.8-0.9,2.6s-24.6-9-24.6-9s21.6,9.7,22.3,10.8c0.6,1-0.4,2.8-2,2.2
				c-1.7-0.6-22.2-8.5-22.2-8.5s15.3,8,15.3,9.3c0,0.8-0.4,2.7-4.3,0.5s-13.6-6.4-13.6-6.4L872.4,1230.1L872.4,1230.1z"/>
			<path class="st27" d="M676.6,1584.8c0,0,11,16.3,15.5,20.3c0,0,9.9,3.6,10.8,10.5s0.8,11.5-10.8,11.8s-19.3-1.8-21.5-8.8
				c-2.1-7.1-6.8-11.9-6.8-11.9v14.8h-2.6c0,0-0.7-14.3-0.8-16.9c-0.2-2.6-1.9-12.7,3.7-17.2S676.6,1584.8,676.6,1584.8
				L676.6,1584.8z"/>
			<path class="st41" d="M669.2,1269.1c0,0-13.9,18.1-17.7,39.5c-3.8,21.4,2.2,93.4,2.1,104c-0.2,10.6-10,37-8,56.9
				c2,20,9.8,119.4,9.8,119.4l21.3-4.2c0,0-1.2-101.3,0-109.7s3.7-38.9,4.2-42.4c0.5-3.4,31.3-94.1,31.3-109.6
				S702.7,1243.9,669.2,1269.1L669.2,1269.1z"/>
			<path class="st41" d="M739,1276.2c0,0,22.8,87.2,25.6,99.3s6.6,22,6.6,27.2c0,11.9-4.4,31-4.4,31l-29,138.8h-27.6
				c0,0,15.4-83.2,15.8-99.5c0.4-16.3,13-39.5,10.5-46.4c-2.5-6.9-39.7-86.5-39.7-86.5S668.6,1250.9,739,1276.2L739,1276.2z"/>
			<path class="st13" d="M692,1605.1c0,0-11.3,6.3-18.5-1.8c-6.1-6.8-9.5-15.9-9.5-15.9l12.6-2.6L692,1605.1L692,1605.1z"/>
			<path class="st42" d="M729.6,1128c0,0,9.4,0.9,16.5,8.5s13.8,19.8,15.7,23.8c1.9,4.1,28,41.8,29.3,42.6
				c1.4,0.8,14.5,5.2,23.2,8.2c13.4,4.5,40.3,14.3,40.3,14.3l-5.3,16.9c0,0-50.6-16.6-63.3-19.7c-15.5-3.8-51.2-49.6-51.2-49.6
				S708.2,1141.9,729.6,1128L729.6,1128z"/>
			<path class="st30" d="M713.2,1121.4c0,0,12.2,5.8,16.4,6.6s20.7,22.2,23.5,30s0,19.5-5.9,33.2c-5.9,13.7-0.3,18.3-3,32
				c-2.7,13.7-1.8,65.1-1.3,72.7c0.5,7.6-79.3,19.2-95.1,5.3c0,0,10.7-46.3,23.3-59.5c2.7-2.9,2.4-21.9,0.6-26.6
				c-1.9-4.7-22.9-40.2-22.9-40.2s-1.5-35.9,7.6-43c8-6.2,29.7-8.4,33.6-9.8S705.2,1120.2,713.2,1121.4L713.2,1121.4z"/>
			<path class="st13" d="M719,1107.3c0,0-0.4,3.4-0.8,7.9c-0.2,1.8-0.3,3.8-0.5,5.8c-0.5,6.1-0.9,12.6-0.6,16
				c0,0-12.7,12.7-27.1-14.8c0,0,6.1-11.3,1.5-26.8C686.9,1079.9,719,1107.3,719,1107.3L719,1107.3z"/>
			<path class="st43" d="M754.5,1196.3c0,0,3-20.3-0.2-32.6c0,0,0,10.6-5.8,25.7L754.5,1196.3L754.5,1196.3z"/>
			<path class="st13" d="M680.2,1124.1c0,0,8.7,25.8,32.7,23.9c23.9-1.9,11.3-21.8,11.3-21.8s-6-3.4-7.7-3.8
				c-1.7-0.3-26.5-0.6-26.5-0.6L680.2,1124.1L680.2,1124.1z"/>
			<path class="st42" d="M724.2,1126.2c0,0,12.5,34.7,12.5,70.1s1,92.9,5.4,111.1c4.4,18.2,16.8,74.4,16.8,74.4l9.8-5.1
				c0,0-23.5-89.8-25.3-96.2s1.3-74.9,3-80.6c1.7-5.7,8.8-31.2,7.7-38.3c-1.4-8.9-9.8-22.1-23.2-33.4L724.2,1126.2L724.2,1126.2z"/>
			<path class="st42" d="M685,1123c0,0,7.8,25,11.8,56.9c4,32-12.1,180.3-22.9,214l-41.8-6.7c0,0,9-104.9,21.2-124
				c12.2-19.1,16.1-36,2.9-75.8c-13.2-39.8,5.8-59.6,5.8-59.6S681.3,1123.4,685,1123L685,1123z"/>
			<polygon class="st44" points="730,1228.9 679.4,1316.6 623.1,1284.1 671.5,1195.1 			"/>
			<polygon class="st45" points="723.9,1231.9 678.9,1309.8 628.9,1280.9 672,1201.9 			"/>
			<polygon class="st44" points="707.3,1224.9 710.5,1219.4 690.3,1207.8 686.3,1212.8 			"/>
			<path class="st13" d="M704.9,1287.1c0,0-2.3,0-3.3-0.5c0,0-1.8-1-3.1-1.7c-0.4-0.2-0.8-0.4-1-0.5c-1-0.4-3.4-0.8-5.7-2.4
				c-2.2-1.6-10.2-10.7-10.2-10.7l3.8-5.7l2.8-5.8c0,0,16.7,1.1,18.9,2.3c0.2,0.1,0.4,0.2,0.6,0.4c1.8,1.2,2.7,2.9,3.5,3.6
				c0.3,0.3,3.3,3.2,3.2,4.5c-0.1,1.7-1,2.9-2,3.4c0,0-0.4,3.4-2.1,5c0,0-0.3,3.1-2.9,4.5C707.4,1283.5,706.8,1286.7,704.9,1287.1z"
				/>
			<path class="st42" d="M670.6,1128c0,0-15.4-4.4-24.2,12.5c-8.8,16.9-8.8,24.2-10,32.4c-1.1,7.8-6.1,29.2-6.6,31.3
				s-11.9,28.5-6.7,37.7c5.2,9.2,58.5,36.4,58.1,38.4c-0.3,2,9.2-20.5,9.2-20.5s-21.5-12-25.1-15.7c-5.7-6-17.8-12.5-15.3-19.9
				c2.9-8.8,11.7-38.3,13.7-42.6S683.6,1133.5,670.6,1128L670.6,1128z"/>
			<path class="st46" d="M720.9,1040.6c0,0,27.4,8.6,12.5,55.8s-52.2-5.5-48.3-34.3C689,1033.4,720.9,1040.6,720.9,1040.6
				L720.9,1040.6z"/>
			<path class="st39" d="M736.2,1068.2c0,0-13.6,13.3-36.4,15c0,0-8.8,10.3-9.4,14.3c0,0-20.3-34.6,4.7-55.4
				C720,1021.4,745.4,1059.6,736.2,1068.2L736.2,1068.2z"/>
			<path class="st46" d="M700.1,1084.1c-0.2-3.4-2.3-11.3-7.4-9.1c-5.1,2.2,0.3,18.1,3.7,17.2
				C696.4,1092.2,700.5,1092.3,700.1,1084.1L700.1,1084.1z"/>
			<path class="st36" d="M718.2,1115.2c-0.2,1.8-0.3,3.8-0.5,5.8c0,0-12.1-0.7-20.2-18.7C698.1,1103.1,706.9,1116.1,718.2,1115.2
				L718.2,1115.2z"/>
		</g>
	</g>
</g>
</svg>
