<?xml version="1.0" encoding="UTF-8"?><svg id="Camada_2" xmlns="http://www.w3.org/2000/svg" viewBox="0 0 279.62 88.79"><defs><style>.cls-1{fill:#fcc80b;}.cls-2{fill:#666;}.cls-3{fill:#ddd;}.cls-4{fill:#c60000;}</style></defs><g id="Layer_1"><g><g><rect class="cls-3" x="9.46" y="2.53" width="193.83" height=".5"/><rect class="cls-3" x="9.46" y="19.25" width="193.83" height=".5"/><rect class="cls-3" x="9.46" y="35.97" width="193.83" height=".5"/><rect class="cls-3" x="9.46" y="52.69" width="193.83" height=".5"/><rect class="cls-3" x="9.46" y="69.41" width="193.83" height=".5"/><rect class="cls-3" x="9.46" y="86.13" width="193.83" height=".5"/></g><rect class="cls-4" x="145.3" y="30.33" width="14.41" height="56.05"/><rect class="cls-2" x="174.12" y="38.57" width="14.41" height="47.81"/><rect class="cls-1" x="159.71" y="57.53" width="14.41" height="28.85"/><rect class="cls-1" x="99.11" y="15.94" width="14.41" height="70.44"/><rect class="cls-2" x="113.53" y="54.34" width="14.41" height="32.04"/><rect class="cls-4" x="84.7" y="46.31" width="14.41" height="40.07"/><rect class="cls-4" x="24.11" y="17.43" width="14.41" height="68.95"/><rect class="cls-1" x="38.52" y="47.85" width="14.41" height="38.53"/><rect class="cls-2" x="52.93" y="54.29" width="14.41" height="32.09"/><g><path d="m3.34.59h-1.98l-.2,1.33c.12-.02.23-.03.42-.03.4,0,.8.09,1.12.28.41.23.74.68.74,1.33,0,1.02-.81,1.78-1.94,1.78-.57,0-1.05-.16-1.29-.32l.18-.54c.22.13.64.29,1.11.29.66,0,1.23-.43,1.23-1.13,0-.67-.46-1.15-1.5-1.15-.3,0-.53.03-.72.06L.86,0h2.49v.59Z"/><path d="m2.41,21.9v-1.42H0v-.46l2.32-3.32h.76v3.23h.73v.55h-.73v1.42h-.66Zm0-1.97v-1.74c0-.27,0-.54.02-.82h-.02c-.16.3-.29.53-.43.77l-1.27,1.77v.02h1.7Z"/><path d="m.41,37.79c.2.13.66.33,1.15.33.9,0,1.18-.58,1.18-1.01,0-.73-.66-1.04-1.34-1.04h-.39v-.53h.39c.51,0,1.16-.26,1.16-.88,0-.42-.26-.78-.91-.78-.42,0-.82.18-1.04.34l-.18-.51c.27-.2.8-.4,1.36-.4,1.02,0,1.49.61,1.49,1.24,0,.54-.32.99-.96,1.22v.02c.64.13,1.16.61,1.16,1.34,0,.83-.65,1.56-1.89,1.56-.58,0-1.1-.18-1.35-.35l.19-.54Z"/><path d="m.24,55.3v-.43l.55-.54c1.33-1.26,1.93-1.93,1.94-2.72,0-.53-.26-1.02-1.03-1.02-.47,0-.86.24-1.1.44l-.22-.5c.36-.3.87-.53,1.47-.53,1.12,0,1.59.77,1.59,1.51,0,.96-.7,1.73-1.79,2.79l-.42.38v.02h2.33v.58H.24Z"/><path d="m1.77,67.46h-.02l-.9.49-.14-.54,1.14-.61h.6v5.2h-.68v-4.54Z"/><path d="m3.69,86.04c0,1.77-.66,2.74-1.81,2.74-1.02,0-1.7-.95-1.72-2.67,0-1.74.75-2.7,1.81-2.7s1.72.98,1.72,2.63Zm-2.82.08c0,1.35.42,2.12,1.06,2.12.72,0,1.06-.84,1.06-2.17s-.33-2.12-1.06-2.12c-.62,0-1.06.75-1.06,2.17Z"/></g><g><path d="m229.53,64.13l-.06-.49h-.02c-.22.3-.63.58-1.18.58-.78,0-1.18-.55-1.18-1.11,0-.94.83-1.45,2.33-1.44v-.08c0-.32-.09-.9-.88-.9-.36,0-.74.11-1.01.29l-.16-.46c.32-.21.78-.34,1.27-.34,1.18,0,1.47.81,1.47,1.58v1.45c0,.34.02.66.06.93h-.64Zm-.1-1.97c-.77-.02-1.64.12-1.64.87,0,.46.3.67.66.67.5,0,.82-.32.94-.65.02-.07.04-.15.04-.22v-.67Z"/><path d="m231.25,58.46h.7v5.68h-.7v-5.68Z"/><path d="m233.53,62.33c.02.95.62,1.34,1.33,1.34.5,0,.81-.09,1.07-.2l.12.5c-.25.11-.67.24-1.29.24-1.19,0-1.9-.78-1.9-1.95s.69-2.09,1.82-2.09c1.26,0,1.6,1.11,1.6,1.82,0,.14-.02.26-.02.33h-2.72Zm2.06-.5c0-.45-.18-1.14-.98-1.14-.71,0-1.02.66-1.08,1.14h2.05Z"/><path d="m237.14,61.47c0-.46,0-.85-.03-1.21h.62l.02.76h.03c.18-.52.6-.85,1.07-.85.08,0,.14,0,.2.02v.66c-.07-.02-.14-.02-.24-.02-.5,0-.85.38-.94.9-.02.1-.03.21-.03.33v2.06h-.7v-2.66Z"/><path d="m240.8,59.15v1.11h1.01v.54h-1.01v2.09c0,.48.14.75.53.75.18,0,.32-.02.41-.05l.03.53c-.14.06-.35.1-.62.1-.33,0-.59-.1-.76-.3-.2-.21-.27-.55-.27-1.01v-2.11h-.6v-.54h.6v-.93l.69-.18Z"/><path d="m244.74,64.13l-.06-.49h-.02c-.22.3-.63.58-1.18.58-.78,0-1.18-.55-1.18-1.11,0-.94.83-1.45,2.33-1.44v-.08c0-.32-.09-.9-.88-.9-.36,0-.74.11-1.01.29l-.16-.46c.32-.21.78-.34,1.27-.34,1.18,0,1.47.81,1.47,1.58v1.45c0,.34.02.66.06.93h-.64Zm-.1-1.97c-.77-.02-1.64.12-1.64.87,0,.46.3.67.66.67.5,0,.82-.32.94-.65.02-.07.04-.15.04-.22v-.67Z"/><path d="m246.36,63.41c.21.14.58.28.93.28.51,0,.75-.26.75-.58s-.2-.52-.72-.71c-.7-.25-1.02-.63-1.02-1.1,0-.62.5-1.14,1.33-1.14.39,0,.74.11.95.24l-.18.51c-.15-.1-.43-.22-.79-.22-.42,0-.65.24-.65.53,0,.32.23.46.74.66.67.26,1.02.59,1.02,1.17,0,.68-.53,1.16-1.45,1.16-.42,0-.82-.1-1.09-.26l.18-.54Z"/><path d="m227.39,71.07c0-.46,0-.85-.03-1.21h.62l.02.76h.03c.18-.52.6-.85,1.07-.85.08,0,.14,0,.2.02v.66c-.07-.02-.14-.02-.24-.02-.5,0-.85.38-.94.9-.02.1-.03.21-.03.33v2.06h-.7v-2.66Z"/><path d="m230.32,71.93c.02.95.62,1.34,1.33,1.34.5,0,.81-.09,1.07-.2l.12.5c-.25.11-.67.24-1.29.24-1.19,0-1.9-.78-1.9-1.95s.69-2.09,1.82-2.09c1.26,0,1.6,1.11,1.6,1.82,0,.14-.02.26-.02.33h-2.72Zm2.06-.5c0-.45-.18-1.14-.98-1.14-.71,0-1.02.66-1.08,1.14h2.05Z"/><path d="m233.84,73.01c.21.14.58.28.93.28.51,0,.75-.26.75-.58s-.2-.52-.72-.71c-.7-.25-1.02-.63-1.02-1.1,0-.62.5-1.14,1.33-1.14.39,0,.74.11.95.24l-.18.51c-.15-.1-.43-.22-.79-.22-.42,0-.65.24-.65.53,0,.32.23.46.74.66.67.26,1.02.59,1.02,1.17,0,.68-.53,1.16-1.45,1.16-.42,0-.82-.1-1.09-.26l.18-.54Z"/><path d="m240.6,71.77c0,1.43-.99,2.05-1.93,2.05-1.05,0-1.86-.77-1.86-1.99,0-1.29.85-2.05,1.92-2.05s1.86.81,1.86,1.99Zm-3.07.04c0,.85.49,1.49,1.17,1.49s1.18-.63,1.18-1.5c0-.66-.33-1.49-1.16-1.49s-1.19.77-1.19,1.5Z"/><path d="m241.49,68.06h.7v5.68h-.7v-5.68Z"/><path d="m243.65,69.86l.76,2.17c.13.35.23.67.31.99h.02c.09-.32.2-.64.33-.99l.75-2.17h.74l-1.52,3.87h-.67l-1.47-3.87h.75Z"/><path d="m248.01,68.78c0,.24-.17.43-.45.43-.25,0-.42-.19-.42-.43s.18-.44.44-.44.43.19.43.44Zm-.78,4.96v-3.87h.7v3.87h-.7Z"/><path d="m252.44,68.06v4.68c0,.34,0,.74.03,1h-.63l-.03-.67h-.02c-.22.43-.69.76-1.32.76-.94,0-1.66-.79-1.66-1.97,0-1.29.79-2.08,1.74-2.08.59,0,.99.28,1.17.59h.02v-2.31h.7Zm-.7,3.38c0-.09,0-.21-.03-.3-.1-.45-.49-.82-1.02-.82-.73,0-1.16.64-1.16,1.5,0,.78.38,1.43,1.14,1.43.47,0,.9-.31,1.03-.84.02-.1.03-.19.03-.3v-.67Z"/><path d="m257.12,71.77c0,1.43-.99,2.05-1.93,2.05-1.05,0-1.86-.77-1.86-1.99,0-1.29.85-2.05,1.92-2.05s1.86.81,1.86,1.99Zm-3.07.04c0,.85.49,1.49,1.17,1.49s1.18-.63,1.18-1.5c0-.66-.33-1.49-1.16-1.49s-1.19.77-1.19,1.5Z"/><path d="m257.91,73.01c.21.14.58.28.93.28.51,0,.75-.26.75-.58s-.2-.52-.72-.71c-.7-.25-1.02-.63-1.02-1.1,0-.62.5-1.14,1.33-1.14.39,0,.74.11.95.24l-.18.51c-.15-.1-.43-.22-.79-.22-.42,0-.65.24-.65.53,0,.32.23.46.74.66.67.26,1.02.59,1.02,1.17,0,.68-.53,1.16-1.45,1.16-.42,0-.82-.1-1.09-.26l.18-.54Z"/><path d="m227.39,80.51c0-.4,0-.73-.03-1.05h.62l.03.62h.02c.22-.37.58-.71,1.21-.71.53,0,.93.32,1.1.78h.02c.12-.22.27-.38.43-.5.23-.18.49-.27.86-.27.51,0,1.27.34,1.27,1.68v2.28h-.69v-2.19c0-.74-.27-1.19-.84-1.19-.4,0-.71.3-.83.64-.03.1-.06.22-.06.35v2.39h-.69v-2.32c0-.62-.27-1.06-.81-1.06-.44,0-.76.35-.87.7-.04.1-.06.22-.06.34v2.33h-.69v-2.82Z"/><path d="m234.45,81.53c.02.95.62,1.34,1.33,1.34.5,0,.81-.09,1.07-.2l.12.5c-.25.11-.67.24-1.29.24-1.19,0-1.9-.78-1.9-1.95s.69-2.09,1.82-2.09c1.26,0,1.6,1.11,1.6,1.82,0,.14-.02.26-.02.33h-2.72Zm2.06-.5c0-.45-.18-1.14-.98-1.14-.71,0-1.02.66-1.08,1.14h2.05Z"/><path d="m237.97,82.61c.21.14.58.28.93.28.51,0,.75-.26.75-.58s-.2-.52-.72-.71c-.7-.25-1.02-.63-1.02-1.09,0-.62.5-1.14,1.33-1.14.39,0,.74.11.95.24l-.18.51c-.15-.1-.43-.22-.79-.22-.42,0-.65.24-.65.53,0,.32.23.46.74.66.67.26,1.02.59,1.02,1.17,0,.68-.53,1.16-1.45,1.16-.42,0-.82-.1-1.09-.26l.18-.54Z"/><path d="m243.38,83.33l-.06-.49h-.02c-.22.3-.63.58-1.18.58-.78,0-1.18-.55-1.18-1.11,0-.94.83-1.45,2.33-1.44v-.08c0-.32-.09-.9-.88-.9-.36,0-.74.11-1.01.29l-.16-.46c.32-.21.78-.34,1.27-.34,1.18,0,1.47.81,1.47,1.58v1.45c0,.34.02.66.06.93h-.64Zm-.1-1.97c-.77-.02-1.64.12-1.64.87,0,.46.3.67.66.67.5,0,.82-.32.94-.65.02-.07.04-.15.04-.22v-.67Z"/><path d="m250.13,77.66v4.68c0,.34,0,.74.03,1h-.63l-.03-.67h-.02c-.22.43-.69.76-1.32.76-.94,0-1.66-.79-1.66-1.97,0-1.29.79-2.08,1.74-2.08.59,0,.99.28,1.17.59h.02v-2.31h.7Zm-.7,3.38c0-.09,0-.21-.03-.3-.1-.45-.49-.82-1.02-.82-.73,0-1.16.64-1.16,1.5,0,.78.38,1.43,1.14,1.43.47,0,.9-.31,1.03-.84.02-.1.03-.19.03-.3v-.67Z"/><path d="m251.69,81.53c.02.95.62,1.34,1.33,1.34.5,0,.81-.09,1.07-.2l.12.5c-.25.11-.67.24-1.29.24-1.19,0-1.9-.78-1.9-1.95s.69-2.09,1.82-2.09c1.26,0,1.6,1.11,1.6,1.82,0,.14-.02.26-.02.33h-2.72Zm2.06-.5c0-.45-.18-1.14-.98-1.14-.71,0-1.02.66-1.08,1.14h2.05Z"/><path d="m259.76,83.19c-.18.1-.59.22-1.11.22-1.17,0-1.93-.79-1.93-1.97s.82-2.06,2.08-2.06c.42,0,.78.1.98.2l-.16.54c-.17-.1-.43-.18-.82-.18-.89,0-1.37.66-1.37,1.46,0,.9.58,1.45,1.34,1.45.4,0,.66-.1.86-.19l.12.53Z"/><path d="m260.59,80.67c0-.46,0-.85-.03-1.21h.62l.02.76h.03c.18-.52.6-.85,1.07-.85.08,0,.14,0,.2.02v.66c-.07-.02-.14-.02-.24-.02-.5,0-.85.38-.94.9-.02.1-.03.21-.03.33v2.06h-.7v-2.66Z"/><path d="m263.52,81.53c.02.95.62,1.34,1.33,1.34.5,0,.81-.09,1.07-.2l.12.5c-.25.11-.67.24-1.29.24-1.19,0-1.9-.78-1.9-1.95s.69-2.09,1.82-2.09c1.26,0,1.6,1.11,1.6,1.82,0,.14-.02.26-.02.33h-2.72Zm2.06-.5c0-.45-.18-1.14-.98-1.14-.71,0-1.02.66-1.08,1.14h2.05Zm.17-3.23l-.98,1.14h-.5l.7-1.14h.78Z"/><path d="m270.47,77.66v4.68c0,.34,0,.74.03,1h-.63l-.03-.67h-.02c-.22.43-.69.76-1.32.76-.94,0-1.66-.79-1.66-1.97,0-1.29.79-2.08,1.74-2.08.59,0,.99.28,1.17.59h.02v-2.31h.7Zm-.7,3.38c0-.09,0-.21-.03-.3-.1-.45-.49-.82-1.02-.82-.73,0-1.16.64-1.16,1.5,0,.78.38,1.43,1.14,1.43.47,0,.9-.31,1.03-.84.02-.1.03-.19.03-.3v-.67Z"/><path d="m272.43,78.38c0,.24-.17.43-.45.43-.25,0-.42-.19-.42-.43s.18-.44.44-.44.43.19.43.44Zm-.78,4.96v-3.87h.7v3.87h-.7Z"/><path d="m274.37,78.35v1.11h1.01v.54h-1.01v2.09c0,.48.14.75.53.75.18,0,.32-.02.41-.05l.03.53c-.14.06-.35.1-.62.1-.33,0-.59-.1-.76-.3-.2-.21-.27-.55-.27-1.01v-2.11h-.6v-.54h.6v-.93l.69-.18Z"/><path d="m279.62,81.37c0,1.43-.99,2.05-1.93,2.05-1.05,0-1.86-.77-1.86-1.99,0-1.29.85-2.05,1.92-2.05s1.86.81,1.86,1.99Zm-3.07.04c0,.85.49,1.49,1.17,1.49s1.18-.63,1.18-1.5c0-.66-.33-1.49-1.16-1.49s-1.19.77-1.19,1.5Z"/></g><rect class="cls-4" x="216.57" y="57.53" width="8" height="8"/><rect class="cls-1" x="216.57" y="67.58" width="8" height="8"/><rect class="cls-2" x="216.57" y="77.63" width="8" height="8"/></g></g></svg>