<?xml version="1.0" encoding="utf-8"?>
<!-- Generator: Adobe Illustrator 27.1.1, SVG Export Plug-In . SVG Version: 6.00 Build 0)  -->
<svg version="1.1" id="Camada_2_00000103972255094942974240000008817595913607391108_"
	 xmlns="http://www.w3.org/2000/svg" xmlns:xlink="http://www.w3.org/1999/xlink" x="0px" y="0px" viewBox="0 0 279.6 169.3"
	 style="enable-background:new 0 0 279.6 169.3;" xml:space="preserve">
<style type="text/css">
	.st0{fill:#DDDDDD;}
	.st1{fill:#C60000;}
	.st2{fill:#666666;}
	.st3{fill:#FCC80B;}
</style>
<g id="Layer_1">
	<g>
		<g>
			<rect x="13" y="10.7" class="st0" width="266.6" height="0.7"/>
			<rect x="13" y="33.7" class="st0" width="266.6" height="0.7"/>
			<rect x="13" y="56.7" class="st0" width="266.6" height="0.7"/>
			<rect x="13" y="79.7" class="st0" width="266.6" height="0.7"/>
			<rect x="13" y="102.7" class="st0" width="266.6" height="0.7"/>
			<rect x="13" y="125.7" class="st0" width="266.6" height="0.7"/>
		</g>
		<rect x="199.9" y="49" class="st1" width="19.8" height="77.1"/>
		<rect x="239.5" y="60.3" class="st2" width="19.8" height="65.8"/>
		<rect x="219.7" y="86.4" class="st3" width="19.8" height="39.7"/>
		<rect x="136.3" y="29.2" class="st3" width="19.8" height="96.9"/>
		<rect x="156.2" y="82" class="st2" width="19.8" height="44.1"/>
		<rect x="116.5" y="71" class="st1" width="19.8" height="55.1"/>
		<rect x="33.2" y="31.2" class="st1" width="19.8" height="94.8"/>
		<rect x="53" y="73.1" class="st3" width="19.8" height="53"/>
		<rect x="72.8" y="81.9" class="st2" width="19.8" height="44.1"/>
		<g>
			<path d="M4.6,8.1H1.9L1.6,9.9c0.2,0,0.3,0,0.6,0c0.6,0,1.1,0.1,1.5,0.4c0.6,0.3,1,0.9,1,1.8c0,1.4-1.1,2.4-2.7,2.4
				c-0.8,0-1.4-0.2-1.8-0.4l0.2-0.7c0.3,0.2,0.9,0.4,1.5,0.4c0.9,0,1.7-0.6,1.7-1.6c0-0.9-0.6-1.6-2.1-1.6c-0.4,0-0.7,0-1,0.1
				l0.5-3.4h3.4L4.6,8.1L4.6,8.1z"/>
			<path d="M3.3,37.4v-2H0v-0.6l3.2-4.6h1v4.4h1v0.8h-1v2H3.3L3.3,37.4z M3.3,34.7v-2.4c0-0.4,0-0.7,0-1.1h0
				c-0.2,0.4-0.4,0.7-0.6,1.1L1,34.6v0C1,34.7,3.3,34.7,3.3,34.7z"/>
			<path d="M0.6,59.2c0.3,0.2,0.9,0.5,1.6,0.5c1.2,0,1.6-0.8,1.6-1.4c0-1-0.9-1.4-1.8-1.4H1.4v-0.7h0.5c0.7,0,1.6-0.4,1.6-1.2
				c0-0.6-0.4-1.1-1.3-1.1c-0.6,0-1.1,0.2-1.4,0.5l-0.2-0.7c0.4-0.3,1.1-0.6,1.9-0.6c1.4,0,2,0.8,2,1.7c0,0.7-0.4,1.4-1.3,1.7v0
				c0.9,0.2,1.6,0.8,1.6,1.8c0,1.1-0.9,2.1-2.6,2.1c-0.8,0-1.5-0.2-1.9-0.5L0.6,59.2L0.6,59.2z"/>
			<path d="M0.3,83.3v-0.6L1.1,82c1.8-1.7,2.7-2.7,2.7-3.7c0-0.7-0.4-1.4-1.4-1.4c-0.6,0-1.2,0.3-1.5,0.6l-0.3-0.7
				C1,76.4,1.7,76,2.5,76c1.5,0,2.2,1.1,2.2,2.1c0,1.3-1,2.4-2.5,3.8l-0.6,0.5v0h3.2v0.8L0.3,83.3L0.3,83.3z"/>
			<path d="M2.4,100.1L2.4,100.1l-1.3,0.7L1,100l1.6-0.8h0.8v7.2H2.4C2.4,106.3,2.4,100.1,2.4,100.1z"/>
			<path d="M5.1,125.6c0,2.4-0.9,3.8-2.5,3.8c-1.4,0-2.3-1.3-2.4-3.7c0-2.4,1-3.7,2.5-3.7S5.1,123.3,5.1,125.6z M1.2,125.7
				c0,1.9,0.6,2.9,1.5,2.9c1,0,1.5-1.2,1.5-3s-0.5-2.9-1.5-2.9C1.8,122.7,1.2,123.8,1.2,125.7z"/>
		</g>
		<g>
			<g>
				<path d="M49.9,153.9l-0.1-0.7h0c-0.3,0.4-0.9,0.8-1.6,0.8c-1.1,0-1.6-0.8-1.6-1.5c0-1.3,1.1-2,3.2-2v-0.1c0-0.4-0.1-1.2-1.2-1.2
					c-0.5,0-1,0.2-1.4,0.4l-0.2-0.6c0.4-0.3,1.1-0.5,1.7-0.5c1.6,0,2,1.1,2,2.2v2c0,0.5,0,0.9,0.1,1.3L49.9,153.9L49.9,153.9z
					 M49.7,151.2c-1.1,0-2.3,0.2-2.3,1.2c0,0.6,0.4,0.9,0.9,0.9c0.7,0,1.1-0.4,1.3-0.9c0-0.1,0.1-0.2,0.1-0.3
					C49.7,152.1,49.7,151.2,49.7,151.2z"/>
				<path d="M52.2,146.1h1v7.8h-1V146.1z"/>
				<path d="M55.4,151.4c0,1.3,0.9,1.8,1.8,1.8c0.7,0,1.1-0.1,1.5-0.3l0.2,0.7c-0.3,0.2-0.9,0.3-1.8,0.3c-1.6,0-2.6-1.1-2.6-2.7
					c0-1.6,0.9-2.9,2.5-2.9c1.7,0,2.2,1.5,2.2,2.5c0,0.2,0,0.4,0,0.5L55.4,151.4L55.4,151.4z M58.2,150.7c0-0.6-0.2-1.6-1.3-1.6
					c-1,0-1.4,0.9-1.5,1.6H58.2L58.2,150.7z"/>
				<path d="M60.3,150.3c0-0.6,0-1.2,0-1.7h0.9l0,1h0c0.2-0.7,0.8-1.2,1.5-1.2c0.1,0,0.2,0,0.3,0v0.9c-0.1,0-0.2,0-0.3,0
					c-0.7,0-1.2,0.5-1.3,1.2c0,0.1,0,0.3,0,0.5v2.8h-1V150.3L60.3,150.3z"/>
				<path d="M65.4,147.1v1.5h1.4v0.7h-1.4v2.9c0,0.7,0.2,1,0.7,1c0.2,0,0.4,0,0.6-0.1l0,0.7c-0.2,0.1-0.5,0.1-0.9,0.1
					c-0.5,0-0.8-0.1-1-0.4c-0.3-0.3-0.4-0.8-0.4-1.4v-2.9h-0.8v-0.7h0.8v-1.3L65.4,147.1L65.4,147.1z"/>
				<path d="M70.8,153.9l-0.1-0.7h0c-0.3,0.4-0.9,0.8-1.6,0.8c-1.1,0-1.6-0.8-1.6-1.5c0-1.3,1.1-2,3.2-2v-0.1c0-0.4-0.1-1.2-1.2-1.2
					c-0.5,0-1,0.2-1.4,0.4l-0.2-0.6c0.4-0.3,1.1-0.5,1.7-0.5c1.6,0,2,1.1,2,2.2v2c0,0.5,0,0.9,0.1,1.3L70.8,153.9L70.8,153.9z
					 M70.6,151.2c-1.1,0-2.3,0.2-2.3,1.2c0,0.6,0.4,0.9,0.9,0.9c0.7,0,1.1-0.4,1.3-0.9c0-0.1,0.1-0.2,0.1-0.3
					C70.6,152.1,70.6,151.2,70.6,151.2z"/>
				<path d="M73,152.9c0.3,0.2,0.8,0.4,1.3,0.4c0.7,0,1-0.4,1-0.8s-0.3-0.7-1-1c-1-0.3-1.4-0.9-1.4-1.5c0-0.9,0.7-1.6,1.8-1.6
					c0.5,0,1,0.2,1.3,0.3l-0.2,0.7c-0.2-0.1-0.6-0.3-1.1-0.3c-0.6,0-0.9,0.3-0.9,0.7c0,0.4,0.3,0.6,1,0.9c0.9,0.4,1.4,0.8,1.4,1.6
					c0,0.9-0.7,1.6-2,1.6c-0.6,0-1.1-0.1-1.5-0.4L73,152.9L73,152.9z"/>
			</g>
			<rect x="32" y="144.8" class="st1" width="11" height="11"/>
		</g>
		<g>
			<g>
				<path d="M111.8,149.6c0-0.6,0-1.2,0-1.7h0.9l0,1h0c0.2-0.7,0.8-1.2,1.5-1.2c0.1,0,0.2,0,0.3,0v0.9c-0.1,0-0.2,0-0.3,0
					c-0.7,0-1.2,0.5-1.3,1.2c0,0.1,0,0.3,0,0.5v2.8h-1V149.6L111.8,149.6z"/>
				<path d="M115.8,150.8c0,1.3,0.9,1.8,1.8,1.8c0.7,0,1.1-0.1,1.5-0.3l0.2,0.7c-0.3,0.2-0.9,0.3-1.8,0.3c-1.6,0-2.6-1.1-2.6-2.7
					s0.9-2.9,2.5-2.9c1.7,0,2.2,1.5,2.2,2.5c0,0.2,0,0.4,0,0.5L115.8,150.8L115.8,150.8z M118.6,150.1c0-0.6-0.2-1.6-1.3-1.6
					c-1,0-1.4,0.9-1.5,1.6H118.6L118.6,150.1z"/>
				<path d="M120.6,152.3c0.3,0.2,0.8,0.4,1.3,0.4c0.7,0,1-0.4,1-0.8s-0.3-0.7-1-1c-1-0.3-1.4-0.9-1.4-1.5c0-0.9,0.7-1.6,1.8-1.6
					c0.5,0,1,0.2,1.3,0.3l-0.2,0.7c-0.2-0.1-0.6-0.3-1.1-0.3c-0.6,0-0.9,0.3-0.9,0.7c0,0.4,0.3,0.6,1,0.9c0.9,0.4,1.4,0.8,1.4,1.6
					c0,0.9-0.7,1.6-2,1.6c-0.6,0-1.1-0.1-1.5-0.4L120.6,152.3L120.6,152.3z"/>
				<path d="M129.9,150.6c0,2-1.4,2.8-2.7,2.8c-1.4,0-2.6-1.1-2.6-2.7c0-1.8,1.2-2.8,2.6-2.8C128.8,147.9,129.9,149,129.9,150.6
					L129.9,150.6z M125.7,150.7c0,1.2,0.7,2,1.6,2c0.9,0,1.6-0.9,1.6-2.1c0-0.9-0.5-2-1.6-2C126.2,148.6,125.7,149.6,125.7,150.7
					L125.7,150.7z"/>
				<path d="M131.2,145.5h1v7.8h-1V145.5z"/>
				<path d="M134.1,148l1,3c0.2,0.5,0.3,0.9,0.4,1.4h0c0.1-0.4,0.3-0.9,0.5-1.4l1-3h1l-2.1,5.3h-0.9l-2-5.3H134.1z"/>
				<path d="M140.1,146.5c0,0.3-0.2,0.6-0.6,0.6c-0.3,0-0.6-0.3-0.6-0.6s0.2-0.6,0.6-0.6S140.1,146.1,140.1,146.5z M139.1,153.3V148
					h1v5.3H139.1z"/>
				<path d="M146.2,145.5v6.4c0,0.5,0,1,0,1.4h-0.9l0-0.9h0c-0.3,0.6-0.9,1-1.8,1c-1.3,0-2.3-1.1-2.3-2.7c0-1.8,1.1-2.9,2.4-2.9
					c0.8,0,1.4,0.4,1.6,0.8h0v-3.2H146.2L146.2,145.5z M145.3,150.1c0-0.1,0-0.3,0-0.4c-0.1-0.6-0.7-1.1-1.4-1.1
					c-1,0-1.6,0.9-1.6,2.1c0,1.1,0.5,2,1.6,2c0.6,0,1.2-0.4,1.4-1.2c0-0.1,0-0.3,0-0.4L145.3,150.1L145.3,150.1z"/>
				<path d="M152.7,150.6c0,2-1.4,2.8-2.7,2.8c-1.4,0-2.6-1.1-2.6-2.7c0-1.8,1.2-2.8,2.6-2.8S152.7,149,152.7,150.6L152.7,150.6z
					 M148.4,150.7c0,1.2,0.7,2,1.6,2s1.6-0.9,1.6-2.1c0-0.9-0.5-2-1.6-2C148.9,148.6,148.4,149.6,148.4,150.7z"/>
				<path d="M153.8,152.3c0.3,0.2,0.8,0.4,1.3,0.4c0.7,0,1-0.4,1-0.8s-0.3-0.7-1-1c-1-0.3-1.4-0.9-1.4-1.5c0-0.9,0.7-1.6,1.8-1.6
					c0.5,0,1,0.2,1.3,0.3l-0.2,0.7c-0.2-0.1-0.6-0.3-1.1-0.3c-0.6,0-0.9,0.3-0.9,0.7c0,0.4,0.3,0.6,1,0.9c0.9,0.4,1.4,0.8,1.4,1.6
					c0,0.9-0.7,1.6-2,1.6c-0.6,0-1.1-0.1-1.5-0.4L153.8,152.3L153.8,152.3z"/>
			</g>
			<rect x="97.3" y="144.8" class="st3" width="11" height="11"/>
		</g>
		<g>
			<g>
				<path d="M187.7,148.8c0-0.6,0-1,0-1.4h0.9l0,0.9h0c0.3-0.5,0.8-1,1.7-1c0.7,0,1.3,0.4,1.5,1.1h0c0.2-0.3,0.4-0.5,0.6-0.7
					c0.3-0.2,0.7-0.4,1.2-0.4c0.7,0,1.7,0.5,1.7,2.3v3.1h-0.9v-3c0-1-0.4-1.6-1.2-1.6c-0.6,0-1,0.4-1.1,0.9c0,0.1-0.1,0.3-0.1,0.5
					v3.3H191v-3.2c0-0.9-0.4-1.5-1.1-1.5c-0.6,0-1,0.5-1.2,1c-0.1,0.1-0.1,0.3-0.1,0.5v3.2h-0.9L187.7,148.8L187.7,148.8z"/>
				<path d="M197.4,150.2c0,1.3,0.9,1.8,1.8,1.8c0.7,0,1.1-0.1,1.5-0.3l0.2,0.7c-0.3,0.2-0.9,0.3-1.8,0.3c-1.6,0-2.6-1.1-2.6-2.7
					c0-1.6,0.9-2.9,2.5-2.9c1.7,0,2.2,1.5,2.2,2.5c0,0.2,0,0.4,0,0.5L197.4,150.2L197.4,150.2z M200.2,149.5c0-0.6-0.2-1.6-1.3-1.6
					c-1,0-1.4,0.9-1.5,1.6H200.2L200.2,149.5z"/>
				<path d="M202.2,151.7c0.3,0.2,0.8,0.4,1.3,0.4c0.7,0,1-0.4,1-0.8s-0.3-0.7-1-1c-1-0.3-1.4-0.9-1.4-1.5c0-0.9,0.7-1.6,1.8-1.6
					c0.5,0,1,0.2,1.3,0.3l-0.2,0.7c-0.2-0.1-0.6-0.3-1.1-0.3c-0.6,0-0.9,0.3-0.9,0.7c0,0.4,0.3,0.6,1,0.9c0.9,0.4,1.4,0.8,1.4,1.6
					c0,0.9-0.7,1.6-2,1.6c-0.6,0-1.1-0.1-1.5-0.4L202.2,151.7L202.2,151.7z"/>
				<path d="M209.7,152.7l-0.1-0.7h0c-0.3,0.4-0.9,0.8-1.6,0.8c-1.1,0-1.6-0.8-1.6-1.5c0-1.3,1.1-2,3.2-2v-0.1
					c0-0.4-0.1-1.2-1.2-1.2c-0.5,0-1,0.2-1.4,0.4l-0.2-0.6c0.4-0.3,1.1-0.5,1.7-0.5c1.6,0,2,1.1,2,2.2v2c0,0.5,0,0.9,0.1,1.3
					L209.7,152.7L209.7,152.7z M209.5,150c-1.1,0-2.3,0.2-2.3,1.2c0,0.6,0.4,0.9,0.9,0.9c0.7,0,1.1-0.4,1.3-0.9
					c0-0.1,0.1-0.2,0.1-0.3V150z"/>
				<path d="M218.9,144.9v6.4c0,0.5,0,1,0,1.4h-0.9l0-0.9h0c-0.3,0.6-0.9,1-1.8,1c-1.3,0-2.3-1.1-2.3-2.7c0-1.8,1.1-2.9,2.4-2.9
					c0.8,0,1.4,0.4,1.6,0.8h0v-3.2H218.9L218.9,144.9z M218,149.5c0-0.1,0-0.3,0-0.4c-0.1-0.6-0.7-1.1-1.4-1.1c-1,0-1.6,0.9-1.6,2.1
					c0,1.1,0.5,2,1.6,2c0.6,0,1.2-0.4,1.4-1.2c0-0.1,0-0.3,0-0.4L218,149.5L218,149.5z"/>
				<path d="M221.1,150.2c0,1.3,0.9,1.8,1.8,1.8c0.7,0,1.1-0.1,1.5-0.3l0.2,0.7c-0.3,0.2-0.9,0.3-1.8,0.3c-1.6,0-2.6-1.1-2.6-2.7
					c0-1.6,0.9-2.9,2.5-2.9c1.7,0,2.2,1.5,2.2,2.5c0,0.2,0,0.4,0,0.5L221.1,150.2L221.1,150.2z M223.9,149.5c0-0.6-0.2-1.6-1.3-1.6
					c-1,0-1.4,0.9-1.5,1.6H223.9L223.9,149.5z"/>
				<path d="M232.2,152.5c-0.2,0.1-0.8,0.3-1.5,0.3c-1.6,0-2.7-1.1-2.7-2.7s1.1-2.8,2.9-2.8c0.6,0,1.1,0.1,1.3,0.3l-0.2,0.7
					c-0.2-0.1-0.6-0.2-1.1-0.2c-1.2,0-1.9,0.9-1.9,2c0,1.2,0.8,2,1.8,2c0.6,0,0.9-0.1,1.2-0.3L232.2,152.5L232.2,152.5z"/>
				<path d="M233.3,149c0-0.6,0-1.2,0-1.7h0.9l0,1h0c0.2-0.7,0.8-1.2,1.5-1.2c0.1,0,0.2,0,0.3,0v0.9c-0.1,0-0.2,0-0.3,0
					c-0.7,0-1.2,0.5-1.3,1.2c0,0.1,0,0.3,0,0.5v2.8h-1V149L233.3,149z"/>
				<path d="M237.4,150.2c0,1.3,0.9,1.8,1.8,1.8c0.7,0,1.1-0.1,1.5-0.3l0.2,0.7c-0.3,0.2-0.9,0.3-1.8,0.3c-1.6,0-2.6-1.1-2.6-2.7
					c0-1.6,0.9-2.9,2.5-2.9c1.7,0,2.2,1.5,2.2,2.5c0,0.2,0,0.4,0,0.5L237.4,150.2L237.4,150.2z M240.2,149.5c0-0.6-0.2-1.6-1.3-1.6
					c-1,0-1.4,0.9-1.5,1.6H240.2L240.2,149.5z M240.4,145.1l-1.3,1.6h-0.7l1-1.6H240.4z"/>
				<path d="M246.9,144.9v6.4c0,0.5,0,1,0,1.4h-0.9l0-0.9h0c-0.3,0.6-0.9,1-1.8,1c-1.3,0-2.3-1.1-2.3-2.7c0-1.8,1.1-2.9,2.4-2.9
					c0.8,0,1.4,0.4,1.6,0.8h0v-3.2H246.9z M246,149.5c0-0.1,0-0.3,0-0.4c-0.1-0.6-0.7-1.1-1.4-1.1c-1,0-1.6,0.9-1.6,2.1
					c0,1.1,0.5,2,1.6,2c0.6,0,1.2-0.4,1.4-1.2c0-0.1,0-0.3,0-0.4L246,149.5L246,149.5z"/>
				<path d="M249.6,145.9c0,0.3-0.2,0.6-0.6,0.6c-0.3,0-0.6-0.3-0.6-0.6s0.2-0.6,0.6-0.6S249.6,145.5,249.6,145.9L249.6,145.9z
					 M248.5,152.7v-5.3h1v5.3H248.5z"/>
				<path d="M252.3,145.8v1.5h1.4v0.7h-1.4v2.9c0,0.7,0.2,1,0.7,1c0.2,0,0.4,0,0.6-0.1l0,0.7c-0.2,0.1-0.5,0.1-0.9,0.1
					c-0.5,0-0.8-0.1-1-0.4c-0.3-0.3-0.4-0.8-0.4-1.4v-2.9h-0.8v-0.7h0.8v-1.3L252.3,145.8L252.3,145.8z"/>
				<path d="M259.5,150c0,2-1.4,2.8-2.7,2.8c-1.4,0-2.6-1.1-2.6-2.7c0-1.8,1.2-2.8,2.6-2.8C258.4,147.2,259.5,148.4,259.5,150
					L259.5,150z M255.3,150c0,1.2,0.7,2,1.6,2c0.9,0,1.6-0.9,1.6-2.1c0-0.9-0.5-2-1.6-2S255.3,149,255.3,150z"/>
			</g>
			<rect x="173.1" y="144.8" class="st2" width="11" height="11"/>
		</g>
	</g>
</g>
</svg>
