<?xml version="1.0" encoding="UTF-8"?><svg id="Camada_2" xmlns="http://www.w3.org/2000/svg" viewBox="0 0 447.84 72.72"><defs><style>.cls-1{fill:#fcc80b;}.cls-2{fill:#e5e5e5;}.cls-3{fill:#999;}.cls-4{fill:#666;}.cls-5{fill:#ccc;}.cls-6{fill:#c49500;}.cls-7{fill:#212529;}.cls-8{fill:#3e454c;}</style></defs><g id="Layer_1"><g><polygon class="cls-1" points="167.94 12.12 153.95 12.12 146.95 24.24 153.95 36.36 167.94 36.36 174.94 24.24 167.94 12.12"/><polygon class="cls-8" points="188.93 24.24 174.94 24.24 167.94 36.36 174.94 48.48 188.93 48.48 195.93 36.36 188.93 24.24"/><polygon class="cls-1" points="209.93 12.12 195.93 12.12 188.93 24.24 195.93 36.36 209.93 36.36 216.92 24.24 209.93 12.12"/><polygon class="cls-6" points="167.94 36.36 153.95 36.36 146.95 48.48 153.95 60.6 167.94 60.6 174.94 48.48 167.94 36.36"/><polygon class="cls-6" points="209.93 36.36 195.93 36.36 188.93 48.48 195.93 60.6 209.93 60.6 216.92 48.48 209.93 36.36"/><polygon class="cls-7" points="230.92 24.24 216.92 24.24 209.93 36.36 216.92 48.48 230.92 48.48 237.92 36.36 230.92 24.24"/><polygon class="cls-6" points="230.92 0 216.92 0 209.93 12.12 216.92 24.24 230.92 24.24 237.92 12.12 230.92 0"/><polygon class="cls-1" points="230.92 48.48 216.92 48.48 209.93 60.6 216.92 72.72 230.92 72.72 237.92 60.6 230.92 48.48"/><polygon class="cls-1" points="251.91 12.12 237.92 12.12 230.92 24.24 237.92 36.36 251.91 36.36 258.91 24.24 251.91 12.12"/><polygon class="cls-8" points="272.91 24.24 258.91 24.24 251.91 36.36 258.91 48.48 272.91 48.48 279.9 36.36 272.91 24.24"/><polygon class="cls-4" points="314.89 24.24 300.9 24.24 293.9 36.36 300.9 48.48 314.89 48.48 321.89 36.36 314.89 24.24"/><polygon class="cls-3" points="356.88 24.24 342.88 24.24 335.88 36.36 342.88 48.48 356.88 48.48 363.87 36.36 356.88 24.24"/><polygon class="cls-5" points="398.86 24.24 384.87 24.24 377.87 36.36 384.87 48.48 398.86 48.48 405.86 36.36 398.86 24.24"/><polygon class="cls-2" points="440.85 24.24 426.85 24.24 419.85 36.36 426.85 48.48 440.85 48.48 447.84 36.36 440.85 24.24"/><polygon class="cls-2" points="20.99 24.24 7 24.24 0 36.36 7 48.48 20.99 48.48 27.99 36.36 20.99 24.24"/><polygon class="cls-5" points="62.98 24.24 48.98 24.24 41.99 36.36 48.98 48.48 62.98 48.48 69.98 36.36 62.98 24.24"/><polygon class="cls-3" points="104.96 24.24 90.97 24.24 83.97 36.36 90.97 48.48 104.96 48.48 111.96 36.36 104.96 24.24"/><polygon class="cls-4" points="146.95 24.24 132.95 24.24 125.96 36.36 132.95 48.48 146.95 48.48 153.95 36.36 146.95 24.24"/><polygon class="cls-1" points="293.9 12.12 279.9 12.12 272.91 24.24 279.9 36.36 293.9 36.36 300.9 24.24 293.9 12.12"/><polygon class="cls-6" points="251.91 36.36 237.92 36.36 230.92 48.48 237.92 60.6 251.91 60.6 258.91 48.48 251.91 36.36"/><polygon class="cls-6" points="293.9 36.36 279.9 36.36 272.91 48.48 279.9 60.6 293.9 60.6 300.9 48.48 293.9 36.36"/></g></g></svg>