<?xml version="1.0" encoding="UTF-8"?><svg id="Camada_2" xmlns="http://www.w3.org/2000/svg" viewBox="0 0 279.9 24.24"><defs><style>.cls-1{fill:#664b00;}.cls-2{fill:#7f5b00;}.cls-3{fill:#af7c23;}.cls-4{fill:#ccad7a;}</style></defs><g id="Layer_1"><g><polygon class="cls-2" points="104.96 0 90.97 0 83.97 12.12 90.97 24.24 104.96 24.24 111.96 12.12 104.96 0"/><polygon class="cls-1" points="146.95 0 132.95 0 125.96 12.12 132.95 24.24 146.95 24.24 153.95 12.12 146.95 0"/><polygon class="cls-2" points="188.93 0 174.94 0 167.94 12.12 174.94 24.24 188.93 24.24 195.93 12.12 188.93 0"/><polygon class="cls-3" points="230.92 0 216.92 0 209.93 12.12 216.92 24.24 230.92 24.24 237.92 12.12 230.92 0"/><polygon class="cls-4" points="272.91 0 258.91 0 251.91 12.12 258.91 24.24 272.91 24.24 279.9 12.12 272.91 0"/><polygon class="cls-4" points="20.99 0 7 0 0 12.12 7 24.24 20.99 24.24 27.99 12.12 20.99 0"/><polygon class="cls-3" points="62.98 0 48.98 0 41.99 12.12 48.98 24.24 62.98 24.24 69.98 12.12 62.98 0"/></g></g></svg>