<svg xmlns="http://www.w3.org/2000/svg" width="1470" height="1014.917" viewBox="0 0 1470 1014.917">
  <g id="Grupo_16719" data-name="Grupo 16719" transform="translate(-3836 -6792.083)">
    <line id="Linha_6" data-name="Linha 6" x1="704" transform="translate(3837.5 7186.5)" fill="none" stroke="#8298c5" stroke-miterlimit="10" stroke-width="2.835"/>
    <line id="Linha_7" data-name="Linha 7" x1="704" transform="translate(4601.5 7186.5)" fill="none" stroke="#8298c5" stroke-miterlimit="10" stroke-width="2.835"/>
    <line id="Linha_8" data-name="Linha 8" x1="704" transform="translate(4601.5 7445.5)" fill="none" stroke="#8298c5" stroke-miterlimit="10" stroke-width="2.835"/>
    <text id="O_SETUP" data-name="O SETUP" transform="translate(3836 6943.447)" fill="#1d3d66" font-size="118" font-family="Montserrat-ExtraBold, Montserrat" font-weight="800"><tspan x="0" y="0">O SETUP</tspan></text>
    <text id="COMO_FUNCIONA" data-name="COMO FUNCIONA" transform="translate(3838 6853.413)" fill="#8298c5" font-size="57" font-family="Montserrat-ExtraBold, Montserrat" font-weight="800"><tspan x="0" y="0">COMO FUNCIONA</tspan></text>
    <path id="Caminho_4293" data-name="Caminho 4293" d="M606.077,683.45l310.326-.221,304.453,1.852L1097,423.434H728.161Z" transform="translate(3653.989 6761.918)" fill="#1d3d66"/>
    <path id="Caminho_4292" data-name="Caminho 4292" d="M920.619,44.257,735.086,436.729h368.838Z" transform="translate(3646.376 6748.743)" fill="#8298c5"/>
    <path id="Caminho_4294" data-name="Caminho 4294" d="M424.058,1036.161H1377.2l-166.372-360.1-301.63-1.63H596.052Z" transform="translate(3663.797 6770.838)" fill="#8298c5"/>
    <text id="CONCEPÇÃO" transform="translate(4564 7143.487)" fill="#fff" font-size="38" font-family="Montserrat-Regular, Montserrat"><tspan x="-127.471" y="0">CONCEPÇÃO</tspan></text>
    <g id="Grupo_6142" data-name="Grupo 6142" transform="translate(4532 7023.045)">
      <g id="Grupo_6110" data-name="Grupo 6110" transform="translate(0 0)">
        <path id="Caminho_4236" data-name="Caminho 4236" d="M956.718,314.813c0-9.652.014-19.3-.009-28.956-.007-2.936-.907-3.849-3.741-3.916a41.888,41.888,0,0,1-5.041-.051c-3.334-.49-4.8,1.642-6.646,4.277h11.011v34.227H889.4V286.088h3.056c10.1,0,20.194-.167,30.282.1,3.224.085,4.581-1.38,5.77-4.044a7.177,7.177,0,0,0-1.1-.19q-19.526-.015-39.05-.013c-2.5,0-3.425,1.388-3.422,3.722.014,13.194-.005,26.387.015,39.581.005,2.9.934,3.909,3.77,3.913q32.143.041,64.287,0c2.715,0,3.662-1.011,3.7-3.714C956.753,321.9,956.718,318.354,956.718,314.813Z" transform="translate(-884.935 -271.326)" fill="#fff"/>
        <path id="Caminho_4237" data-name="Caminho 4237" d="M920.576,305.076c4.651-5.106,9.349-10.169,14.022-15.254,3.056-3.325,6.164-6.605,9.133-10.006,2.363-2.705,2.4-6,.294-7.547-2.03-1.494-5.1-.623-7.146,2.029-.108.14-.21.285-.312.43-7.084,10.05-14.168,20.1-21.346,30.286C917.988,307.982,917.955,307.952,920.576,305.076Z" transform="translate(-884.301 -271.542)" fill="#fff"/>
        <path id="Caminho_4238" data-name="Caminho 4238" d="M926.153,331.125c-3.894-.124-7.795-.109-11.691-.013a2.377,2.377,0,0,0-1.743,1.081c-.923,1.863-1.635,3.832-2.429,5.768h20.047c-.833-1.955-1.5-3.781-2.4-5.491A2.66,2.66,0,0,0,926.153,331.125Z" transform="translate(-884.404 -270.296)" fill="#fff"/>
        <path id="Caminho_4239" data-name="Caminho 4239" d="M913.114,305.794a3.289,3.289,0,0,0-3.727,2.658c-.813,2.855-2.245,4.915-5.669,4.817,4.138.711,8.173.793,11.948-.885,1.009-.448,2.305-2.14,2.134-2.989C917.344,307.144,915.37,306.034,913.114,305.794Z" transform="translate(-884.542 -270.825)" fill="#fff"/>
      </g>
    </g>
    <path id="Caminho_4295" data-name="Caminho 4295" d="M730.145,0H0" transform="translate(3837.5 6793.5)" fill="none" stroke="#8298c5" stroke-width="2.835"/>
    <text id="CRIE_OS_PROCESSOS_E_ETAPAS" data-name="CRIE OS PROCESSOS E ETAPAS" transform="translate(3838 7238.803)" fill="#1d3d66" font-size="16" font-family="Montserrat-ExtraBold, Montserrat" font-weight="800"><tspan x="0" y="0">CRIE OS PROCESSOS E ETAPAS</tspan></text>
    <text id="_Defina_os_processos_e_as_instâncias_de_decisões_subjetivas" data-name="• Defina os processos e as instâncias
  de decisões subjetivas" transform="translate(3838 7277.441)" fill="#1d3d66" font-size="18" font-family="Montserrat-Regular, Montserrat"><tspan x="0" y="0">• Defina os processos e as instâncias</tspan><tspan x="0" y="24" xml:space="preserve">  de decisões subjetivas</tspan></text>
    <text id="_Estipule_as_integrações_com_outros_sistemas" data-name="• Estipule as integrações com
  outros sistemas" transform="translate(3838 7341.271)" fill="#1d3d66" font-size="18" font-family="Montserrat-Regular, Montserrat"><tspan x="0" y="0">• Estipule as integrações com</tspan><tspan x="0" y="24" xml:space="preserve">  outros sistemas</tspan></text>
    <text id="_Estabeleça_SLA_e_KPIs" data-name="• Estabeleça SLA e KPIs" transform="translate(3838 7405.22)" fill="#1d3d66" font-size="18" font-family="Montserrat-Regular, Montserrat"><tspan x="0" y="0">• Estabeleça SLA e KPIs</tspan></text>
    <text id="DESENHE_O_PRODUTO" data-name="DESENHE O PRODUTO" transform="translate(5306 7108.542)" fill="#1d3d66" font-size="17" font-family="Montserrat-ExtraBold, Montserrat" font-weight="800"><tspan x="-202.538" y="0">DESENHE O PRODUTO</tspan></text>
    <text id="Solução_completa_flexível_e_modular" data-name="Solução completa, flexível  e modular" transform="translate(5306 7147.144)" fill="#1d3d66" font-size="18" font-family="Montserrat-Regular, Montserrat"><tspan x="-334.476" y="0" xml:space="preserve">Solução completa, flexível  e modular</tspan></text>
    <text id="DEIXE_QUE_A_KAPMUG_APLIQUE_OS_MODELOS_DE_DECISÃO" data-name="DEIXE QUE A KAPMUG APLIQUE
OS MODELOS DE DECISÃO" transform="translate(5306 7495.707)" fill="#1d3d66" font-size="16" font-family="Montserrat-ExtraBold, Montserrat" font-weight="800"><tspan x="-271.792" y="0">DEIXE QUE A KAPMUG APLIQUE</tspan><tspan x="-225.552" y="19">OS MODELOS DE DECISÃO</tspan></text>
    <text id="_Decisões_objetivas_são_tomadas_automaticamente" data-name="• Decisões objetivas são
  tomadas automaticamente" transform="translate(5306 7553.214)" fill="#1d3d66" font-size="18" font-family="Montserrat-Regular, Montserrat"><tspan x="-211.014" y="0">• Decisões objetivas são</tspan><tspan x="-257.418" y="24" xml:space="preserve">  tomadas automaticamente</tspan></text>
    <text id="_Ocorrências_que_não_forem_tratadas_de_forma_automatizada_serão_processadas_pelas_mesas_de_operação_da_KapMug" data-name="• Ocorrências que não forem
tratadas de forma automatizada
serão processadas pelas mesas
de operação da KapMug" transform="translate(5306 7616.717)" fill="#1d3d66" font-size="18" font-family="Montserrat-Regular, Montserrat"><tspan x="-255.582" y="0">• Ocorrências que não forem</tspan><tspan x="-291.348" y="24">tratadas de forma automatizada</tspan><tspan x="-279.594" y="48">serão processadas pelas mesas</tspan><tspan x="-221.22" y="72">de operação da KapMug</tspan></text>
    <text id="_Decisões_subjetivas_são_enviadas_às_pessoas_autorizadas_a_decidir_" data-name="• Decisões subjetivas
são enviadas às pessoas
autorizadas a decidir
" transform="translate(5306 7728.073)" fill="#1d3d66" font-size="18" font-family="Montserrat-Regular, Montserrat"><tspan x="-185.184" y="0">• Decisões subjetivas</tspan><tspan x="-215.406" y="24">são enviadas às pessoas</tspan><tspan x="-186.75" y="48">autorizadas a decidir</tspan><tspan x="0" y="72"></tspan></text>
    <text id="PARAMETRIZAÇÃO" transform="translate(4564 7382.95)" fill="#fff" font-size="38" font-family="Montserrat-Regular, Montserrat"><tspan x="-183.502" y="0">PARAMETRIZAÇÃO</tspan></text>
    <g id="xisC99" transform="translate(4532 7245.455)">
      <g id="Grupo_6109" data-name="Grupo 6109" transform="translate(0)">
        <g id="Grupo_6108" data-name="Grupo 6108">
          <path id="Caminho_4233" data-name="Caminho 4233" d="M961.15,537.187a16.781,16.781,0,0,1-1.323,3.064,6.3,6.3,0,0,1-5.513,2.739h-20.8c-3.87,0-7.741.007-11.611-.01a1.159,1.159,0,0,0-.99.463,10.89,10.89,0,0,1-16.8.044,1.287,1.287,0,0,0-1.11-.508c-1.935.028-3.87.019-5.805.01a6.631,6.631,0,1,1-.207-13.259q3.006-.037,6.012.006a1.289,1.289,0,0,0,1.11-.508,10.8,10.8,0,0,1,14.153-2.245,14.976,14.976,0,0,1,2.552,2.193,1.583,1.583,0,0,0,1.226.561q16.1-.023,32.209-.009a6.524,6.524,0,0,1,6.267,3.848,13.726,13.726,0,0,1,.638,1.953Zm-37.681,1.385h.642q14.957,0,29.916,0a4.815,4.815,0,0,0,.759-.033,2.186,2.186,0,0,0,1.811-2.856,2.312,2.312,0,0,0-2.5-1.539H923.469Zm-10.955-8.846a6.674,6.674,0,0,0-6.632,6.587,6.608,6.608,0,1,0,13.216.055A6.65,6.65,0,0,0,912.515,529.726Zm-11.007,4.433c-1.542,0-3.1-.052-4.661.017a2.166,2.166,0,0,0-2.048,2.131,2.111,2.111,0,0,0,1.883,2.2c1.619.105,3.251.027,4.826.027Z" transform="translate(-890.376 -476.637)" fill="#8298c5"/>
          <path id="Caminho_4234" data-name="Caminho 4234" d="M961.15,489.524a16.827,16.827,0,0,1-1.321,3.062,6.3,6.3,0,0,1-5.509,2.741H934.7c-4.237,0-8.474.007-12.711-.01a1.29,1.29,0,0,0-1.113.5,10.891,10.891,0,0,1-16.751.038,1.349,1.349,0,0,0-1.166-.536c-1.91.03-3.821.017-5.733.011a6.632,6.632,0,1,1-.23-13.26c2.049-.022,4.1.006,6.147-.018a1.121,1.121,0,0,0,.766-.3,11.093,11.093,0,0,1,7.03-4c.058-.009.109-.075.163-.113h2.765a.8.8,0,0,0,.231.126,11.089,11.089,0,0,1,6.922,3.936,1.284,1.284,0,0,0,.878.349c3.847.023,7.695.015,11.542.015h20.871a6.3,6.3,0,0,1,5.513,2.739,16.815,16.815,0,0,1,1.322,3.064Zm-37.681,1.358c.173.008.376.026.58.026q15.061,0,30.123,0a3.517,3.517,0,0,0,.953-.12,2.162,2.162,0,0,0,1.159-3.381,2.474,2.474,0,0,0-2.192-.926q-14.992.009-29.985,0h-.637Zm-10.957-8.819a6.678,6.678,0,0,0-6.63,6.59,6.608,6.608,0,1,0,13.216.049A6.652,6.652,0,0,0,912.512,482.063Zm-11,4.439c-1.551,0-3.136-.062-4.714.02A2.148,2.148,0,0,0,894.8,488.7a2.126,2.126,0,0,0,1.935,2.156c1.6.094,3.208.023,4.774.023Z" transform="translate(-890.376 -477.635)" fill="#8298c5"/>
          <path id="Caminho_4235" data-name="Caminho 4235" d="M961.151,513.355a8.039,8.039,0,0,1-1.462,3.3,6.586,6.586,0,0,1-5.235,2.5q-3.006.029-6.013-.006a1.15,1.15,0,0,0-.989.466,10.9,10.9,0,0,1-16.8.042,1.3,1.3,0,0,0-1.109-.507q-16.14.022-32.278.008a6.465,6.465,0,0,1-6.065-3.5,6.608,6.608,0,0,1,5.513-9.755c.3-.015.6-.011.9-.011q15.931,0,31.863.01a1.445,1.445,0,0,0,1.226-.555,10.885,10.885,0,0,1,16.712.039,1.279,1.279,0,0,0,1.1.519c1.865-.03,3.734.037,5.6-.022a6.706,6.706,0,0,1,6.954,5.629.712.712,0,0,0,.09.184Zm-33.1-3.043h-.7q-14.922,0-29.844,0a4.8,4.8,0,0,0-.758.032,2.2,2.2,0,0,0-1.788,2.98,2.323,2.323,0,0,0,2.385,1.415q15.1,0,30.19,0c.194,0,.389-.028.518-.037ZM939,505.895a6.572,6.572,0,0,0-6.562,6.642,6.6,6.6,0,1,0,13.2-.056A6.676,6.676,0,0,0,939,505.895Zm11.009,8.829c1.544,0,3.107.053,4.665-.017a2.165,2.165,0,0,0,2.045-2.136,2.113,2.113,0,0,0-1.888-2.194c-1.62-.1-3.253-.027-4.822-.027Z" transform="translate(-890.376 -477.136)" fill="#8298c5"/>
        </g>
      </g>
    </g>
    <g id="Grupo_6151" data-name="Grupo 6151" transform="translate(3605 6514)">
      <rect id="Retângulo_79" data-name="Retângulo 79" width="88.818" height="257.386" rx="14.112" transform="translate(845 961)" fill="#1d3d66"/>
      <g id="Grupo_6115" data-name="Grupo 6115" transform="translate(851 1000.637)">
        <g id="OgvBLZ" transform="translate(0 66.353)">
          <g id="Grupo_6112" data-name="Grupo 6112">
            <path id="Caminho_4240" data-name="Caminho 4240" d="M876.108,831.428a.792.792,0,0,1-.5-.411c-.384-.913-.7-1.857-1.09-2.766a1.124,1.124,0,0,1,.01-1.176,7.569,7.569,0,0,0,.668-1.364.731.731,0,0,0-.095-.632q-1.107-1.181-2.29-2.29a.671.671,0,0,0-.626-.1,3,3,0,0,1-3.813.092,1.218,1.218,0,0,0-.591-.217c-1.143-.087-1.541-.828-1.8-1.826-.3-1.146-.357-1.127-1.514-1.131-.927,0-1.855-.016-2.828-.027-.092.791-.153,1.506-.27,2.21a.723.723,0,0,1-.363.476c-.993.413-2,.8-3.011,1.159a1.241,1.241,0,0,1-.814-.006c-.641-.266-1.251-.607-1.892-.927-.892.891-1.768,1.751-2.617,2.637a.559.559,0,0,0-.067.531,3.148,3.148,0,0,1,.07,3.988,2.779,2.779,0,0,0-.355,1.079c-.091.605-.409.881-1.133.875.064-.538.13-1.079.192-1.6-1.688-.565-3.206-1.085-4.734-1.573a1.037,1.037,0,0,1-.735-.738c-.387-1.045-.894-2.046-1.309-3.082a1.193,1.193,0,0,1-.018-.853c.652-1.4,1.355-2.767,2.05-4.166-1.849-1.849-3.669-3.68-5.514-5.487a.728.728,0,0,0-.642-.012c-1.261.6-2.5,1.245-3.76,1.835a1.129,1.129,0,0,1-.806.011c-1.135-.453-2.254-.949-3.372-1.445a.653.653,0,0,1-.34-.315c-.486-1.41-.952-2.827-1.353-4.3a2.639,2.639,0,0,1-.112-.324l-.027-.192c-.065-.048-.133-.094-.2-.145-.3.039-.5.07-.7.085-2.238.16-4.476.333-6.716.464a.785.785,0,0,0-.809.613q-.642,1.824-1.356,3.622a1.011,1.011,0,0,1-.484.5q-1.64.74-3.311,1.412a1.037,1.037,0,0,1-.739.044c-1.429-.683-2.837-1.408-4.252-2.12l-5.752,5.752c.712,1.413,1.435,2.821,2.118,4.247a1.036,1.036,0,0,1-.015.748c-.458,1.132-.944,2.253-1.45,3.364a.943.943,0,0,1-.478.426c-1.218.478-2.442.942-3.676,1.377a.644.644,0,0,0-.518.722q.029,3.488,0,6.978a.624.624,0,0,0,.517.715c1.41.442,2.814.906,4.205,1.4a1.144,1.144,0,0,1,.561.569c.467,1.012.858,2.059,1.343,3.062a.948.948,0,0,1-.033,1.084c-.881,1.339-1.719,2.708-2.575,4.064l5.752,5.751c1.415-.712,2.826-1.434,4.252-2.123a.955.955,0,0,1,.693,0q1.727.7,3.427,1.478a.942.942,0,0,1,.419.485c.478,1.22.948,2.444,1.378,3.682a.642.642,0,0,0,.736.5q3.493-.024,6.988,0a.589.589,0,0,0,.671-.488c.441-1.391.928-2.767,1.366-4.157a.986.986,0,0,1,.706-.693c1.024-.385,2.025-.837,3.014-1.307a.851.851,0,0,1,.974.012c1.344.878,2.719,1.708,4.105,2.57l5.742-5.743c-.663-1.324-1.32-2.671-2.012-4a1.119,1.119,0,0,1-.008-1.117c.5-1.047.915-2.132,1.4-3.184a.976.976,0,0,1,.53-.446c1.555-.541,3.12-1.053,4.691-1.576l.049-1.1a1.015,1.015,0,0,1,1.062.878,20.253,20.253,0,0,0,1.045,2.647.754.754,0,0,1-.059.865c-.3.407-.565.841-.86,1.286l2.862,2.863c.594-.3,1.182-.637,1.807-.883a1.454,1.454,0,0,1,.929-.008c1,.339,1.979.728,2.954,1.129a.9.9,0,0,1,.442.448c.226.569.409,1.156.585,1.743.1.324.238.489.616.48,1.037-.028,2.077.012,3.113-.029a.794.794,0,0,0,.563-.415c.276-.662.308-1.52.761-1.987s1.353-.427,1.942-.8c1.265-.793,2.4-.92,3.421.373l2.926-2.926c-.3-.607-.644-1.217-.911-1.858a1.235,1.235,0,0,1-.007-.814c.355-1.014.747-2.016,1.156-3.011a.884.884,0,0,1,.445-.445c.588-.234,1.207-.393,1.795-.627.172-.068.4-.288.4-.445.042-1.2.035-2.408.043-3.67C877.526,831.607,876.811,831.55,876.108,831.428Zm-40.951,11.194a12.218,12.218,0,1,1-.005-17.3A12.03,12.03,0,0,1,835.157,842.622Zm33.064-4.305a6.117,6.117,0,1,1,.056-8.629A6.341,6.341,0,0,1,868.222,838.317Z" transform="translate(-802.377 -809.226)" fill="#fff"/>
            <path id="Caminho_4241" data-name="Caminho 4241" d="M821.866,837.9a6.079,6.079,0,1,1,8.585-.007A6.128,6.128,0,0,1,821.866,837.9Z" transform="translate(-802.006 -808.843)" fill="#8298c5"/>
          </g>
        </g>
        <g id="OgvBLZ-2" data-name="OgvBLZ" transform="translate(6.498 106.275)">
          <g id="Grupo_6113" data-name="Grupo 6113">
            <path id="Caminho_4242" data-name="Caminho 4242" d="M840.183,854.466a1.036,1.036,0,0,0,.748-.016c1.132-.457,2.253-.943,3.365-1.45a.93.93,0,0,0,.425-.477c.479-1.218.943-2.442,1.378-3.676a.644.644,0,0,1,.722-.518q3.489.029,6.978,0a.622.622,0,0,1,.714.516c.443,1.41.907,2.815,1.4,4.206a1.147,1.147,0,0,0,.57.562c1.012.467,2.059.858,3.062,1.341a.946.946,0,0,0,1.084-.033c1.339-.88,2.707-1.719,4.063-2.574l5.752,5.752c-.712,1.415-1.434,2.825-2.124,4.252a.952.952,0,0,0,0,.692q.7,1.729,1.478,3.427a.934.934,0,0,0,.485.419c1.22.479,2.444.95,3.682,1.379a.642.642,0,0,1,.5.736q-.025,3.493,0,6.988a.589.589,0,0,1-.487.671c-1.391.441-2.767.928-4.158,1.366a.985.985,0,0,0-.692.706c-.385,1.024-.837,2.025-1.308,3.013a.853.853,0,0,0,.013.974c.877,1.345,1.707,2.72,2.569,4.106l-5.742,5.742c-1.325-.664-2.671-1.321-4-2.012a1.118,1.118,0,0,0-1.118-.008c-1.047.5-2.131.915-3.184,1.4a.985.985,0,0,0-.446.53c-.54,1.555-1.052,3.12-1.575,4.691l-1.1.048a1.015,1.015,0,0,0,.878,1.063,20.289,20.289,0,0,1,2.646,1.044.753.753,0,0,0,.866-.058c.407-.3.84-.565,1.286-.861l2.862,2.863c-.3.593-.636,1.182-.882,1.807a1.46,1.46,0,0,0-.009.929c.34,1,.729,1.979,1.13,2.953a.89.89,0,0,0,.448.443c.569.226,1.156.409,1.743.585.324.1.489.237.479.616-.027,1.037.013,2.077-.028,3.112a.79.79,0,0,1-.415.563c-.662.277-1.52.309-1.987.761s-.428,1.354-.8,1.942c-.793,1.266-.921,2.4.372,3.422l-2.925,2.925c-.607-.3-1.217-.644-1.858-.91a1.235,1.235,0,0,0-.814-.007c-1.015.354-2.017.746-3.012,1.156a.892.892,0,0,0-.445.445c-.233.588-.392,1.207-.627,1.795-.068.172-.288.4-.444.4-1.2.041-2.408.035-3.671.043-.089-.774-.145-1.488-.267-2.192a.789.789,0,0,0-.41-.5c-.914-.385-1.858-.7-2.766-1.09a1.123,1.123,0,0,0-1.177.01,7.5,7.5,0,0,1-1.364.668.729.729,0,0,1-.631-.095q-1.182-1.107-2.291-2.29a.673.673,0,0,1-.1-.626,3,3,0,0,0,.093-3.814,1.212,1.212,0,0,1-.219-.59c-.086-1.143-.828-1.541-1.826-1.8-1.145-.3-1.126-.358-1.131-1.514,0-.928-.016-1.855-.026-2.829.791-.091,1.5-.152,2.21-.27a.722.722,0,0,0,.476-.363c.412-.992.8-2,1.159-3.011a1.232,1.232,0,0,0-.007-.813c-.265-.641-.606-1.252-.927-1.892.892-.892,1.752-1.768,2.638-2.617a.558.558,0,0,1,.531-.067,3.149,3.149,0,0,0,3.988.07,2.741,2.741,0,0,1,1.078-.355c.605-.091.882-.409.876-1.133l-1.6.191c-.564-1.687-1.085-3.2-1.573-4.733a1.036,1.036,0,0,0-.737-.735c-1.047-.387-2.047-.894-3.083-1.309a1.2,1.2,0,0,0-.851-.019c-1.4.653-2.768,1.356-4.166,2.051-1.849-1.849-3.682-3.669-5.488-5.515a.731.731,0,0,1-.011-.642c.6-1.26,1.243-2.5,1.835-3.759a1.124,1.124,0,0,0,.01-.806c-.452-1.135-.948-2.254-1.444-3.372a.652.652,0,0,0-.315-.34c-1.556-.536-3.118-1.053-4.751-1.478l1.52,1.519-1.647,1.647.934,2.129,2.014-.155-.006,4.207c-.487-.011-1.073-.01-1.658-.043a.525.525,0,0,0-.637.438c-.155.543-.387,1.064-.623,1.689l1.594,1.594-2.849,2.85-1.595-1.6-2.157.945.179,2.023-4.212-.007c.015-.517.018-1.1.058-1.691a.524.524,0,0,0-.448-.629c-.542-.159-1.064-.39-1.685-.626l-1.6,1.6-2.849-2.849,1.6-1.6-.937-2.154-2.028.147v-4.2c.554.021,1.166.078,1.773.051a.738.738,0,0,0,.511-.384c.249-.531.432-1.092.667-1.71l-1.64-1.64,2.875-2.876L814.571,877l2.142-.928-.144-2.029h4.18c-.021.559-.077,1.171-.049,1.779a.745.745,0,0,0,.385.511c.531.248,1.092.431,1.729.673l1.609-1.608,1.135,1.136c.044-.344.08-.553.095-.766.16-2.238.333-4.475.464-6.715a.785.785,0,0,1,.613-.81q1.824-.642,3.622-1.355a1.016,1.016,0,0,0,.5-.484q.74-1.64,1.411-3.311a1.04,1.04,0,0,0,.045-.74c-.683-1.428-1.408-2.836-2.12-4.251l5.751-5.752C837.35,853.058,838.757,853.782,840.183,854.466Zm18.781,26.643a12.218,12.218,0,1,0-17.3-.005A12.031,12.031,0,0,0,858.964,881.109ZM854.6,905.5a6.117,6.117,0,1,0,.056,8.674A6.347,6.347,0,0,0,854.6,905.5Zm-33.045-18.622a4.081,4.081,0,1,0-5.76-.008A3.9,3.9,0,0,0,821.557,886.878Z" transform="translate(-808.742 -848.329)" fill="#fff"/>
            <path id="Caminho_4243" data-name="Caminho 4243" d="M853.895,867.818a6.079,6.079,0,1,0-.007,8.585A6.128,6.128,0,0,0,853.895,867.818Z" transform="translate(-808.013 -847.958)" fill="#8298c5"/>
          </g>
        </g>
        <g id="OgvBLZ-3" data-name="OgvBLZ" transform="translate(8.482)">
          <g id="Grupo_6114" data-name="Grupo 6114">
            <path id="Caminho_4244" data-name="Caminho 4244" d="M842.127,750.371a1.031,1.031,0,0,0,.748-.016c1.131-.457,2.253-.943,3.364-1.45a.937.937,0,0,0,.426-.477c.478-1.218.942-2.442,1.377-3.676a.644.644,0,0,1,.722-.518q3.489.029,6.978,0a.624.624,0,0,1,.715.516c.442,1.41.906,2.815,1.4,4.206a1.145,1.145,0,0,0,.569.562c1.012.467,2.059.858,3.062,1.343a.95.95,0,0,0,1.084-.033c1.339-.881,2.707-1.72,4.063-2.575L872.39,754c-.712,1.415-1.434,2.826-2.124,4.252a.952.952,0,0,0,0,.692q.7,1.729,1.478,3.427a.936.936,0,0,0,.485.42c1.22.478,2.444.948,3.683,1.378a.642.642,0,0,1,.5.736q-.024,3.493,0,6.988a.588.588,0,0,1-.487.671c-1.391.441-2.767.928-4.157,1.366a.986.986,0,0,0-.693.706c-.385,1.024-.837,2.024-1.307,3.014a.85.85,0,0,0,.012.973c.878,1.345,1.707,2.72,2.57,4.106l-5.743,5.742c-1.325-.663-2.671-1.321-4-2.012a1.116,1.116,0,0,0-1.117-.008c-1.047.5-2.132.915-3.184,1.4a.976.976,0,0,0-.446.53c-.541,1.555-1.053,3.12-1.576,4.691l-1.1.048a1.015,1.015,0,0,0,.878,1.063,20.29,20.29,0,0,1,2.646,1.045.755.755,0,0,0,.866-.059c.407-.3.841-.565,1.286-.86l2.863,2.862c-.3.593-.637,1.182-.883,1.807a1.454,1.454,0,0,0-.008.929c.339,1,.728,1.979,1.129,2.953a.89.89,0,0,0,.448.443c.569.226,1.156.409,1.743.585.324.1.489.237.479.616-.027,1.037.013,2.077-.028,3.113a.79.79,0,0,1-.416.562c-.662.277-1.52.309-1.987.762s-.428,1.353-.8,1.942c-.793,1.265-.92,2.4.372,3.421l-2.925,2.925c-.607-.3-1.217-.643-1.858-.91a1.235,1.235,0,0,0-.814-.007c-1.015.354-2.017.746-3.012,1.156a.892.892,0,0,0-.445.445c-.233.588-.392,1.207-.626,1.795-.068.172-.288.4-.445.4-1.2.041-2.408.035-3.671.043-.088-.774-.145-1.489-.268-2.192a.788.788,0,0,0-.41-.5c-.914-.385-1.858-.7-2.766-1.09a1.123,1.123,0,0,0-1.177.01,7.5,7.5,0,0,1-1.364.668.729.729,0,0,1-.631-.095q-1.182-1.107-2.29-2.29a.671.671,0,0,1-.1-.626,3,3,0,0,0,.092-3.814,1.212,1.212,0,0,1-.219-.59c-.086-1.143-.827-1.541-1.825-1.8-1.147-.3-1.127-.358-1.131-1.514,0-.927-.017-1.855-.027-2.829.791-.091,1.5-.152,2.21-.268a.724.724,0,0,0,.476-.365c.412-.992.8-2,1.159-3.01a1.235,1.235,0,0,0-.007-.814c-.265-.641-.606-1.252-.927-1.892.892-.892,1.752-1.768,2.638-2.617a.558.558,0,0,1,.531-.067,3.149,3.149,0,0,0,3.988.07,2.774,2.774,0,0,1,1.078-.355c.606-.091.882-.409.876-1.133l-1.6.191c-.564-1.687-1.084-3.2-1.572-4.733a1.037,1.037,0,0,0-.738-.735c-1.045-.387-2.046-.894-3.082-1.309a1.2,1.2,0,0,0-.853-.019c-1.4.653-2.768,1.356-4.166,2.051-1.849-1.849-3.68-3.669-5.487-5.514a.73.73,0,0,1-.012-.643c.6-1.26,1.245-2.5,1.835-3.759a1.129,1.129,0,0,0,.011-.806c-.453-1.135-.949-2.254-1.445-3.372a.653.653,0,0,0-.315-.34c-1.556-.536-3.118-1.053-4.751-1.478l1.52,1.52-1.647,1.646.935,2.129,2.014-.155-.007,4.208c-.487-.011-1.073-.011-1.658-.044a.525.525,0,0,0-.637.439c-.155.542-.387,1.063-.622,1.688l1.594,1.594-2.85,2.85-1.595-1.6-2.157.945.179,2.023-4.212-.006c.016-.518.018-1.106.058-1.692a.524.524,0,0,0-.448-.629c-.542-.159-1.063-.39-1.685-.626l-1.6,1.6-2.85-2.849,1.6-1.6-.938-2.153-2.028.146v-4.2c.554.021,1.166.078,1.773.051a.742.742,0,0,0,.513-.384c.249-.531.431-1.092.666-1.71l-1.64-1.64,2.876-2.876,1.642,1.642,2.141-.928-.144-2.029h4.18c-.021.56-.077,1.171-.049,1.779a.743.743,0,0,0,.386.511c.53.248,1.091.431,1.728.673l1.609-1.608,1.136,1.136c.043-.344.079-.553.094-.765.16-2.238.333-4.476.464-6.716a.786.786,0,0,1,.613-.81q1.824-.64,3.622-1.355a1.012,1.012,0,0,0,.5-.484q.74-1.64,1.411-3.311a1.04,1.04,0,0,0,.045-.74c-.683-1.428-1.408-2.836-2.12-4.251l5.752-5.752C839.293,748.964,840.7,749.687,842.127,750.371Zm18.78,26.643a12.218,12.218,0,1,0-17.3-.005A12.029,12.029,0,0,0,860.907,777.014Zm-4.363,24.39a6.117,6.117,0,1,0,.057,8.674A6.345,6.345,0,0,0,856.545,801.4ZM823.5,782.783a4.081,4.081,0,1,0-5.76-.008A3.9,3.9,0,0,0,823.5,782.783Z" transform="translate(-810.685 -744.234)" fill="#fff"/>
            <path id="Caminho_4245" data-name="Caminho 4245" d="M855.838,763.723a6.079,6.079,0,1,0-.007,8.585A6.128,6.128,0,0,0,855.838,763.723Z" transform="translate(-809.956 -743.863)" fill="#8298c5"/>
          </g>
        </g>
      </g>
      <text id="MOTORES" transform="translate(890 1239)" fill="#1d3d66" font-size="11" font-family="Montserrat-Bold, Montserrat" font-weight="700"><tspan x="-29.068" y="0">MOTORES</tspan></text>
      <rect id="Retângulo_80" data-name="Retângulo 80" width="88.818" height="257.386" rx="14.112" transform="translate(984 961)" fill="#1d3d66"/>
      <g id="l5Ve7F" transform="translate(998 1048.395)">
        <g id="Grupo_6117" data-name="Grupo 6117">
          <path id="Caminho_4246" data-name="Caminho 4246" d="M970.529,841.148c-2.378,1.727-3.19,3.7-2.494,5.96a4.846,4.846,0,0,0,4.439,3.445c2.09.054,4.191.115,6.272-.031a10.34,10.34,0,0,0,2.765-.971,6.616,6.616,0,0,1,1.406-.6,23.877,23.877,0,0,0,9.882-3.28c8.212,8.473,11.674,18.794,12.2,30.411H943.87c.075-1.265.1-2.558.235-3.841a45.7,45.7,0,0,1,6.613-19.882,31.941,31.941,0,0,1,13.553-12.405,2.356,2.356,0,0,1,2.021-.1C967.647,840.362,969.066,840.71,970.529,841.148Z" transform="translate(-943.87 -789.994)" fill="#fff"/>
          <path id="Caminho_4247" data-name="Caminho 4247" d="M955.146,818.971c0-1.686-.053-3.373.021-5.056a7.715,7.715,0,0,1,.488-2.53,20.017,20.017,0,0,1,37.3.593,3.76,3.76,0,0,1,.255,1.266q.029,5.666,0,11.333a4.627,4.627,0,0,1-.287,1.542,20.018,20.018,0,0,1-37.412.19,5.839,5.839,0,0,1-.351-1.906c-.047-1.809-.016-3.62-.016-5.431Z" transform="translate(-943.634 -790.847)" fill="#fff"/>
          <path id="Caminho_4248" data-name="Caminho 4248" d="M995.328,812.958a25.849,25.849,0,0,1,3.523,1.412,9.5,9.5,0,0,1-.127,16.559,1.486,1.486,0,0,0-.854,1.3c-.763,7.7-5.459,12.9-13.07,14.487-.884.184-1.785.29-2.68.413-.932.128-1.862.093-2.538,1.035a2.266,2.266,0,0,1-1.592.6c-1.934.069-3.871.046-5.807.019a2.593,2.593,0,0,1-2.561-2.48,2.554,2.554,0,0,1,2.371-2.666c2.057-.084,4.123-.067,6.181.005a2.205,2.205,0,0,1,1.485.666,1.831,1.831,0,0,0,1.887.61c3.64-.389,7.047-1.369,9.841-3.876a12.115,12.115,0,0,0,4.129-8.355c.161-2.312-.21-4.657-.24-6.989-.049-3.9-.016-7.807-.015-11.711C995.262,813.736,995.293,813.491,995.328,812.958Z" transform="translate(-943.331 -790.553)" fill="#8298c5"/>
          <path id="Caminho_4249" data-name="Caminho 4249" d="M950.033,812.133a24.491,24.491,0,0,1,48.518.014c-1.035-.132-2.054-.212-3.045-.425-.22-.047-.419-.541-.492-.861a20.93,20.93,0,0,0-6.9-11.412,21.231,21.231,0,0,0-34.5,11.326c-.162.712-.393,1.081-1.174,1.1C951.641,811.887,950.847,812.039,950.033,812.133Z" transform="translate(-943.741 -791.013)" fill="#8298c5"/>
          <path id="Caminho_4250" data-name="Caminho 4250" d="M952.966,832.049a9.551,9.551,0,0,1-8.314-10.065c.278-4.5,4.274-8.731,8.314-8.751Z" transform="translate(-943.854 -790.548)" fill="#8298c5"/>
          <path id="Caminho_4251" data-name="Caminho 4251" d="M979.215,840.747c1.049-.358,2.152-.76,3.275-1.1a1.384,1.384,0,0,1,.87.112,14.894,14.894,0,0,1,2.208,1.19C983.408,841.633,981.267,842.736,979.215,840.747Z" transform="translate(-943.13 -789.995)" fill="#fff"/>
        </g>
      </g>
      <text id="MESAS" transform="translate(1029 1239)" fill="#1d3d66" font-size="11" font-family="Montserrat-Bold, Montserrat" font-weight="700"><tspan x="-20.174" y="0">MESAS</tspan></text>
      <text id="_" data-name=" " transform="translate(1168 1075.205)" font-size="2" font-family="ArialMT, Arial"><tspan x="0" y="0"> </tspan></text>
      <rect id="Retângulo_81" data-name="Retângulo 81" width="88.818" height="257.386" rx="14.112" transform="translate(1124 961)" fill="#1d3d66"/>
      <g id="Grupo_6119" data-name="Grupo 6119" transform="translate(1138 999.984)">
        <path id="Caminho_4252" data-name="Caminho 4252" d="M1139.9,756.742a2.563,2.563,0,0,1-2.122-1.528c-4.135-7.885-10.708-12.035-19.608-11.586-8.831.446-14.891,5.208-18.336,13.347a4.06,4.06,0,0,1-1.508,1.735,15.557,15.557,0,0,0,8.1,28.907c5.122.016,10.245,0,15.367,0s10.245.013,15.367,0a15.547,15.547,0,0,0,2.737-30.874Zm-2.355,25.687c-5.27.106-10.543.022-15.814.022v.006c-4.968,0-9.935.01-14.9,0-5.471-.014-9.625-3.259-10.684-8.319-1.034-4.935,1.506-9.581,6.491-11.724a2.447,2.447,0,0,0,1.548-1.84,15.464,15.464,0,0,1,29.857-.83c.716,2.159.716,2.159,2.926,2a10.348,10.348,0,1,1,.579,20.687Z" transform="translate(-1090.757 -743.595)" fill="#fff"/>
        <path id="Caminho_4253" data-name="Caminho 4253" d="M1121.312,758.865h-5.178v10.294h-4.471l7.116,9.722c2.381-3.262,4.646-6.367,7.159-9.808h-4.626Z" transform="translate(-1090.319 -745.275)" fill="#8298c5"/>
      </g>
      <g id="Grupo_6120" data-name="Grupo 6120" transform="translate(1137 1148.47)">
        <path id="Caminho_4254" data-name="Caminho 4254" d="M1145.76,889.035h-47.9a7.948,7.948,0,0,0-7.948,7.948v17.634a7.948,7.948,0,0,0,7.948,7.948h47.9a7.947,7.947,0,0,0,7.948-7.948V896.983A7.947,7.947,0,0,0,1145.76,889.035Zm-4.223,28.553a.625.625,0,0,1-.625.626h-43.419a.625.625,0,0,1-.625-.626V894.011a.625.625,0,0,1,.625-.625h43.419a.625.625,0,0,1,.625.625Zm5.894-7.691a4.1,4.1,0,1,1,4.1-4.1A4.1,4.1,0,0,1,1147.432,909.9Z" transform="translate(-1089.915 -889.035)" fill="#fff"/>
        <path id="Caminho_4255" data-name="Caminho 4255" d="M1132.833,906.118a1.5,1.5,0,0,1-1.369-.191,1.541,1.541,0,0,0-1.348-.343,2.891,2.891,0,0,0-.661.3,2.052,2.052,0,0,1-.561.291.433.433,0,0,1-.254-.042,1.479,1.479,0,0,0-.064-.478.449.449,0,0,0-.741-.195.738.738,0,0,0-.148.95,1.265,1.265,0,0,1-.807.612,4.974,4.974,0,0,1-1.995-.023,9.969,9.969,0,0,1-3.862-1.428,1.7,1.7,0,0,1-.4-.344c.664-.205,1.319-.437,1.961-.7a6.22,6.22,0,0,0,2.567-1.716,3.321,3.321,0,0,0,.733-1.9c.145-.069.29-.138.437-.2a5.572,5.572,0,0,0,.866.006,4.152,4.152,0,0,0,3.221-1.725.448.448,0,0,0-.5-.651q-1.9.64-3.725,1.463c-.192-.023-.382-.056-.572-.1a2.219,2.219,0,0,0-1.766-1.14,1.749,1.749,0,0,0-1.146.308.45.45,0,0,0,.106.81,20.478,20.478,0,0,0,2.054.745q-.991.492-1.954,1.038a18.648,18.648,0,0,0-2.1,1.307,3.286,3.286,0,0,0-1.16,1.393c-.23-.39-.458-.78-.651-1.189a5.993,5.993,0,0,1-.535-1.986,6.808,6.808,0,0,0,2.242-1.515,2.463,2.463,0,0,0,.769-2.588,1.513,1.513,0,0,0-2.19-.821,4.008,4.008,0,0,0-1.51,2.515,7.2,7.2,0,0,0-.224,1.8,6.5,6.5,0,0,1-.987.237c-.092.014-.185.026-.278.036l.334-.324c.41-.4-.217-1.024-.627-.627l-1.133,1.1a.448.448,0,0,0,.313.757,7.325,7.325,0,0,0,2.436-.267c.018.146.04.292.068.438a8.9,8.9,0,0,0,1.206,2.88l.1.167q-.256.066-.514.128c-2.1.5-4.244.847-6.344,1.373-.51.129-1.03.252-1.526.427a1.708,1.708,0,0,0-1.037.783,1.787,1.787,0,0,0,.1,1.489,9.942,9.942,0,0,0,.679,1.351,10.08,10.08,0,0,0,1.875,2.279,5.7,5.7,0,0,0,2.565,1.444,3.136,3.136,0,0,0,2.7-.677,11.534,11.534,0,0,0,2.007-2.194,6.982,6.982,0,0,0,1.279-2.693,4.606,4.606,0,0,0-.056-2.056,10.646,10.646,0,0,0,4.285,1.483,4.514,4.514,0,0,0,2.623-.213,1.942,1.942,0,0,0,.771-.708,1.429,1.429,0,0,0,1.14-.114,5.385,5.385,0,0,1,.79-.414c.327-.1.533.136.792.3a2.333,2.333,0,0,0,1.967.223C1133.608,906.793,1133.377,905.936,1132.833,906.118Zm-13.6-8.788c.185-.282.5-.651.881-.611a.8.8,0,0,1,.6.73c.117.878-.841,1.652-1.475,2.089a6.374,6.374,0,0,1-.8.47A5.527,5.527,0,0,1,1119.233,897.329Zm2.658,5.766q1.476-.927,3.03-1.718a2.79,2.79,0,0,1-.7,1.141,7.164,7.164,0,0,1-2.609,1.439q-.532.2-1.072.367A3.558,3.558,0,0,1,1121.891,903.1Zm-2.849,7.143A11.262,11.262,0,0,1,1117,912.6a2.391,2.391,0,0,1-2.688.354,6.933,6.933,0,0,1-2.374-1.919,7.691,7.691,0,0,1-1.576-2.718c-.152-.542.225-.7.677-.84.544-.164,1.1-.306,1.649-.44,2.213-.534,4.468-.886,6.673-1.457l.065-.017a4.324,4.324,0,0,1,.544,1.846A5.037,5.037,0,0,1,1119.042,910.239Zm9.407-4.255c.028-.008.028.007.018.03C1128.45,906,1128.441,905.986,1128.449,905.984Z" transform="translate(-1089.506 -888.892)" fill="#8298c5"/>
      </g>
      <g id="Grupo_6121" data-name="Grupo 6121" transform="translate(1143 1059.181)">
        <text id="_2" data-name=" " transform="translate(15.275 29.435)" fill="#414141" font-size="2" font-family="ArialMT, Arial"><tspan x="0" y="0"> </tspan></text>
        <text id="_3" data-name=" " transform="translate(23.027 4.408)" fill="#0f84c7" font-size="2" font-family="ArialMT, Arial"><tspan x="0" y="0"> </tspan></text>
        <text id="_4" data-name=" " transform="translate(35.402 15.316)" fill="#fff" font-size="2" font-family="ArialMT, Arial"><tspan x="0" y="0"> </tspan></text>
        <path id="Caminho_4256" data-name="Caminho 4256" d="M1121.673,866.59h-19.78a5.676,5.676,0,0,1-4.273-1.756,5.182,5.182,0,0,1-1.345-2.4,7.231,7.231,0,0,1-.2-1.648c-.015-4.668-.009-9.336-.009-14q0-7.815,0-15.63c0-.419.035-.837.034-1.256-.007-1.445-.031-2.889-.033-4.334q-.008-5.245,0-10.491,0-3.818,0-7.638a5.78,5.78,0,0,1,.514-2.565,5.508,5.508,0,0,1,4.249-3.21,7.317,7.317,0,0,1,1.2-.082q13.248-.008,26.5,0c.69,0,1.381.023,2.071.029.243,0,.485-.028.728-.029a1.62,1.62,0,0,1,1.2.5q7.163,7.168,14.333,14.329a1.628,1.628,0,0,1,.411,1.18c.015.414.027.826.028,1.239q0,14.793,0,29.586c0,.577-.03,1.153-.029,1.729q.011,5.338.03,10.676a5.608,5.608,0,0,1-.965,3.292,5.409,5.409,0,0,1-3.832,2.4,9.9,9.9,0,0,1-1.336.083Q1131.421,866.593,1121.673,866.59Zm22.581-26.719V818.7c0-.348,0-.348-.35-.348h-9.785c-.188,0-.377-.012-.564-.032a3.426,3.426,0,0,1-3.012-3.349q0-5.034,0-10.068c0-.214-.056-.28-.276-.278-1.3.009-2.594,0-3.891,0l-24.731,0a2.6,2.6,0,0,0-2.54,2.55q0,10.686,0,21.372,0,2.394,0,4.786,0,12.472,0,24.944c0,.329-.03.659-.029.987,0,.579.026,1.158.029,1.737a2.6,2.6,0,0,0,2.515,2.53q7.191.008,14.382,0h16.207q4.763,0,9.526,0a2.574,2.574,0,0,0,2.517-2.541Z" transform="translate(-1096.063 -801.577)" fill="#fff"/>
        <path id="Caminho_4257" data-name="Caminho 4257" d="M1136.7,856.854c-.344-.2-.69.015-1.069.179a1.186,1.186,0,0,1-1.127-.13.59.59,0,0,0-.434-.105,1.316,1.316,0,0,1-1.338-.6.352.352,0,0,0-.243-.125,1.325,1.325,0,0,1-1.3-1.059.318.318,0,0,0-.158-.19,1.335,1.335,0,0,1-.889-1.424.38.38,0,0,0-.1-.262,1.349,1.349,0,0,1-.344-1.626.34.34,0,0,0-.007-.345,1.339,1.339,0,0,1,.241-1.6.431.431,0,0,0,.106-.3,1.351,1.351,0,0,1,.779-1.452.449.449,0,0,0,.205-.249,1.348,1.348,0,0,1,1.239-1.082.439.439,0,0,0,.271-.171,1.362,1.362,0,0,1,1.558-.586.338.338,0,0,0,.248-.049,1.378,1.378,0,0,1,1.8.034.309.309,0,0,0,.261.033,1.359,1.359,0,0,1,1.73.526.439.439,0,0,0,.29.179,1.323,1.323,0,0,1,1.224,1.059.356.356,0,0,0,.232.291,1.312,1.312,0,0,1,.776,1.4.381.381,0,0,0,.13.383,1.352,1.352,0,0,1,.227,1.609.4.4,0,0,0-.016.293,1.379,1.379,0,0,1-.34,1.672.347.347,0,0,0-.1.237,1.351,1.351,0,0,1-.873,1.461.406.406,0,0,0-.194.234,1.334,1.334,0,0,1-1.3,1.027.411.411,0,0,0-.256.155A1.364,1.364,0,0,1,1136.7,856.854Zm-5.109-5.654a3.758,3.758,0,1,0,3.789-3.729A3.774,3.774,0,0,0,1131.59,851.2Z" transform="translate(-1095.362 -800.661)" fill="#8298c5"/>
        <path id="Caminho_4258" data-name="Caminho 4258" d="M1132.491,856.687a4.759,4.759,0,0,0,.588.333,1.633,1.633,0,0,0,.655.148,2.681,2.681,0,0,1,1.023.277c-.176.4-.345.77-.509,1.146-.087.2-.164.4-.247.606-.184.445-.387.692-.873.508-.358-.136-.719-.264-1.071-.416a.556.556,0,0,1-.334-.7C1131.958,857.956,1132.228,857.333,1132.491,856.687Z" transform="translate(-1095.317 -800.423)" fill="#8298c5"/>
        <path id="Caminho_4259" data-name="Caminho 4259" d="M1135.733,857.328a1.466,1.466,0,0,1,.488-.11,2.029,2.029,0,0,0,1.7-.471.363.363,0,0,1,.107-.033c.167.4.334.8.5,1.195.084.2.175.4.243.612a.59.59,0,0,1-.335.78c-.336.153-.676.3-1.02.43a.622.622,0,0,1-.848-.368c-.166-.406-.315-.82-.48-1.226C1135.986,857.88,1135.867,857.629,1135.733,857.328Z" transform="translate(-1095.232 -800.423)" fill="#8298c5"/>
        <path id="Caminho_4260" data-name="Caminho 4260" d="M1118.053,850.894c.019-.006.019.005.012.021C1118.054,850.9,1118.047,850.9,1118.053,850.894Z" transform="translate(-1095.602 -800.545)" fill="#395d9f"/>
        <path id="Caminho_4261" data-name="Caminho 4261" d="M1127.616,833.05h-22.165a1.021,1.021,0,1,1,0-2.042h22.165a1.021,1.021,0,1,1,0,2.042Z" transform="translate(-1095.887 -800.961)" fill="#fff"/>
        <path id="Caminho_4262" data-name="Caminho 4262" d="M1136.336,824.014h-30.885a1.021,1.021,0,1,1,0-2.042h30.885a1.021,1.021,0,0,1,0,2.042Z" transform="translate(-1095.887 -801.15)" fill="#fff"/>
        <path id="Caminho_4263" data-name="Caminho 4263" d="M1124.241,828.2h-18.789a1.021,1.021,0,1,1,0-2.042h18.789a1.021,1.021,0,1,1,0,2.042Z" transform="translate(-1095.887 -801.063)" fill="#fff"/>
        <path id="Caminho_4264" data-name="Caminho 4264" d="M1124.241,837.9h-18.789a1.021,1.021,0,1,1,0-2.042h18.789a1.021,1.021,0,1,1,0,2.042Z" transform="translate(-1095.887 -800.859)" fill="#fff"/>
        <path id="Caminho_4265" data-name="Caminho 4265" d="M1124.241,856.688h-18.789a1.021,1.021,0,1,1,0-2.042h18.789a1.021,1.021,0,1,1,0,2.042Z" transform="translate(-1095.887 -800.466)" fill="#fff"/>
        <path id="Caminho_4266" data-name="Caminho 4266" d="M1122.554,819.109h-17.1a1.021,1.021,0,1,1,0-2.042h17.1a1.021,1.021,0,0,1,0,2.042Z" transform="translate(-1095.887 -801.253)" fill="#fff"/>
        <path id="Caminho_4267" data-name="Caminho 4267" d="M1122.554,814.261h-17.1a1.021,1.021,0,1,1,0-2.042h17.1a1.021,1.021,0,0,1,0,2.042Z" transform="translate(-1095.887 -801.355)" fill="#fff"/>
      </g>
      <text id="CONTRATAÇÃO" transform="translate(1168 1240)" fill="#1d3d66" font-size="11" font-family="Montserrat-Bold, Montserrat" font-weight="700"><tspan x="-44.616" y="0">CONTRATAÇÃO</tspan></text>
      <rect id="Retângulo_82" data-name="Retângulo 82" width="88.818" height="257.386" rx="14.083" transform="translate(705 961)" fill="#1d3d66"/>
      <g id="Grupo_6123" data-name="Grupo 6123" transform="translate(720 1050.234)">
        <path id="Caminho_4268" data-name="Caminho 4268" d="M680.016,792.813v89.608h59.589V792.813Zm56.97,86.652h-54.35V795.77h54.35Z" transform="translate(-680.016 -792.813)" fill="#fff"/>
        <rect id="Retângulo_83" data-name="Retângulo 83" width="28.398" height="2.874" transform="translate(11.273 13.777)" fill="#fff"/>
        <rect id="Retângulo_84" data-name="Retângulo 84" width="28.398" height="2.874" transform="translate(11.273 25.561)" fill="#fff"/>
        <rect id="Retângulo_85" data-name="Retângulo 85" width="28.398" height="2.874" transform="translate(11.273 37.346)" fill="#fff"/>
        <rect id="Retângulo_86" data-name="Retângulo 86" width="28.398" height="2.874" transform="translate(11.273 49.131)" fill="#fff"/>
        <rect id="Retângulo_87" data-name="Retângulo 87" width="28.398" height="2.874" transform="translate(11.273 60.915)" fill="#fff"/>
        <rect id="Retângulo_88" data-name="Retângulo 88" width="28.398" height="2.874" transform="translate(11.273 72.7)" fill="#fff"/>
        <path id="Caminho_4269" data-name="Caminho 4269" d="M729,804.621l-6.42,4.512-1.8-2.561-1.06.745,1.8,2.561h0l.745,1.06,7.48-5.257Z" transform="translate(-679.184 -792.566)" fill="#8298c5"/>
        <path id="Caminho_4270" data-name="Caminho 4270" d="M729,814.756l-6.42,4.512-1.8-2.561-1.06.745,1.8,2.561h0l.745,1.06,7.48-5.257Z" transform="translate(-679.184 -792.353)" fill="#8298c5"/>
        <path id="Caminho_4271" data-name="Caminho 4271" d="M729,826.3l-6.42,4.512-1.8-2.561-1.06.745,1.8,2.561h0l.745,1.06,7.48-5.257Z" transform="translate(-679.184 -792.112)" fill="#8298c5"/>
        <path id="Caminho_4272" data-name="Caminho 4272" d="M729,837.842l-6.42,4.512-1.8-2.561-1.06.745,1.8,2.561h0l.745,1.06,7.48-5.257Z" transform="translate(-679.184 -791.87)" fill="#8298c5"/>
        <path id="Caminho_4273" data-name="Caminho 4273" d="M729,849.385l-6.42,4.512-1.8-2.561-1.06.745,1.8,2.561h0l.745,1.06,7.48-5.257Z" transform="translate(-679.184 -791.628)" fill="#8298c5"/>
        <path id="Caminho_4274" data-name="Caminho 4274" d="M729,860.927l-6.42,4.512-1.8-2.561-1.06.745,1.8,2.561h0l.745,1.06,7.48-5.257Z" transform="translate(-679.184 -791.386)" fill="#8298c5"/>
      </g>
      <g id="Grupo_6124" data-name="Grupo 6124" transform="translate(720 1152.858)">
        <path id="Caminho_4275" data-name="Caminho 4275" d="M739.616,911.327H727.108c1.941,7.012.538,12.131-4.259,15.718a12.95,12.95,0,0,1-14.714.568,12.73,12.73,0,0,1-5.051-5.907,13.25,13.25,0,0,1,.031-10.417H680.029c-.027.437-.068.787-.068,1.138q-.006,8.853,0,17.707c.009,3.657,1.886,5.516,5.538,5.517q24.287.006,48.573,0c3.7,0,5.573-1.885,5.582-5.612q.018-8.793.013-17.588C739.669,912.07,739.633,911.688,739.616,911.327Z" transform="translate(-679.955 -892.956)" fill="#fff"/>
        <path id="Caminho_4276" data-name="Caminho 4276" d="M680.5,910.1c7.574.012,15.149.029,22.724,0a1.675,1.675,0,0,0,1.13-.642c5.648-7.595,15.86-7.586,21.441.018a1.685,1.685,0,0,0,1.124.665c4.065.054,8.132.044,12.2.044a1.626,1.626,0,0,0,.441-.131,76.108,76.108,0,0,0-.081-7.656,6.188,6.188,0,0,0-1.738-3.115c-.958-1.059-2.414-1.1-3.794-1.1q-24.16.006-48.319.007a10.883,10.883,0,0,0-1.548.1,4.432,4.432,0,0,0-3.981,4c-.159,2.534-.038,5.085-.038,7.709A2.448,2.448,0,0,0,680.5,910.1Z" transform="translate(-679.953 -893.23)" fill="#fff"/>
        <path id="Caminho_4277" data-name="Caminho 4277" d="M706.2,916.616a8.323,8.323,0,1,0,8.473-8.283A8.347,8.347,0,0,0,706.2,916.616Z" transform="translate(-679.405 -893.018)" fill="#8298c5"/>
        <path id="Caminho_4278" data-name="Caminho 4278" d="M716.777,893.76a1.391,1.391,0,0,0-1.014-.408q-6.449-.04-12.9,0a1.287,1.287,0,0,0-.927.351c-.89,1.2-1.711,2.454-2.659,3.84h19.9C718.309,896.153,717.586,894.926,716.777,893.76Zm-4.938,2.939H706.81v-2.352h5.028Z" transform="translate(-679.55 -893.332)" fill="#fff"/>
        <path id="Caminho_4279" data-name="Caminho 4279" d="M729.712,895.1h-2.143c-2.033,0-2.186.136-2.608,2.362h7.475C731.922,895.1,731.922,895.1,729.712,895.1Z" transform="translate(-679.012 -893.295)" fill="#fff"/>
        <path id="Caminho_4280" data-name="Caminho 4280" d="M692.294,895.973c-1.167,0-2.242.071-3.3-.019-1.153-.1-1.414.478-1.413,1.429h5.047Z" transform="translate(-679.795 -893.277)" fill="#fff"/>
      </g>
      <text id="CAPTURA" transform="translate(749 1239)" fill="#1d3d66" font-size="11" font-family="Montserrat-Bold, Montserrat" font-weight="700"><tspan x="-27.956" y="0">CAPTURA</tspan></text>
      <g id="Grupo_6128" data-name="Grupo 6128" transform="translate(720 982.753)">
        <g id="Grupo_6125" data-name="Grupo 6125">
          <path id="Caminho_4281" data-name="Caminho 4281" d="M734.975,745.365q-12.348-9.211-24.681-18.441a.65.65,0,0,0-.942-.01q-14.449,10.816-28.923,21.6a.834.834,0,0,0-.412.748q.015,17.247.009,34.494c0,.133.015.266.028.478h58.74c.271,0,.541.016.813.026V748.768C738.062,747.635,736.51,746.511,734.975,745.365Zm-52.813,4.211,21.926,14.706-21.926,16.97Zm1.72,32.8c.882-.686,1.652-1.287,2.425-1.886q11.541-8.93,23.074-17.87a.6.6,0,0,1,.888.016q12.472,9.674,24.958,19.329c.135.105.262.219.489.409Zm53.594-1.115L715.54,764.284l21.937-14.716Z" transform="translate(-680.016 -726.717)" fill="#fff"/>
        </g>
        <g id="Grupo_6127" data-name="Grupo 6127" transform="translate(20.652 10.226)">
          <g id="Grupo_6126" data-name="Grupo 6126">
            <path id="Caminho_4282" data-name="Caminho 4282" d="M700.244,745.917a9.149,9.149,0,0,1,9.268-9.184c5.188,0,9.017,3.849,9.017,8.138,0,3.787-2.176,5.607-4.456,5.607a3.427,3.427,0,0,1-3.221-1.59,3.97,3.97,0,0,1-3.076,1.548c-2.176,0-3.829-1.653-3.829-4.205,0-2.991,2.134-5.44,4.624-5.44a3.186,3.186,0,0,1,2.8,1.549l.251-1.276,3.242.5-.963,5.4a6.857,6.857,0,0,0-.084.921,1.234,1.234,0,0,0,1.36,1.234c1.36,0,2.469-1.464,2.469-4.247,0-3.87-3.368-7.3-8.138-7.3a8.327,8.327,0,1,0,.063,16.654,9.4,9.4,0,0,0,5.125-1.4l.419.67a10.255,10.255,0,0,1-5.544,1.569A9.078,9.078,0,0,1,700.244,745.917Zm10.586-.712a1.477,1.477,0,0,0-1.527-1.59,2.186,2.186,0,0,0-2.008,2.363,1.48,1.48,0,0,0,1.527,1.633A2.228,2.228,0,0,0,710.83,745.206Z" transform="translate(-700.244 -736.733)" fill="#8298c5"/>
          </g>
        </g>
      </g>
    </g>
  </g>
</svg>
