<svg xmlns="http://www.w3.org/2000/svg" width="498.241" height="510.006" viewBox="0 0 498.241 510.006">
  <defs>
    <style>
      .cls-1 {
        fill: #8298c5;
      }

      .cls-2 {
        fill: #003a70;
      }
    </style>
  </defs>
  <g id="Grupo_16707" data-name="Grupo 16707" transform="translate(-543 -284.954)">
    <path id="Subtração_9" data-name="Subtração 9" class="cls-1" d="M-3458-5201.04c-3.391,0-6.955-.141-11.216-.442l-4.281-.308-9.067-27.406a128.173,128.173,0,0,1-17.151-4.582l-21.58,19.232-3.863-1.875a153.675,153.675,0,0,1-19.359-11.2l-3.549-2.413,5.865-28.176a130.787,130.787,0,0,1-12.627-12.634l-28.176,5.865-2.413-3.549a154.519,154.519,0,0,1-11.2-19.366l-1.875-3.869,19.238-21.574a128.228,128.228,0,0,1-4.581-17.151l-27.407-9.06-.307-4.281c-.306-4.225-.449-7.789-.449-11.216s.143-6.992.449-11.217l.314-4.281,27.406-9.059a128.143,128.143,0,0,1,4.575-17.152l-19.238-21.561,1.875-3.87a154.374,154.374,0,0,1,11.209-19.365l2.414-3.549,28.169,5.858a129.788,129.788,0,0,1,12.627-12.627l-5.865-28.169,3.549-2.419a155.421,155.421,0,0,1,19.359-11.2l3.87-1.879,21.578,19.244a128.284,128.284,0,0,1,17.153-4.583l9.067-27.412,4.279-.309c3.691-.268,7.464-.4,11.214-.4s7.522.136,11.214.4l4.274.315,9.067,27.4a128.37,128.37,0,0,1,17.151,4.582l21.587-19.244,3.863,1.874a153.886,153.886,0,0,1,19.359,11.2l3.548,2.414-5.865,28.175a130.6,130.6,0,0,1,12.629,12.636l28.176-5.865,2.413,3.548a154.449,154.449,0,0,1,11.2,19.366l1.873,3.869-19.238,21.574a128.188,128.188,0,0,1,4.582,17.152l27.406,9.059.308,4.281c.307,4.226.449,7.79.449,11.217s-.149,7.091-.456,11.216l-.308,4.281-27.406,9.06a128.21,128.21,0,0,1-4.581,17.151l19.243,21.567-1.873,3.87a154.286,154.286,0,0,1-11.21,19.366l-2.413,3.548-28.169-5.858a129.72,129.72,0,0,1-12.629,12.627l5.865,28.17-3.548,2.418a155.519,155.519,0,0,1-19.359,11.2l-3.87,1.88-21.58-19.243a127.477,127.477,0,0,1-17.151,4.58l-9.06,27.406-4.281.308C-3450.941-5201.187-3454.611-5201.04-3458-5201.04Zm.5-239.96a86.112,86.112,0,0,0-17.231,1.737,85.037,85.037,0,0,0-16.049,4.982,85.486,85.486,0,0,0-14.524,7.883,86.116,86.116,0,0,0-12.654,10.44,86.165,86.165,0,0,0-10.44,12.654,85.492,85.492,0,0,0-7.883,14.524,85.043,85.043,0,0,0-4.982,16.049A86.143,86.143,0,0,0-3543-5355.5a86.143,86.143,0,0,0,1.737,17.231,85.04,85.04,0,0,0,4.982,16.049,85.5,85.5,0,0,0,7.883,14.523,86.114,86.114,0,0,0,10.44,12.654A86.164,86.164,0,0,0-3505.3-5284.6a85.555,85.555,0,0,0,14.524,7.883,85.1,85.1,0,0,0,16.049,4.982A86.16,86.16,0,0,0-3457.5-5270a86.16,86.16,0,0,0,17.231-1.737,85.12,85.12,0,0,0,16.049-4.982,85.534,85.534,0,0,0,14.523-7.883,86.138,86.138,0,0,0,12.654-10.439,86.148,86.148,0,0,0,10.44-12.654,85.522,85.522,0,0,0,7.883-14.523,85.079,85.079,0,0,0,4.982-16.049A86.143,86.143,0,0,0-3372-5355.5a86.143,86.143,0,0,0-1.737-17.231,85.053,85.053,0,0,0-4.982-16.049,85.51,85.51,0,0,0-7.883-14.524,86.132,86.132,0,0,0-10.44-12.654,86.1,86.1,0,0,0-12.654-10.44,85.456,85.456,0,0,0-14.523-7.883,85.049,85.049,0,0,0-16.049-4.982A86.114,86.114,0,0,0-3457.5-5441Z" transform="translate(4155 5996)"/>
    <path id="União_2" data-name="União 2" class="cls-2" d="M-3612-5216.813a56.5,56.5,0,0,1,56.5-56.5,56.5,56.5,0,0,1,56.5,56.5,56.5,56.5,0,0,1-56.5,56.5A56.5,56.5,0,0,1-3612-5216.813Zm289.9-110.3a39.113,39.113,0,0,1-34.81-42.988,39.113,39.113,0,0,1,42.987-34.812,39.115,39.115,0,0,1,34.811,42.988,39.123,39.123,0,0,1-38.853,35.029A39.548,39.548,0,0,1-3322.1-5327.113Zm-185-100a39.114,39.114,0,0,1-34.812-42.988,39.113,39.113,0,0,1,42.988-34.81,39.114,39.114,0,0,1,34.81,42.987,39.122,39.122,0,0,1-38.852,35.028A39.4,39.4,0,0,1-3507.1-5427.113Z" transform="translate(4253 5857.314)"/>
    <path id="Subtração_7" data-name="Subtração 7" class="cls-1" d="M-3495.25-5285.232h0l-2.968-.1c-2.882-.092-5.418-.256-7.755-.5s-4.787-.6-7.69-1.116l-2.924-.521-4.259-19.525a88.727,88.727,0,0,1-11.478-4.4l-16.249,11.678-2.524-1.569a106.4,106.4,0,0,1-12.517-9.11l-2.269-1.918,6.077-18.974a90.334,90.334,0,0,1-7.78-9.613l-19.824,2-1.4-2.618a107.08,107.08,0,0,1-6.313-14.145l-1.009-2.8,14.805-13.461a88.829,88.829,0,0,1-1.914-12.141l-18.212-8.22.1-2.97c.093-2.88.257-5.417.5-7.754.247-2.354.6-4.8,1.121-7.69l.526-2.924,19.525-4.254a88.819,88.819,0,0,1,4.391-11.479l-11.684-16.235,1.569-2.529a106.825,106.825,0,0,1,9.12-12.522l1.918-2.269,18.97,6.072a89.916,89.916,0,0,1,9.608-7.78l-2-19.819,2.618-1.409a107.728,107.728,0,0,1,14.139-6.312l2.8-1.014,13.466,14.811a88.576,88.576,0,0,1,12.139-1.914l8.227-18.217,2.968.1a107.32,107.32,0,0,1,15.44,1.624l2.92.526,4.259,19.523a88.722,88.722,0,0,1,11.478,4.4l16.253-11.687,2.524,1.569a106.409,106.409,0,0,1,12.519,9.11l2.269,1.917-6.077,18.976a90.223,90.223,0,0,1,7.78,9.611l19.824-2,1.4,2.618a106.845,106.845,0,0,1,6.312,14.143l1.01,2.8-14.805,13.46a88.636,88.636,0,0,1,1.913,12.141l18.214,8.222-.1,2.968c-.093,2.879-.257,5.417-.5,7.755s-.615,4.868-1.126,7.689l-.522,2.924-19.523,4.256a88.856,88.856,0,0,1-4.4,11.477l11.689,16.24-1.571,2.528a106.994,106.994,0,0,1-9.119,12.523l-1.918,2.267-18.97-6.072a89.947,89.947,0,0,1-9.609,7.782l2,19.818-2.618,1.408a107.455,107.455,0,0,1-14.14,6.313l-2.8,1.015-13.464-14.811a88.182,88.182,0,0,1-12.141,1.914l-8.221,18.212Zm.724-166.1a59.051,59.051,0,0,0-39.414,15.1,59,59,0,0,0-13.05,16.8,58.9,58.9,0,0,0-6.329,21.11,58.812,58.812,0,0,0,2.218,23.4,59.16,59.16,0,0,0,4.376,10.57,59.6,59.6,0,0,0,6.272,9.468,59.639,59.639,0,0,0,7.957,8.1,59.18,59.18,0,0,0,9.428,6.479,58.827,58.827,0,0,0,22.427,7.034,60.2,60.2,0,0,0,6.261.33,59.043,59.043,0,0,0,39.413-15.1,58.964,58.964,0,0,0,13.05-16.8,58.918,58.918,0,0,0,6.329-21.11,58.817,58.817,0,0,0-2.218-23.4,59.167,59.167,0,0,0-4.377-10.57,59.619,59.619,0,0,0-6.272-9.467,59.6,59.6,0,0,0-7.957-8.1,59.2,59.2,0,0,0-9.429-6.478,58.81,58.81,0,0,0-22.427-7.034A60.153,60.153,0,0,0-3494.526-5451.333Z" transform="translate(4244.442 5783.44)"/>
    <path id="Subtração_8" data-name="Subtração 8" class="cls-1" d="M-3495.25-5285.232h0l-2.968-.1c-2.882-.092-5.418-.256-7.755-.5s-4.787-.6-7.69-1.116l-2.924-.521-4.259-19.525a88.727,88.727,0,0,1-11.478-4.4l-16.249,11.678-2.524-1.569a106.4,106.4,0,0,1-12.517-9.11l-2.269-1.918,6.077-18.974a90.334,90.334,0,0,1-7.78-9.613l-19.824,2-1.4-2.618a107.08,107.08,0,0,1-6.313-14.145l-1.009-2.8,14.805-13.461a88.829,88.829,0,0,1-1.914-12.141l-18.212-8.22.1-2.97c.093-2.88.257-5.417.5-7.754.247-2.354.6-4.8,1.121-7.69l.526-2.924,19.525-4.254a88.819,88.819,0,0,1,4.391-11.479l-11.684-16.235,1.569-2.529a106.825,106.825,0,0,1,9.12-12.522l1.918-2.269,18.97,6.072a89.916,89.916,0,0,1,9.608-7.78l-2-19.819,2.618-1.409a107.728,107.728,0,0,1,14.139-6.312l2.8-1.014,13.466,14.811a88.576,88.576,0,0,1,12.139-1.914l8.227-18.217,2.968.1a107.32,107.32,0,0,1,15.44,1.624l2.92.526,4.259,19.523a88.722,88.722,0,0,1,11.478,4.4l16.253-11.687,2.524,1.569a106.409,106.409,0,0,1,12.519,9.11l2.269,1.917-6.077,18.976a90.223,90.223,0,0,1,7.78,9.611l19.824-2,1.4,2.618a106.845,106.845,0,0,1,6.312,14.143l1.01,2.8-14.805,13.46a88.636,88.636,0,0,1,1.913,12.141l18.214,8.222-.1,2.968c-.093,2.879-.257,5.417-.5,7.755s-.615,4.868-1.126,7.689l-.522,2.924-19.523,4.256a88.856,88.856,0,0,1-4.4,11.477l11.689,16.24-1.571,2.528a106.994,106.994,0,0,1-9.119,12.523l-1.918,2.267-18.97-6.072a89.947,89.947,0,0,1-9.609,7.782l2,19.818-2.618,1.408a107.455,107.455,0,0,1-14.14,6.313l-2.8,1.015-13.464-14.811a88.182,88.182,0,0,1-12.141,1.914l-8.221,18.212Zm.724-166.1a59.051,59.051,0,0,0-39.414,15.1,59,59,0,0,0-13.05,16.8,58.9,58.9,0,0,0-6.329,21.11,58.812,58.812,0,0,0,2.218,23.4,59.16,59.16,0,0,0,4.376,10.57,59.6,59.6,0,0,0,6.272,9.468,59.639,59.639,0,0,0,7.957,8.1,59.18,59.18,0,0,0,9.428,6.479,58.827,58.827,0,0,0,22.427,7.034,60.2,60.2,0,0,0,6.261.33,59.043,59.043,0,0,0,39.413-15.1,58.964,58.964,0,0,0,13.05-16.8,58.918,58.918,0,0,0,6.329-21.11,58.817,58.817,0,0,0-2.218-23.4,59.167,59.167,0,0,0-4.377-10.57,59.619,59.619,0,0,0-6.272-9.467,59.6,59.6,0,0,0-7.957-8.1,59.2,59.2,0,0,0-9.429-6.478,58.81,58.81,0,0,0-22.427-7.034A60.153,60.153,0,0,0-3494.526-5451.333Z" transform="translate(4429.442 5883.44)"/>
  </g>
</svg>
