<svg id="Grupo_16732" data-name="Grupo 16732" xmlns="http://www.w3.org/2000/svg" width="138.574" height="138.608" viewBox="0 0 138.574 138.608">
  <g id="Grupo_6183" data-name="Grupo 6183">
    <path id="Caminho_4375" data-name="Caminho 4375" d="M991.868,829.06c-2.843-3.59-5.639-7.217-8.493-10.8a1.747,1.747,0,0,1-.23-2.153c.963-2.008,1.8-4.08,2.6-6.161a1.507,1.507,0,0,1,1.361-1.131c4.907-.73,9.807-1.514,14.709-2.279,2.647-.414,3.559-1.471,3.561-4.171q.005-9.295,0-18.59c0-2.611-.965-3.7-3.536-4.075-4.795-.7-9.585-1.435-14.385-2.1a1.712,1.712,0,0,1-1.609-1.3,36.21,36.21,0,0,0-2.329-5.644,3.148,3.148,0,0,1,.443-4.077c2.672-3.281,5.2-6.68,7.784-10.034,1.3-1.69,1.367-2.634.182-4.392a18.74,18.74,0,0,0-2.114-2.737c-4.133-4.19-8.286-8.363-12.5-12.475-1.448-1.416-3.073-1.376-4.7-.149-3.9,2.943-7.815,5.874-11.691,8.85a1.61,1.61,0,0,1-1.947.215c-1.984-.926-4.01-1.774-6.068-2.518a1.655,1.655,0,0,1-1.248-1.53c-.7-4.873-1.443-9.741-2.147-14.613-.361-2.5-1.447-3.481-4-3.487q-7.737-.014-15.473,0c-1.348,0-2.7-.029-4.041.013a3.07,3.07,0,0,0-3.2,2.467,10.782,10.782,0,0,0-.37,1.573c-.684,4.679-1.378,9.357-2,14.043a1.611,1.611,0,0,1-1.195,1.554c-2.093.766-4.168,1.6-6.18,2.552a1.745,1.745,0,0,1-2.148-.271c-3.308-2.642-6.656-5.232-9.988-7.844-3.159-2.478-4.022-2.548-7.138-.03a95.921,95.921,0,0,0-13.419,13.477c-1.838,2.213-1.737,3.528.087,5.826,2.822,3.556,5.584,7.162,8.417,10.709a1.682,1.682,0,0,1,.163,2.061c-.94,2.02-1.8,4.081-2.589,6.165a1.6,1.6,0,0,1-1.479,1.161c-4.755.7-9.493,1.547-14.261,2.155a4.339,4.339,0,0,0-3.9,2.7v21.711a4.073,4.073,0,0,0,3.576,2.449c4.875.682,9.732,1.495,14.587,2.312a1.763,1.763,0,0,1,1.142.852q1.674,3.671,3.178,7.418a1.621,1.621,0,0,1-.118,1.315c-.867,1.269-1.836,2.469-2.779,3.686q-3.074,3.971-6.161,7.932a2.971,2.971,0,0,0-.134,3.919,20.573,20.573,0,0,0,1.8,2.4c4.313,4.39,8.637,8.771,13.026,13.084,1.385,1.361,3.032,1.3,4.609.107,3.9-2.942,7.82-5.866,11.689-8.851a1.711,1.711,0,0,1,2.06-.191c2.026.924,4.1,1.757,6.179,2.55a1.327,1.327,0,0,1,.99,1.212c.724,4.987,1.492,9.967,2.236,14.951.355,2.382,1.445,3.41,3.819,3.418q9.584.029,19.168-.005c2.359-.009,3.425-.78,3.822-3.151.852-5.08,1.563-10.184,2.274-15.287a1.36,1.36,0,0,1,1.053-1.262c2.159-.809,4.305-1.657,6.414-2.587a1.54,1.54,0,0,1,1.852.2c3.37,2.688,6.779,5.326,10.173,7.983,3.186,2.493,4,2.554,7.116.008a107.415,107.415,0,0,0,13.53-13.7C993.605,832.493,993.526,831.155,991.868,829.06Z" transform="translate(-866.802 -723.702)" fill="#1d3d66"/>
  </g>
  <text id="_" data-name=" " transform="translate(72.587 114.421)" fill="#fff" font-size="1" font-family="Arial-BoldMT, Arial" font-weight="700"><tspan x="0" y="0"> </tspan></text>
  <rect id="Retângulo_128" data-name="Retângulo 128" width="1.513" height="7.931" transform="translate(41.054 46.039)" fill="#fff"/>
  <path id="Caminho_4376" data-name="Caminho 4376" d="M897.785,801.305h-1.513V788.916h12.389v1.513H897.785Z" transform="translate(-870.552 -732.001)" fill="#fff"/>
  <path id="Caminho_4377" data-name="Caminho 4377" d="M931.339,801.305h-1.513V790.429H918.95v-1.513h12.389Z" transform="translate(-873.438 -732.001)" fill="#fff"/>
  <rect id="Retângulo_129" data-name="Retângulo 129" width="7.931" height="1.513" transform="translate(30.178 72.249)" fill="#fff"/>
  <rect id="Retângulo_130" data-name="Retângulo 130" width="7.931" height="1.513" transform="translate(45.512 72.249)" fill="#fff"/>
  <rect id="Retângulo_131" data-name="Retângulo 131" width="1.513" height="7.931" transform="translate(41.054 61.373)" fill="#fff"/>
  <path id="Caminho_4378" data-name="Caminho 4378" d="M918.517,776.021H909.6V767.1h8.916Zm-7.4-1.513H917v-5.89h-5.889Z" transform="translate(-872.249 -729.225)" fill="#8298c5"/>
  <path id="Caminho_4379" data-name="Caminho 4379" d="M918.517,793.59H909.6v-8.915h8.916Zm-7.4-1.513H917v-5.89h-5.889Z" transform="translate(-872.249 -731.461)" fill="#8298c5"/>
  <path id="Caminho_4380" data-name="Caminho 4380" d="M918.517,811.16H909.6v-8.915h8.916Zm-7.4-1.513H917v-5.89h-5.889Z" transform="translate(-872.249 -733.697)" fill="#8298c5"/>
  <path id="Caminho_4381" data-name="Caminho 4381" d="M900.947,811.16h-8.916v-8.915h8.916Zm-7.4-1.513h5.889v-5.89h-5.889Z" transform="translate(-870.013 -733.697)" fill="#8298c5"/>
  <path id="Caminho_4382" data-name="Caminho 4382" d="M936.087,811.16h-8.916v-8.915h8.916Zm-7.4-1.513h5.889v-5.89h-5.889Z" transform="translate(-874.484 -733.697)" fill="#8298c5"/>
  <path id="Caminho_4383" data-name="Caminho 4383" d="M977.879,770.639H960.826a9.734,9.734,0,0,0-9.723,9.723v17.052a9.734,9.734,0,0,0,9.723,9.723h17.052a9.734,9.734,0,0,0,9.723-9.723V780.362A9.734,9.734,0,0,0,977.879,770.639Zm8.21,9.723v7.77h-15.98v-15.98h7.77A8.219,8.219,0,0,1,986.089,780.362Zm-25.262-8.21h7.77v15.98H952.615v-7.77A8.219,8.219,0,0,1,960.826,772.152Zm-8.211,25.262v-7.77H968.6v15.981h-7.77A8.22,8.22,0,0,1,952.615,797.415Zm25.263,8.211h-7.77V789.645h15.98v7.77A8.219,8.219,0,0,1,977.879,805.625Z" transform="translate(-877.53 -729.675)" fill="#fff"/>
  <g id="Grupo_6184" data-name="Grupo 6184" transform="translate(80.715 48.051)">
    <path id="Caminho_4384" data-name="Caminho 4384" d="M961.375,782.819h-2.089v-1.994h2.089v-2.066h2.066v2.066h2.089v1.994h-2.089v2.066h-2.066Z" transform="translate(-959.286 -778.759)" fill="#8298c5"/>
  </g>
  <g id="Grupo_6185" data-name="Grupo 6185" transform="translate(97.963 50.591)">
    <path id="Caminho_4385" data-name="Caminho 4385" d="M979.049,781.67h3.893v1.982h-3.893Z" transform="translate(-979.049 -781.67)" fill="#8298c5"/>
  </g>
  <g id="Grupo_6186" data-name="Grupo 6186" transform="translate(80.158 64.835)">
    <path id="Caminho_4386" data-name="Caminho 4386" d="M961.255,801.3l-2.5-3.3h2.422l1.347,1.892,1.357-1.892h2.368l-2.5,3.285,2.607,3.439h-2.423l-1.455-2.026-1.466,2.026h-2.368Z" transform="translate(-958.648 -797.991)" fill="#8298c5"/>
  </g>
  <g id="Grupo_6187" data-name="Grupo 6187" transform="translate(96.781 64.818)">
    <path id="Caminho_4387" data-name="Caminho 4387" d="M977.695,797.971h6.1v1.958h-6.1Zm0,3.169h6.1v1.947h-6.1Z" transform="translate(-977.695 -797.971)" fill="#8298c5"/>
  </g>
  <g id="mAjoeo" transform="translate(53.443 87.519)">
    <g id="Grupo_6188" data-name="Grupo 6188">
      <path id="Caminho_4388" data-name="Caminho 4388" d="M935.538,823.982a14.85,14.85,0,0,1,5.51.945,4.987,4.987,0,0,1,1.354.853,1.051,1.051,0,0,1,0,1.695,4.721,4.721,0,0,1-2.2,1.142,17.754,17.754,0,0,1-9.859-.107,4.349,4.349,0,0,1-1.861-1.022,1.092,1.092,0,0,1-.012-1.731,5.176,5.176,0,0,1,2.327-1.179A17.444,17.444,0,0,1,935.538,823.982Z" transform="translate(-928.04 -823.982)" fill="#fff"/>
      <path id="Caminho_4389" data-name="Caminho 4389" d="M945.037,847.407a14.862,14.862,0,0,1-5.507-.937,5.048,5.048,0,0,1-1.361-.842,1.057,1.057,0,0,1-.012-1.718,4.717,4.717,0,0,1,2.2-1.14,17.771,17.771,0,0,1,9.827.1,4.428,4.428,0,0,1,1.867,1.012,1.1,1.1,0,0,1,0,1.777,5.255,5.255,0,0,1-2.3,1.153A17.491,17.491,0,0,1,945.037,847.407Z" transform="translate(-929.271 -826.291)" fill="#fff"/>
      <path id="Caminho_4390" data-name="Caminho 4390" d="M954.8,831.246a15.8,15.8,0,0,1,5.077.742,6.9,6.9,0,0,1,1.611.8,1.207,1.207,0,0,1,.017,2.179,6.614,6.614,0,0,1-2.661,1.1,17.786,17.786,0,0,1-8.966-.25,6.642,6.642,0,0,1-1.821-.895,1.175,1.175,0,0,1-.043-2.077,3.443,3.443,0,0,1,.406-.283,8.056,8.056,0,0,1,2.493-.917A18.712,18.712,0,0,1,954.8,831.246Z" transform="translate(-930.504 -824.906)" fill="#fff"/>
      <path id="Caminho_4391" data-name="Caminho 4391" d="M942.814,829.17c0,.5.022.932-.005,1.355a1.411,1.411,0,0,1-.672,1.013,6.592,6.592,0,0,1-2.63,1.09,17.91,17.91,0,0,1-8.716-.161,9.148,9.148,0,0,1-1.974-.881,1.423,1.423,0,0,1-.771-1.457c.028-.291,0-.586,0-.949a3.618,3.618,0,0,0,2.252,1.587,16.809,16.809,0,0,0,6.32.707,14.57,14.57,0,0,0,3.884-.687,8.5,8.5,0,0,0,1-.414A2.721,2.721,0,0,0,942.814,829.17Z" transform="translate(-928.038 -824.642)" fill="#fff"/>
      <path id="Caminho_4392" data-name="Caminho 4392" d="M947.417,836.432a3.208,3.208,0,0,0,1.8,1.429,13.553,13.553,0,0,0,4.441.881,16.713,16.713,0,0,0,6.222-.7,5.889,5.889,0,0,0,1.285-.583,8.645,8.645,0,0,0,1.006-.85,11.5,11.5,0,0,1-.01,1.254,1.406,1.406,0,0,1-.668.943,6.846,6.846,0,0,1-2.726,1.111,18.5,18.5,0,0,1-8.368-.109,6.306,6.306,0,0,1-2.282-.994,1.507,1.507,0,0,1-.7-1.4C947.438,837.12,947.417,836.821,947.417,836.432Z" transform="translate(-930.503 -825.566)" fill="#fff"/>
      <path id="Caminho_4393" data-name="Caminho 4393" d="M937.735,847.343a3.655,3.655,0,0,0,2.26,1.586,16.789,16.789,0,0,0,6.288.709,14.084,14.084,0,0,0,3.914-.7,6.285,6.285,0,0,0,1.285-.585,8.635,8.635,0,0,0,1.005-.85,11.518,11.518,0,0,1-.01,1.255,1.4,1.4,0,0,1-.669.943,6.713,6.713,0,0,1-2.664,1.093,17.7,17.7,0,0,1-9.091-.3,7.522,7.522,0,0,1-1.669-.836,1.341,1.341,0,0,1-.654-1.319C937.756,848.034,937.735,847.724,937.735,847.343Z" transform="translate(-929.271 -826.955)" fill="#fff"/>
      <path id="Caminho_4394" data-name="Caminho 4394" d="M928.051,836.429a3.2,3.2,0,0,0,1.781,1.424,12.437,12.437,0,0,0,3.683.833,18.052,18.052,0,0,0,6.35-.445,11.015,11.015,0,0,0,1.546-.56,2.634,2.634,0,0,0,1.4-1.25c0,.515.029.952-.008,1.383a1.422,1.422,0,0,1-.688,1,6.841,6.841,0,0,1-2.635,1.079,18.307,18.307,0,0,1-8.654-.143,5.9,5.9,0,0,1-2.089-.946,1.487,1.487,0,0,1-.692-1.375C928.072,837.127,928.051,836.817,928.051,836.429Z" transform="translate(-928.039 -825.566)" fill="#fff"/>
      <path id="Caminho_4395" data-name="Caminho 4395" d="M942.82,832.787c0,.4-.021.7,0,.991a1.517,1.517,0,0,1-.727,1.423,6.768,6.768,0,0,1-2.6,1.062,17.708,17.708,0,0,1-9.148-.3,7.349,7.349,0,0,1-1.637-.824,1.346,1.346,0,0,1-.662-1.314c.024-.313,0-.631,0-.991a4.208,4.208,0,0,0,2.716,1.713,17.293,17.293,0,0,0,5.845.565,14.253,14.253,0,0,0,3.911-.7,9.467,9.467,0,0,0,1.2-.529A2.378,2.378,0,0,0,942.82,832.787Z" transform="translate(-928.039 -825.102)" fill="#fff"/>
      <path id="Caminho_4396" data-name="Caminho 4396" d="M937.734,850.974a3.7,3.7,0,0,0,2.3,1.6,16.768,16.768,0,0,0,6.257.7,13.5,13.5,0,0,0,4.44-.889,3.146,3.146,0,0,0,1.765-1.405c0,.506.031.951-.009,1.39a1.411,1.411,0,0,1-.676.976,6.9,6.9,0,0,1-2.7,1.1,18.448,18.448,0,0,1-8.466-.119,6.289,6.289,0,0,1-2.164-.94,1.545,1.545,0,0,1-.752-1.477C937.757,851.622,937.734,851.334,937.734,850.974Z" transform="translate(-929.271 -827.417)" fill="#fff"/>
      <path id="Caminho_4397" data-name="Caminho 4397" d="M963.153,840.251c0,.333.016.751,0,1.166a1.417,1.417,0,0,1-.678,1.044,6.751,6.751,0,0,1-2.565,1.076,17.3,17.3,0,0,1-3.923.455.558.558,0,0,1-.1-.005l-.862-1.558c.078,0,.2,0,.331,0a16.353,16.353,0,0,0,5.5-.727,6.185,6.185,0,0,0,1.313-.6A8.261,8.261,0,0,0,963.153,840.251Z" transform="translate(-931.472 -826.052)" fill="#fff"/>
      <path id="Caminho_4398" data-name="Caminho 4398" d="M936.188,842.412,935.306,844c-.64-.045-1.394-.077-2.143-.157a11.223,11.223,0,0,1-3.649-.932,4.721,4.721,0,0,1-.787-.475,1.445,1.445,0,0,1-.68-1.342c.026-.312,0-.629,0-.99a4.255,4.255,0,0,0,2.746,1.722,16.6,16.6,0,0,0,4.886.59C935.866,842.41,936.048,842.412,936.188,842.412Z" transform="translate(-928.039 -826.033)" fill="#fff"/>
      <path id="Caminho_4399" data-name="Caminho 4399" d="M935.409,846.052v1.564c-.55-.026-1.094-.037-1.636-.081a14.043,14.043,0,0,1-3.454-.669,4.833,4.833,0,0,1-1.808-.989,1.34,1.34,0,0,1-.463-1.083c.015-.337,0-.675,0-1.056A4.545,4.545,0,0,0,931,845.51,17.134,17.134,0,0,0,935.409,846.052Z" transform="translate(-928.039 -826.496)" fill="#fff"/>
      <path id="Caminho_4400" data-name="Caminho 4400" d="M935.414,849.774a.173.173,0,0,1,.008.065c0,.449,0,.9,0,1.361a.446.446,0,0,1-.127.039,14.657,14.657,0,0,1-5.483-.938,6.31,6.31,0,0,1-1.285-.782,1.21,1.21,0,0,1-.48-1.1c.019-.328,0-.659,0-1.011.93,1.32,2.362,1.652,3.785,1.924C933,849.552,934.185,849.627,935.414,849.774Z" transform="translate(-928.039 -826.963)" fill="#fff"/>
      <path id="Caminho_4401" data-name="Caminho 4401" d="M963.265,843.753c0,.454.023.88-.006,1.3a1.418,1.418,0,0,1-.669,1.015,6.611,6.611,0,0,1-2.4,1.039,17.763,17.763,0,0,1-4.266.5v-1.54c.539-.029,1.075-.044,1.609-.09a12.5,12.5,0,0,0,4.279-1A3.025,3.025,0,0,0,963.265,843.753Z" transform="translate(-931.586 -826.498)" fill="#fff"/>
      <path id="Caminho_4402" data-name="Caminho 4402" d="M963.268,847.319c0,.4-.02.712,0,1.018a1.477,1.477,0,0,1-.695,1.37,6.885,6.885,0,0,1-2.5,1.056,17.43,17.43,0,0,1-3.884.466h-.278v-1.535c.565-.031,1.121-.048,1.676-.1a12.177,12.177,0,0,0,4.326-1.044A2.717,2.717,0,0,0,963.268,847.319Z" transform="translate(-931.586 -826.952)" fill="#fff"/>
    </g>
  </g>
</svg>
