<svg id="Grupo_16733" data-name="Grupo 16733" xmlns="http://www.w3.org/2000/svg" width="77.969" height="91.981" viewBox="0 0 77.969 91.981">
  <g id="Grupo_6231" data-name="Grupo 6231">
    <g id="l5Ve7F">
      <g id="Grupo_6230" data-name="Grupo 6230">
        <path id="Caminho_4543" data-name="Caminho 4543" d="M1693.825,535c0-2.208-.069-4.42.028-6.623a10.1,10.1,0,0,1,.64-3.313,26.219,26.219,0,0,1,48.853.777,4.926,4.926,0,0,1,.335,1.658q.038,7.421,0,14.844a6.007,6.007,0,0,1-.376,2.02,26.221,26.221,0,0,1-49,.249,7.651,7.651,0,0,1-.461-2.5c-.06-2.37-.021-4.743-.021-7.115Z" transform="translate(-1679.766 -498.159)" fill="#8298c5"/>
        <path id="Caminho_4544" data-name="Caminho 4544" d="M1749.68,530.241a33.91,33.91,0,0,1,4.614,1.848,12.437,12.437,0,0,1-.166,21.69,1.946,1.946,0,0,0-1.117,1.7c-1,10.083-7.15,16.9-17.12,18.975-1.158.241-2.337.38-3.51.541-1.221.168-2.44.123-3.324,1.356a2.964,2.964,0,0,1-2.085.783c-2.533.092-5.072.061-7.607.026a3.4,3.4,0,0,1-3.353-3.249,3.347,3.347,0,0,1,3.1-3.492c2.695-.109,5.4-.087,8.1.008a2.887,2.887,0,0,1,1.945.872,2.4,2.4,0,0,0,2.471.8c4.768-.511,9.23-1.793,12.89-5.078a15.863,15.863,0,0,0,5.408-10.944c.212-3.028-.275-6.1-.313-9.154-.065-5.113-.023-10.227-.02-15.34C1749.594,531.26,1749.633,530.938,1749.68,530.241Z" transform="translate(-1682.593 -500.894)" fill="#1d3d66"/>
        <path id="Caminho_4545" data-name="Caminho 4545" d="M1685.994,524.28a32.079,32.079,0,0,1,63.55.017c-1.354-.172-2.69-.277-3.989-.555-.287-.061-.547-.71-.644-1.128a27.408,27.408,0,0,0-9.042-14.947,27.81,27.81,0,0,0-45.188,14.836c-.213.931-.514,1.416-1.538,1.435C1688.1,523.958,1687.06,524.157,1685.994,524.28Z" transform="translate(-1678.773 -496.614)" fill="#1d3d66"/>
        <path id="Caminho_4546" data-name="Caminho 4546" d="M1688.634,555.308a12.51,12.51,0,0,1-10.889-13.185c.364-5.889,5.6-11.436,10.889-11.462Z" transform="translate(-1677.72 -500.947)" fill="#1d3d66"/>
        <path id="Caminho_4547" data-name="Caminho 4547" d="M1730.708,572.57c1.375-.47,2.82-1,4.29-1.439a1.814,1.814,0,0,1,1.14.147,19.7,19.7,0,0,1,2.893,1.56C1736.2,573.73,1733.4,575.174,1730.708,572.57Z" transform="translate(-1684.463 -506.092)" fill="#8298c5"/>
      </g>
    </g>
  </g>
  <path id="Caminho_4548" data-name="Caminho 4548" d="M1753.225,598.084a53.906,53.906,0,0,0-12.019-19.054,31.249,31.249,0,0,1-12.944,4.3,8.725,8.725,0,0,0-1.841.788,13.505,13.505,0,0,1-3.62,1.272c-2.726.192-5.477.111-8.216.04a6.345,6.345,0,0,1-5.814-4.511c-.912-2.96.154-5.545,3.267-7.808-1.916-.573-3.774-1.03-5.551-1.7a3.091,3.091,0,0,0-2.647.135c-7.616,3.567-13.327,9.214-17.752,16.249a55.568,55.568,0,0,0-5.063,10.294Z" transform="translate(-1678.141 -506.102)" fill="#8298c5"/>
</svg>
