<svg xmlns="http://www.w3.org/2000/svg" width="665.716" height="159.965" viewBox="0 0 665.716 159.965"><g transform="translate(-295.45 -275)"><path d="M611.021,361.726l-64.482-64.741-73.775,73.48a21.148,21.148,0,0,0,15.047,6.268l117.312.234C612.868,376.92,616.487,367.213,611.021,361.726Z" transform="translate(-171.105 57.999)" fill="#003a70"/><path d="M609.236,266.083l-117.312-.236A21.3,21.3,0,0,0,470.583,287.1l-.236,117.145a21.019,21.019,0,0,0,6.208,15.068L615.072,281.349C620.559,275.883,616.98,266.163,609.236,266.083Z" transform="translate(-174.897 9.153)" fill="#8298c5"/><g transform="translate(509.925 314.992)"><path d="M578.9,330.1l-5.633,6.352V361.4H553.843V281.416H573.27V314.75l24.464-33.334H622.2L592.219,315.23l32.5,46.169H600.369Z" transform="translate(-553.843 -281.416)" fill="#003a70"/><path d="M631.941,292.845q8.149,4.62,8.151,16.612l-.118,28.661q-.123,7.552-7.552,10.973t-21.7,3.414q-26.632,0-26.63-20.747,0-8.746,5.456-13.671,5.464-4.909,16.255-4.914a35.858,35.858,0,0,1,8.877,1.138,32.4,32.4,0,0,1,7.67,2.938v-3.835q0-10.434-13.432-10.434a32.843,32.843,0,0,0-10.611,1.855,28.2,28.2,0,0,0-8.7,4.5V293.508c2.165-1.441,5.456-2.677,9.895-3.719a63.007,63.007,0,0,1,14.333-1.557A36.145,36.145,0,0,1,631.941,292.845Zm-11.993,46.229a3.265,3.265,0,0,0,2.4-3.357v-9.35a28.314,28.314,0,0,0-9.24-1.441q-5.868,0-8.572,1.739a6.04,6.04,0,0,0-2.695,5.458,6.758,6.758,0,0,0,2.823,5.633,10.6,10.6,0,0,0,6.65,2.16C615.476,339.916,618.345,339.634,619.948,339.074Z" transform="translate(-506.392 -270.724)" fill="#003a70"/><path d="M663.617,295.752q8.03,7.621,8.035,25.363,0,14.275-7.19,22.908-7.205,8.631-19.674,8.631-9.12,0-15.225-3.239V372.56H612.056V303.005q0-7.309,8.094-11.032t20.809-3.835Q655.573,288.138,663.617,295.752ZM650.3,334.184q3.479-4.073,3.478-13.665,0-8.635-3.057-13.016t-10.493-4.374q-10.661,0-10.668,4.074v28.546a15.847,15.847,0,0,0,4.791,1.914,22.953,22.953,0,0,0,5.163.6Q646.827,338.266,650.3,334.184Z" transform="translate(-462.525 -270.871)" fill="#003a70"/><path d="M724.771,281.416V361.4h-19.43V307.321l-23.5,31.294-22.908-31.179V361.4H640.349V281.416h19.792l22.425,31.179,22.895-31.179Z" transform="translate(-418.142 -281.416)" fill="#003a70"/><path d="M687.222,345.171q-7.621-6.234-7.611-18.708V288.932h17.87v36.1q0,5.753,2.576,8.572t8.21,2.815q5.637,0,8.22-2.815c1.711-1.88,2.576-4.737,2.576-8.572v-36.1h16.781v37.531q0,12.6-7.249,18.767t-20.447,6.178Q694.833,351.408,687.222,345.171Z" transform="translate(-356.553 -269.626)" fill="#003a70"/><path d="M758.939,292.536a13.409,13.409,0,0,1,6.9,12.055v46.766q0,12.588-8.032,19.306T734.9,377.377a73.742,73.742,0,0,1-13.432-1.076,30.6,30.6,0,0,1-8.993-2.882v-15.71a52.221,52.221,0,0,0,9.72,3.239,49.221,49.221,0,0,0,11.991,1.564q7.783,0,10.973-3.121t3.175-8.754v-3.478q-6.115,5.279-15.353,5.276-12.7-.6-19.663-8.094t-6.956-22.127q0-18.945,8.7-26.442,8.677-7.49,25.235-7.5Q752.047,288.277,758.939,292.536Zm-31.173,41.728a11.614,11.614,0,0,0,9.779,4.86,21.243,21.243,0,0,0,10.786-2.756V308.549q0-6.122-9.592-6.119-14.634,0-14.626,18.708Q724.113,329.411,727.766,334.264Z" transform="translate(-314.595 -270.653)" fill="#003a70"/><path d="M578.9,330.1l-5.633,6.352V361.4H553.843V281.416H573.27V314.75l24.464-33.334H622.2L592.219,315.23l32.5,46.169H600.369Z" transform="translate(-553.843 -281.416)" fill="#003a70"/></g></g></svg>