<svg xmlns="http://www.w3.org/2000/svg" width="1121" height="1136.392" viewBox="0 0 1121 1136.392">
  <g id="Grupo_16718" data-name="Grupo 16718" transform="translate(-5647 -5452.608)">
    <path id="Caminho_4289" data-name="Caminho 4289" d="M-.021,0h1012.8l-108.2,265h-1012.8Z" transform="translate(5755.217 6049)" fill="#1d3d66"/>
    <path id="Caminho_4290" data-name="Caminho 4290" d="M-.021,0h1012.8l-108.2,265h-1012.8Z" transform="translate(5755.217 6324)" fill="#8298c5"/>
    <path id="Caminho_4291" data-name="Caminho 4291" d="M-.021,0h1012.8l-108.2,265h-1012.8Z" transform="translate(5755.217 5774)" fill="#8298c5"/>
    <text id="O_QUE" data-name="O QUE" transform="translate(6208 5664.608)" fill="#1d3d66" font-size="219" font-family="Montserrat-ExtraBold, Montserrat" font-weight="800"><tspan x="-376.79" y="0">O QUE</tspan></text>
    <text id="RESOLVEMOS" transform="translate(6208 5774.413)" fill="#8298c5" font-size="102" font-family="Montserrat-ExtraBold, Montserrat" font-weight="800"><tspan x="-374.238" y="0">RESOLVEMOS</tspan></text>
    <rect id="Retângulo_89" data-name="Retângulo 89" width="141.152" height="141.152" rx="14.173" transform="translate(6287.088 6336.485)" fill="#1d3d66"/>
    <g id="Grupo_6132" data-name="Grupo 6132" transform="translate(6320.73 6371.346)">
      <path id="Caminho_4182" data-name="Caminho 4182" d="M852.246,882.521h-1.758q-4.415,0-8.829,0a2.45,2.45,0,0,1-2.586-2.587q-.011-13.392,0-26.782a2.427,2.427,0,0,1,2.543-2.547q7.837-.009,15.672,0a2.382,2.382,0,0,1,2.531,2.384,2.355,2.355,0,0,1-2.488,2.336c-4.218.016-8.437.009-12.656.012h-.792v22.4h8.332c-.552-.668-1.042-1.222-1.489-1.808a2.353,2.353,0,0,1,1.129-3.752,2.293,2.293,0,0,1,2.421.671c1.681,1.852,3.367,3.7,4.977,5.614a2.764,2.764,0,0,1-.134,3.649c-1.5,1.847-3.126,3.585-4.73,5.343a2.4,2.4,0,1,1-3.585-3.19C851.236,883.729,851.679,883.2,852.246,882.521Z" transform="translate(-839.068 -815.569)" fill="#8298c5"/>
      <path id="Caminho_4183" data-name="Caminho 4183" d="M892.268,854.539H900.6V832.174h-.784q-6.329,0-12.659-.006a2.438,2.438,0,0,1-2.41-1.7,2.232,2.232,0,0,1,.925-2.575,2.875,2.875,0,0,1,1.436-.446q7.874-.045,15.749-.012a2.329,2.329,0,0,1,2.548,2.573q.009,13.247,0,26.5a2.422,2.422,0,0,1-2.653,2.646c-3.214.014-6.427.007-9.641.009h-.886c.566.689,1.036,1.237,1.481,1.8a2.457,2.457,0,0,1-1.41,3.972,2.223,2.223,0,0,1-2.18-.784q-2.477-2.721-4.9-5.494a2.782,2.782,0,0,1,.043-3.451q2.463-2.784,4.935-5.558a2.355,2.355,0,0,1,3.62,3.007C893.357,853.265,892.852,853.834,892.268,854.539Z" transform="translate(-831.539 -819.397)" fill="#8298c5"/>
      <path id="Caminho_4184" data-name="Caminho 4184" d="M872.619,843.883q5.224,0,10.449,0a2.293,2.293,0,0,1,2.615,2.617q.012,7.689,0,15.377a2.475,2.475,0,0,1-2.582,2.6q-10.449.007-20.9,0a2.479,2.479,0,0,1-2.654-2.679c0-5.052.027-10.1-.015-15.157a2.63,2.63,0,0,1,2.783-2.784C865.751,843.938,869.186,843.883,872.619,843.883Zm8.266,4.777h-16.5v10.986h16.5Z" transform="translate(-835.686 -816.682)" fill="#8298c5"/>
      <path id="Caminho_4185" data-name="Caminho 4185" d="M872.6,841.132q-5.221,0-10.444,0a2.421,2.421,0,0,1-2.6-2.618q-.01-7.65,0-15.3a2.468,2.468,0,0,1,2.652-2.673q10.408-.009,20.817,0a2.4,2.4,0,0,1,2.658,2.635q.012,7.687,0,15.373a2.409,2.409,0,0,1-2.632,2.586Q877.824,841.137,872.6,841.132Zm-8.239-4.77h16.5V825.346h-16.5Z" transform="translate(-835.684 -820.536)" fill="#8298c5"/>
      <path id="Caminho_4186" data-name="Caminho 4186" d="M872.706,866.252q5.186,0,10.372,0a2.34,2.34,0,0,1,2.6,2.583q.016,7.687,0,15.373a2.454,2.454,0,0,1-2.615,2.636q-10.443.009-20.889,0a2.464,2.464,0,0,1-2.623-2.63q-.009-7.648,0-15.3a2.43,2.43,0,0,1,2.635-2.664Q867.447,866.248,872.706,866.252ZM864.39,871v11.057h16.473V871Z" transform="translate(-835.684 -812.982)" fill="#8298c5"/>
    </g>
    <text id="Erros" transform="translate(5885.873 5990.021)" fill="#fff" font-size="18" font-family="Montserrat-ExtraBold, Montserrat" font-weight="800"><tspan x="0" y="0">Erros</tspan></text>
    <rect id="Retângulo_90" data-name="Retângulo 90" width="141.152" height="141.152" rx="14.173" transform="translate(5840.807 5824.957)" fill="#1d3d66"/>
    <g id="Grupo_6133" data-name="Grupo 6133" transform="translate(5873.005 5864.011)">
      <path id="Caminho_4187" data-name="Caminho 4187" d="M480.772,416.119l-24.865-30.982h24.108l13.4,17.743,13.514-17.743H530.5l-24.865,30.8,25.946,32.243H507.474l-14.486-19-14.594,19H454.826Z" transform="translate(-454.826 -385.137)" fill="#8298c5"/>
    </g>
    <text id="Falta_de_consistência" data-name="Falta de
consistência" transform="translate(6057.717 5991.913)" fill="#fff" font-size="18" font-family="Montserrat-ExtraBold, Montserrat" font-weight="800"><tspan x="-38.979" y="0">Falta de</tspan><tspan x="-60.183" y="20">consistência</tspan></text>
    <rect id="Retângulo_91" data-name="Retângulo 91" width="141.152" height="141.152" rx="14.173" transform="translate(5989.567 5824.957)" fill="#1d3d66"/>
    <g id="_02HWYp" data-name="02HWYp" transform="translate(6025.408 5861.055)">
      <g id="Grupo_6099" data-name="Grupo 6099">
        <path id="Caminho_4188" data-name="Caminho 4188" d="M636.735,392.906c-1.662-.86-3.186-1.749-4.789-2.459a27.967,27.967,0,0,0-12.963-2.372,29.287,29.287,0,0,0-7.484,57.166c1.18.381,2.4.629,3.61.925a2.742,2.742,0,0,1,2.262,3.238,2.807,2.807,0,0,1-3.376,2.1,34.758,34.758,0,0,1-9.187-65.243,34.89,34.89,0,0,1,34.477,1.941,3.425,3.425,0,0,0,.325.182,1.052,1.052,0,0,0,.238.028c.566-.818,1.157-1.674,1.751-2.529a7.719,7.719,0,0,1,.53-.724c.545-.622,1.057-.541,1.312.255.357,1.112.646,2.245.958,3.372.539,1.94,1.087,3.879,1.607,5.825a1.493,1.493,0,0,1-1.359,2.087c-3.1.3-6.2.549-9.305.781-.351.026-.98-.126-1.024-.305a1.7,1.7,0,0,1,.285-1.151C635.225,395.031,635.918,394.086,636.735,392.906Z" transform="translate(-585.62 -382.599)" fill="#8298c5"/>
        <path id="Caminho_4189" data-name="Caminho 4189" d="M640.563,412.625a9.436,9.436,0,0,1,.1-1.557,2.6,2.6,0,0,1,2.608-2.033,2.456,2.456,0,0,1,2.619,2.073,10.535,10.535,0,0,1-.021,3.32,2.506,2.506,0,0,1-3.021,1.9,2.665,2.665,0,0,1-2.255-2.583c-.012-.373,0-.747,0-1.12Z" transform="translate(-576.542 -378.232)" fill="#8298c5"/>
        <path id="Caminho_4190" data-name="Caminho 4190" d="M636.831,433.51a2.681,2.681,0,0,1-2.318-4.2,17.292,17.292,0,0,1,1.5-1.863,2.649,2.649,0,0,1,3.7-.233,2.686,2.686,0,0,1,.491,3.631,21.928,21.928,0,0,1-1.394,1.757A2.369,2.369,0,0,1,636.831,433.51Z" transform="translate(-577.624 -375.335)" fill="#8298c5"/>
        <path id="Caminho_4191" data-name="Caminho 4191" d="M634.108,435.825a5.317,5.317,0,0,1-.921,1.709,11.718,11.718,0,0,1-2.833,1.759,2.57,2.57,0,0,1-3.176-1.274,2.653,2.653,0,0,1,.728-3.416,15.484,15.484,0,0,1,2.159-1.336A2.854,2.854,0,0,1,634.108,435.825Z" transform="translate(-578.808 -374.276)" fill="#8298c5"/>
        <path id="Caminho_4192" data-name="Caminho 4192" d="M621.214,442.572a2.836,2.836,0,0,1-3.018-1.987,2.419,2.419,0,0,1,1.151-2.953,11.3,11.3,0,0,1,3.8-.8,2.338,2.338,0,0,1,2.224,2.143,2.561,2.561,0,0,1-1.545,2.928A21.959,21.959,0,0,1,621.214,442.572Z" transform="translate(-580.256 -373.639)" fill="#8298c5"/>
        <path id="Caminho_4193" data-name="Caminho 4193" d="M642.164,418.293a2.658,2.658,0,0,1,2.624,3.289,13.984,13.984,0,0,1-.839,2.39,2.653,2.653,0,0,1-3.443,1.378,2.7,2.7,0,0,1-1.587-3.3c.205-.69.432-1.376.694-2.046A2.593,2.593,0,0,1,642.164,418.293Z" transform="translate(-576.833 -376.702)" fill="#8298c5"/>
        <path id="Caminho_4194" data-name="Caminho 4194" d="M638.642,403.118c.013-1.721.7-2.7,1.773-3.079a2.451,2.451,0,0,1,2.95.809,12.349,12.349,0,0,1,1.305,3.586A2.455,2.455,0,0,1,642.9,407a2.541,2.541,0,0,1-3-.912A22.7,22.7,0,0,1,638.642,403.118Z" transform="translate(-576.86 -379.747)" fill="#8298c5"/>
      </g>
    </g>
    <text id="Fraudes" transform="translate(6170.078 5991.21)" fill="#fff" font-size="18" font-family="Montserrat-ExtraBold, Montserrat" font-weight="800"><tspan x="0" y="0">Fraudes</tspan></text>
    <rect id="Retângulo_92" data-name="Retângulo 92" width="141.152" height="141.152" rx="14.173" transform="translate(6138.327 5824.957)" fill="#1d3d66"/>
    <g id="Grupo_6134" data-name="Grupo 6134" transform="translate(6169.69 5849.183)">
      <path id="Caminho_4195" data-name="Caminho 4195" d="M709.457,385.9c.414-.04.7-.1.993-.092,11.677.217,22.2-3.536,32.089-9.4a55.105,55.105,0,0,0,4.733-3.322c1.218-.907,1.454-.905,2.71.02,8.7,6.405,18.275,10.769,29.052,12.208,2.425.324,4.893.332,7.341.482.437.027.875.04,1.448.065v1.384c0,11.8-.113,23.606.043,35.406a33.364,33.364,0,0,1-5.718,19.242,58,58,0,0,1-24.2,21.019,20.658,20.658,0,0,1-18.59-.027c-12-5.754-21.27-14.343-27.146-26.377A27.951,27.951,0,0,1,709.444,424c.038-12.211.013-24.424.013-36.636Zm6.491,6.158c-.026.405-.065.732-.065,1.057q0,15.97-.007,31.939a18.636,18.636,0,0,0,1.754,8.105c5.517,11.63,14.492,19.689,26.092,24.98a12.255,12.255,0,0,0,10.668-.29A54.5,54.5,0,0,0,776.557,439a26.657,26.657,0,0,0,5-16.1c-.179-9.787-.049-19.579-.049-29.369v-1.38c-2.027-.331-3.9-.588-5.761-.947-9.346-1.806-17.891-5.622-25.99-10.508a1.787,1.787,0,0,0-2.175.01C737.841,386.577,727.508,390.837,715.948,392.059Z" transform="translate(-709.444 -372.411)" fill="#8298c5"/>
      <path id="Caminho_4196" data-name="Caminho 4196" d="M729.79,415.953l4.28-5.262,8.883,7.894L759.8,398.28c1.678,1.517,3.319,3,5.014,4.529l-21.152,25.5Z" transform="translate(-706.082 -368.137)" fill="#8298c5"/>
    </g>
    <text id="Demora" transform="translate(6319.6 5991.351)" fill="#fff" font-size="18" font-family="Montserrat-ExtraBold, Montserrat" font-weight="800"><tspan x="0" y="0">Demora</tspan></text>
    <rect id="Retângulo_93" data-name="Retângulo 93" width="141.152" height="141.152" rx="14.173" transform="translate(6287.088 5824.957)" fill="#1d3d66"/>
    <g id="DeNhno" transform="translate(6321.235 5859.104)">
      <g id="Grupo_6101" data-name="Grupo 6101" transform="translate(0)">
        <path id="Caminho_4197" data-name="Caminho 4197" d="M912.357,417.36a36.428,36.428,0,1,1-36.26-36.434A36.476,36.476,0,0,1,912.357,417.36Zm-36.432,30.425A30.429,30.429,0,1,0,845.5,417.558,30.364,30.364,0,0,0,875.926,447.785Z" transform="translate(-839.501 -380.926)" fill="#8298c5"/>
        <path id="Caminho_4198" data-name="Caminho 4198" d="M868.309,403.995c0-3.807-.014-7.614,0-11.421.01-2.128,1.134-3.478,2.823-3.481,1.772,0,2.887,1.253,2.9,3.409.024,6.581.051,13.163-.022,19.743a3.416,3.416,0,0,0,1.6,3.233c3.658,2.546,7.224,5.22,10.817,7.858,1.791,1.314,2.174,2.971,1.065,4.439-1.074,1.42-2.883,1.533-4.61.292-4.194-3.013-8.357-6.07-12.6-9.012a4.269,4.269,0,0,1-2.006-3.968c.077-3.7.023-7.4.023-11.1Z" transform="translate(-834.747 -379.577)" fill="#8298c5"/>
      </g>
    </g>
    <text id="Rigidez_dos_processos" data-name="Rigidez
dos processos" transform="translate(6056.396 6503.442)" fill="#fff" font-size="18" font-family="Montserrat-ExtraBold, Montserrat" font-weight="800"><tspan x="-35.658" y="0">Rigidez</tspan><tspan x="-67.905" y="21">dos processos</tspan></text>
    <rect id="Retângulo_94" data-name="Retângulo 94" width="141.152" height="141.152" rx="14.173" transform="translate(5989.567 6336.485)" fill="#1d3d66"/>
    <text id="Plataformas_diferentes_para_cada_produto" data-name="Plataformas
diferentes
para cada
produto" transform="translate(6205.643 6502.74)" fill="#fff" font-size="18" font-family="Montserrat-ExtraBold, Montserrat" font-weight="800"><tspan x="-58.32" y="0">Plataformas</tspan><tspan x="-49.023" y="21">diferentes</tspan><tspan x="-47.088" y="42">para cada</tspan><tspan x="-38.556" y="63">produto</tspan></text>
    <rect id="Retângulo_95" data-name="Retângulo 95" width="141.152" height="141.152" rx="14.173" transform="translate(6138.327 6336.485)" fill="#1d3d66"/>
    <text id="Dificuldade_para_monitorar_workflow" data-name="Dificuldade
para monitorar
workflow" transform="translate(6357.436 6503.88)" fill="#fff" font-size="19" font-family="Montserrat-ExtraBold, Montserrat" font-weight="800"><tspan x="-59.09" y="0">Dificuldade</tspan><tspan x="-76" y="22">para monitorar</tspan><tspan x="-48.07" y="44">workflow</tspan></text>
    <text id="Custos_de_Pessoal" data-name="Custos
de Pessoal" transform="translate(6506.155 5990.935)" fill="#fff" font-size="19" font-family="Montserrat-ExtraBold, Montserrat" font-weight="800"><tspan x="-34.285" y="0">Custos</tspan><tspan x="-54.036" y="22">de Pessoal</tspan></text>
    <rect id="Retângulo_96" data-name="Retângulo 96" width="141.152" height="141.152" rx="14.173" transform="translate(6435.848 5824.957)" fill="#1d3d66"/>
    <g id="Grupo_6135" data-name="Grupo 6135" transform="translate(6463.286 5865.234)">
      <path id="Caminho_4199" data-name="Caminho 4199" d="M1042.749,421.656a15.361,15.361,0,0,0-8.793-5.514c.712.919,1.349,1.7,1.941,2.524a1.007,1.007,0,0,1-.24,1.473c-2.1,1.919-6.717,1.956-8.9.08-.6-.515-.768-1.052-.275-1.7.591-.773,1.208-1.523,1.943-2.446a15.218,15.218,0,0,0-2.114.678c-1.572.782-3.105,1.639-4.711,2.5-3.469-5.214-8.132-9.006-14.759-9.538-6.665-.535-11.817,2.5-15.994,7.488l-.816-.668c-5.633-4.606-13.008-5.189-18.9-1.112-7.454,5.157-10.2,12.674-9.661,21.451a6.392,6.392,0,0,0,6.583,6.036q36.634-.005,73.268-.006a5.959,5.959,0,0,0,6.321-5.876A21.7,21.7,0,0,0,1042.749,421.656Zm-61.858-1.164c.643,4.24,1.17,8.5,1.921,12.723.334,1.882.267,3.433-1.292,4.744a16.416,16.416,0,0,0-1.729,2.015c-1.066-1.262-2.08-2.423-3.038-3.627a1.4,1.4,0,0,1-.223-.972c.606-4.345,1.243-8.687,1.873-13.028a1.582,1.582,0,0,1,.045-.192,3.461,3.461,0,0,0-1.131-4.043c-1.513-1.262-1.225-2.05.683-2.7a5.193,5.193,0,0,1,4.535.465c.7.417.913.917.326,1.582a13.066,13.066,0,0,1-1.4,1.51A1.461,1.461,0,0,0,980.891,420.492Zm25.822-2.263c.573,3.755,1.125,7.513,1.682,11.27.265,1.782.53,3.563.775,5.348a.9.9,0,0,1-.129.629c-1.143,1.385-2.311,2.75-3.539,4.2-1.219-1.44-2.392-2.8-3.522-4.19a1.177,1.177,0,0,1-.112-.814q1.2-8.215,2.424-16.425a1.635,1.635,0,0,0-.6-1.711,12.674,12.674,0,0,1-1.709-1.887c-.435-.539-.272-1.013.268-1.424a5.949,5.949,0,0,1,6.48-.01.934.934,0,0,1,.245,1.505,11.843,11.843,0,0,1-1.656,1.8A1.606,1.606,0,0,0,1006.714,418.229Z" transform="translate(-961.41 -382.31)" fill="#8298c5"/>
      <path id="Caminho_4200" data-name="Caminho 4200" d="M1001.1,411.147a12.48,12.48,0,1,0-12.528-12.562A12.452,12.452,0,0,0,1001.1,411.147Z" transform="translate(-956.922 -386.187)" fill="#8298c5"/>
      <path id="Caminho_4201" data-name="Caminho 4201" d="M978.8,413.677a11.31,11.31,0,1,0-11.316-11.44A11.4,11.4,0,0,0,978.8,413.677Z" transform="translate(-960.407 -385.382)" fill="#8298c5"/>
      <path id="Caminho_4202" data-name="Caminho 4202" d="M1033.667,414.211c-.246-2.737-.522-5.478-.613-8.222a10.147,10.147,0,0,0-20.285-.372c-.136,3.522,0,7.081-1.225,10.532H1034.2A11.4,11.4,0,0,1,1033.667,414.211Z" transform="translate(-953.127 -384.579)" fill="#8298c5"/>
    </g>
    <text id="Custos_de_armazenamento_e_logística" data-name="Custos de
armazenamento
e logística" transform="translate(6059.908 6229.552)" fill="#fff" font-size="19" font-family="Montserrat-ExtraBold, Montserrat" font-weight="800"><tspan x="-49.78" y="0">Custos de</tspan><tspan x="-83.087" y="22">armazenamento</tspan><tspan x="-51.946" y="44">e logística</tspan></text>
    <rect id="Retângulo_97" data-name="Retângulo 97" width="141.152" height="141.152" rx="14.173" transform="translate(5989.567 6061.597)" fill="#8298c5"/>
    <text id="Perda_de_contratos_e_documentos" data-name="Perda de
contratos
e documentos" transform="translate(6205.218 6227.85)" fill="#fff" font-size="18" font-family="Montserrat-ExtraBold, Montserrat" font-weight="800"><tspan x="-42.849" y="0">Perda de</tspan><tspan x="-46.035" y="21">contratos</tspan><tspan x="-68.643" y="42">e documentos</tspan></text>
    <rect id="Retângulo_98" data-name="Retângulo 98" width="141.152" height="141.152" rx="14.173" transform="translate(6138.327 6061.597)" fill="#8298c5"/>
    <text id="Dificuldade_de_acesso_e_atualização_de_informações_" data-name="Dificuldade
de acesso
e atualização
de informações
" transform="translate(6354.09 6227.99)" fill="#fff" font-size="18" font-family="Montserrat-ExtraBold, Montserrat" font-weight="800"><tspan x="-55.98" y="0">Dificuldade</tspan><tspan x="-47.394" y="20">de acesso</tspan><tspan x="-63.459" y="40">e atualização</tspan><tspan x="-74.52" y="60">de informações</tspan><tspan x="0" y="80"></tspan></text>
    <rect id="Retângulo_99" data-name="Retângulo 99" width="141.152" height="141.152" rx="14.173" transform="translate(6287.088 6061.597)" fill="#8298c5"/>
    <g id="Grupo_6136" data-name="Grupo 6136" transform="translate(6022.909 6101.911)">
      <path id="Caminho_4203" data-name="Caminho 4203" d="M657.943,595.54v27.051a1.217,1.217,0,0,0-.069.212,6.947,6.947,0,0,1-5.3,5.865c-.523.118-1.063.168-1.617.252v.423c0,2.076,0,4.154,0,6.23a11.865,11.865,0,0,1-.075,1.286,6.909,6.909,0,0,1-5.712,5.851,29.969,29.969,0,0,1-3.411.106.47.47,0,0,0-.544.4,9.211,9.211,0,0,1-10.329,6.473,9.059,9.059,0,0,1-7.4-6.5.452.452,0,0,0-.526-.374q-5.736.014-11.473,0a.443.443,0,0,0-.516.383,9.229,9.229,0,0,1-10.764,6.411,9.1,9.1,0,0,1-6.978-6.439c-.087-.266-.184-.361-.463-.354-.721.019-1.445.033-2.165,0a9.485,9.485,0,0,1-1.839-.21,6.962,6.962,0,0,1-5.277-6.811c0-4.584.006-9.169,0-13.753a7.3,7.3,0,0,1,1.264-4.175q4.553-6.813,9.093-13.637A7,7,0,0,1,600,600.939q4.312,0,8.624,0h.451c0-1.521,0-2.976,0-4.431a9.117,9.117,0,0,1,.071-1.211,6.918,6.918,0,0,1,6.82-5.983q17.513-.017,35.028,0a6.934,6.934,0,0,1,6.683,5.094C657.789,594.779,657.858,595.161,657.943,595.54Zm-24.428,28.654v.008q8.643,0,17.286,0a2.913,2.913,0,0,0,.677-.056,2.348,2.348,0,0,0,1.817-2.471q0-12.556,0-25.112a2.381,2.381,0,0,0-2.618-2.61q-17.172,0-34.344,0a2.373,2.373,0,0,0-2.609,2.615c0,8.345.014,16.691-.013,25.036a2.493,2.493,0,0,0,2.594,2.61C622.043,624.168,627.779,624.194,633.515,624.194Zm12.8,4.67h-.568q-14.627,0-29.253-.007a8.7,8.7,0,0,1-1.884-.165,6.921,6.921,0,0,1-5.523-6.907q-.007-7.864,0-15.728v-.472h-.428c-2.887,0-5.775.007-8.662,0a2.555,2.555,0,0,0-2.29,1.226q-4.544,6.841-9.111,13.666a2.723,2.723,0,0,0-.47,1.571c0,1.051,0,2.1,0,3.153q0,5.242,0,10.485a2.334,2.334,0,0,0,2.124,2.473c.946.052,1.9.011,2.813.011,1.521-4.356,4.449-6.977,9.128-6.937,4.59.04,7.459,2.652,8.935,6.93a.883.883,0,0,0,.12.012q5.925,0,11.853.007c.26,0,.3-.127.361-.324a9.241,9.241,0,0,1,17.235-1.376c.258.542.45,1.115.679,1.694h2.379a2.358,2.358,0,0,0,2.558-2.548q0-3.153,0-6.306Zm-9.321,11.65a4.647,4.647,0,1,0-4.705,4.642A4.657,4.657,0,0,0,636.991,640.514Zm-39.538-.035a4.641,4.641,0,1,0,4.654-4.652A4.658,4.658,0,0,0,597.453,640.479Z" transform="translate(-583.475 -589.305)" fill="#1d3d66"/>
      <path id="Caminho_4204" data-name="Caminho 4204" d="M605.414,614.6c0,2.266-.036,4.533.014,6.8a2.43,2.43,0,0,1-2.525,2.515c-2.974-.033-5.95-.009-8.924-.011a2.331,2.331,0,0,1-2.51-2.473c-.01-1.063,0-2.127,0-3.19a2.762,2.762,0,0,1,.489-1.6q3.386-5.056,6.749-10.13a2.482,2.482,0,0,1,2.284-1.225c.72.023,1.443,0,2.164.008a2.275,2.275,0,0,1,2.257,2.245c.014,2.355,0,4.709,0,7.064Zm-2.33,6.952v-13.94c-.654,0-1.284.019-1.913-.007a.649.649,0,0,0-.636.351c-1.907,2.877-3.788,5.774-5.763,8.6a4.662,4.662,0,0,0-1,3.361,13.857,13.857,0,0,1,.01,1.633Z" transform="translate(-582.155 -586.666)" fill="#1d3d66"/>
    </g>
    <g id="Grupo_6137" data-name="Grupo 6137" transform="translate(6180.014 6091.99)">
      <path id="Caminho_4205" data-name="Caminho 4205" d="M769.369,661.155H729.008c-.09-.075-.167-.192-.268-.219-7.219-1.922-10.424-6.053-10.428-13.464q-.005-8.475,0-16.953c0-12.312-.024-24.625.012-36.937.02-6.433,3.809-11.06,10.072-12.485l.006,0a8.459,8.459,0,0,1,1.947-.3h23.283a10.851,10.851,0,0,1,4.741,1.093A9.677,9.677,0,0,1,760.9,583.5c5.654,5.439,11.239,10.962,16.606,16.681a9.134,9.134,0,0,1,2.448,5.531c.2,14.453.179,28.91.063,43.365-.048,5.9-4.068,10.447-9.855,11.747A4.733,4.733,0,0,0,769.369,661.155ZM749,655.06q8.748,0,17.5,0c5.113,0,7.492-2.4,7.495-7.567q.005-18.749,0-37.5c0-3.413-.963-4.442-4.429-4.518-3.213-.071-6.428-.028-9.642-.031-3.71,0-4.478-.775-4.483-4.5,0-3.334.044-6.667-.036-10-.077-3.155-1.053-4.07-4.057-4.07q-9.91,0-19.819.008c-4.572.009-7.138,2.512-7.142,7.022q-.019,27.051,0,54.1c0,4.52,2.564,7.037,7.117,7.046C737.336,655.069,743.169,655.06,749,655.06Z" transform="translate(-718.303 -580.79)" fill="#1d3d66"/>
      <path id="Caminho_4206" data-name="Caminho 4206" d="M747.409,628.6c4.933,0,9.866-.008,14.8,0,2.283,0,3.609,1.123,3.616,3s-1.3,3.044-3.6,3.047q-14.886.031-29.775,0c-2.144,0-3.439-1.206-3.435-3.023,0-1.836,1.289-3.007,3.419-3.017C737.426,628.589,742.418,628.6,747.409,628.6Z" transform="translate(-716.533 -572.891)" fill="#1d3d66"/>
      <path id="Caminho_4207" data-name="Caminho 4207" d="M747.412,607.418c4.932,0,9.865-.01,14.8,0,2.369.007,3.607,1.045,3.612,2.96s-1.247,3.037-3.6,3.044q-14.886.042-29.775,0c-2.194-.007-3.429-1.18-3.434-3.026,0-1.875,1.2-2.958,3.421-2.969C737.427,607.4,742.419,607.418,747.412,607.418Z" transform="translate(-716.534 -576.391)" fill="#1d3d66"/>
      <path id="Caminho_4208" data-name="Caminho 4208" d="M744.259,623.988c-3.92,0-7.84.015-11.759,0-2.224-.01-3.453-1.063-3.485-2.9s1.173-3.074,3.365-3.087q12.027-.072,24.054,0a2.982,2.982,0,0,1,3.247,3.048c-.021,1.738-1.3,2.919-3.307,2.933C752.336,624.007,748.3,623.986,744.259,623.988Z" transform="translate(-716.533 -574.649)" fill="#1d3d66"/>
    </g>
    <g id="Grupo_6138" data-name="Grupo 6138" transform="translate(6316.172 6090.987)">
      <path id="Caminho_4209" data-name="Caminho 4209" d="M925.808,615.61l-19.347,22.548-20.832-22.43H899.8c1.292-6.777-5.948-16.814-14.629-20.65a26.424,26.424,0,0,0-32,8.207,25.939,25.939,0,0,0,1.01,32.191,25.632,25.632,0,0,0,17.505,9.145c6.963.691,13.174-1.391,18.824-5.7l8.673,9.263a37.926,37.926,0,0,1-26.254,9.431,38.85,38.85,0,1,1,39.615-43.691c.181,1.477.8,1.723,2.059,1.7C918.133,615.574,921.661,615.61,925.808,615.61Z" transform="translate(-835.156 -579.93)" fill="#1d3d66"/>
    </g>
    <g id="Grupo_6139" data-name="Grupo 6139" transform="translate(5248 5255)">
      <path id="Caminho_4210" data-name="Caminho 4210" d="M627.849,870.318c-1.13-1.429-2.243-2.871-3.379-4.3a.7.7,0,0,1-.092-.858c.383-.8.717-1.623,1.035-2.452a.6.6,0,0,1,.541-.45c1.953-.29,3.9-.6,5.854-.908,1.053-.164,1.417-.585,1.417-1.659q0-3.7,0-7.4a1.387,1.387,0,0,0-1.408-1.621c-1.909-.279-3.815-.571-5.725-.836a.683.683,0,0,1-.641-.517,14.4,14.4,0,0,0-.926-2.247,1.253,1.253,0,0,1,.176-1.623c1.064-1.306,2.069-2.658,3.1-3.993a1.216,1.216,0,0,0,.072-1.748,7.446,7.446,0,0,0-.841-1.089q-2.468-2.5-4.973-4.965a1.306,1.306,0,0,0-1.87-.059c-1.553,1.171-3.11,2.337-4.653,3.522a.642.642,0,0,1-.776.085c-.789-.368-1.6-.706-2.414-1a.656.656,0,0,1-.5-.608c-.277-1.94-.574-3.877-.855-5.816a1.372,1.372,0,0,0-1.59-1.388q-3.08-.005-6.158,0c-.536,0-1.073-.012-1.608.006a1.222,1.222,0,0,0-1.272.981,4.291,4.291,0,0,0-.147.627c-.273,1.862-.549,3.723-.8,5.588a.642.642,0,0,1-.475.619c-.833.3-1.659.635-2.46,1.015a.693.693,0,0,1-.854-.107c-1.317-1.052-2.65-2.082-3.975-3.123-1.258-.986-1.6-1.014-2.842-.012a38.213,38.213,0,0,0-5.34,5.364c-.732.881-.691,1.4.035,2.319,1.123,1.416,2.222,2.85,3.349,4.262a.667.667,0,0,1,.065.82c-.374.8-.717,1.624-1.03,2.454a.634.634,0,0,1-.588.461c-1.892.28-3.778.615-5.676.858a1.726,1.726,0,0,0-1.551,1.076v8.64a1.62,1.62,0,0,0,1.423.975c1.94.271,3.873.594,5.805.919a.7.7,0,0,1,.454.339c.445.974.865,1.96,1.265,2.953a.649.649,0,0,1-.047.523c-.346.5-.731.983-1.106,1.467q-1.224,1.58-2.453,3.158a1.181,1.181,0,0,0-.052,1.559,8.187,8.187,0,0,0,.715.954c1.716,1.748,3.437,3.491,5.184,5.207a1.294,1.294,0,0,0,1.834.043c1.553-1.171,3.112-2.334,4.652-3.523a.682.682,0,0,1,.82-.077c.806.368,1.63.7,2.459,1.016a.527.527,0,0,1,.394.482c.288,1.984.594,3.966.89,5.95a1.35,1.35,0,0,0,1.52,1.36q3.815.012,7.629,0c.939,0,1.363-.311,1.522-1.254.339-2.023.622-4.054.905-6.085a.541.541,0,0,1,.418-.5c.86-.322,1.714-.66,2.553-1.029a.611.611,0,0,1,.738.078c1.34,1.07,2.7,2.12,4.048,3.176,1.268.993,1.593,1.016,2.832,0a42.754,42.754,0,0,0,5.386-5.453A1.414,1.414,0,0,0,627.849,870.318Zm-22.234-3.337a11.042,11.042,0,1,1,11.077-11.094A11.055,11.055,0,0,1,605.616,866.98Z" transform="translate(190.542 297.108)" fill="#8298c5"/>
      <path id="Caminho_4211" data-name="Caminho 4211" d="M648.125,868.966c-.53-.059-.937-.167-1.094-.745a1.465,1.465,0,0,0-.33-.6c-.659-.7-.5-1.357-.142-2.173.64-1.436,1.116-2.943,1.652-4.423a.569.569,0,0,0-.322-.757c-1.573-.889-3.143-1.783-4.7-2.7a.665.665,0,0,0-.992.163c-1.1,1.355-2.227,2.688-3.306,4.058a.937.937,0,0,1-.937.458,8.789,8.789,0,0,0-1.6,0,.7.7,0,0,1-.678-.33c-1.13-1.408-2.283-2.8-3.429-4.192a.671.671,0,0,0-1-.141c-1.25.743-2.522,1.451-3.787,2.17-1.447.821-1.482.833-.9,2.395.521,1.405,1.134,2.776,1.684,4.172a.78.78,0,0,1-.047.571c-.295.569-.616,1.127-.961,1.667a.781.781,0,0,1-.472.33c-.71.112-1.433.143-2.142.263-1.129.191-2.252.423-3.376.654a.675.675,0,0,0-.577.789c.029,1.745.034,3.492,0,5.238a.726.726,0,0,0,.6.821,4.08,4.08,0,0,0,.442.121c1.36.221,2.713.5,4.081.63.875.083,1.538.255,1.839,1.193.148.464.643.866.66,1.309s-.378.916-.555,1.388c-.508,1.361-1,2.727-1.491,4.093a.617.617,0,0,0,.361.824c1.495.843,2.975,1.708,4.464,2.56.745.427.788.456,1.337-.2,1.121-1.337,2.2-2.707,3.281-4.078a.651.651,0,0,1,.6-.305c.642.023,1.285-.01,1.927.015a.726.726,0,0,1,.481.234c.613.764,1.184,1.563,1.8,2.325.558.689,1.157,1.346,1.74,2.016a.625.625,0,0,0,.915.13c1.382-.823,2.788-1.6,4.175-2.416,1.017-.594,1.173-.358.692-1.778-.514-1.52-1.164-2.994-1.782-4.477a.722.722,0,0,1,.059-.791,9.638,9.638,0,0,0,.827-1.429.821.821,0,0,1,.763-.518c1.4-.168,2.8-.336,4.183-.581a10.158,10.158,0,0,0,1.7-.618v-6.251a13.611,13.611,0,0,0-1.739-.541C650.737,869.289,649.431,869.111,648.125,868.966ZM637.2,878.728a5.467,5.467,0,0,1-5.486-5.437,5.511,5.511,0,0,1,11.022-.138A5.473,5.473,0,0,1,637.2,878.728Z" transform="translate(197.578 301.905)" fill="#8298c5"/>
      <path id="Caminho_4212" data-name="Caminho 4212" d="M652.578,831.75c-1.629-.276-3.267-.5-4.9-.76a.779.779,0,0,1-.464-.331c-.345-.541-.666-1.1-.961-1.669a.789.789,0,0,1-.041-.571c.21-.558.5-1.087.7-1.646.45-1.218.873-2.447,1.3-3.674a.552.552,0,0,0-.31-.722c-1.587-.9-3.172-1.793-4.746-2.71a.639.639,0,0,0-.952.158c-1.144,1.416-2.3,2.82-3.443,4.24a.668.668,0,0,1-.65.3c-.608-.04-1.222.007-1.833-.02a.8.8,0,0,1-.524-.227c-.4-.481-.745-1.011-1.144-1.495-.771-.931-1.565-1.843-2.349-2.764a.7.7,0,0,0-1.032-.156c-1.542.91-3.1,1.789-4.667,2.664a.59.59,0,0,0-.333.755,13.1,13.1,0,0,0,.38,1.323q.787,1.984,1.628,3.947a.617.617,0,0,1-.063.667,14.278,14.278,0,0,0-.873,1.508.692.692,0,0,1-.638.47c-.7.049-1.4.121-2.1.239-1.114.19-2.223.416-3.33.643a.676.676,0,0,0-.576.79c.029,1.7.01,3.4.014,5.1,0,.748.039.793.769,1.013a3,3,0,0,0,.4.1c1.33.212,2.653.479,3.99.607.839.08,1.519.224,1.76,1.148a.645.645,0,0,0,.161.276c.664.674.506,1.33.145,2.131-.628,1.39-1.1,2.85-1.631,4.284a.73.73,0,0,0,.419,1.007c1.42.784,2.816,1.613,4.223,2.422.923.531.955.558,1.655-.278,1.07-1.281,2.1-2.595,3.122-3.913a.691.691,0,0,1,.686-.308,11.433,11.433,0,0,0,1.694,0,.716.716,0,0,1,.713.34c1.087,1.383,2.186,2.759,3.316,4.109.492.587.543.563,1.192.192q1.935-1.1,3.862-2.222c1.26-.733,1.3-.754.8-2.132-.521-1.437-1.133-2.842-1.723-4.253a.69.69,0,0,1,.055-.753,12.369,12.369,0,0,0,.872-1.509.689.689,0,0,1,.62-.436c1.186-.132,2.378-.242,3.549-.461a23.518,23.518,0,0,0,2.445-.719V832.2A6.455,6.455,0,0,0,652.578,831.75ZM637.2,840.855a5.482,5.482,0,0,1-5.486-5.489,5.511,5.511,0,1,1,11.022,0A5.492,5.492,0,0,1,637.2,840.855Z" transform="translate(197.578 295.643)" fill="#8298c5"/>
      <circle id="Elipse_16" data-name="Elipse 16" cx="8.395" cy="8.395" r="8.395" transform="translate(787.793 1144.682)" fill="#8298c5"/>
      <circle id="Elipse_17" data-name="Elipse 17" cx="4.125" cy="4.125" r="4.125" transform="translate(830.67 1126.879)" fill="#8298c5"/>
      <circle id="Elipse_18" data-name="Elipse 18" cx="4.125" cy="4.125" r="4.125" transform="translate(830.67 1170.928)" fill="#8298c5"/>
    </g>
    <g id="Grupo_6140" data-name="Grupo 6140" transform="translate(5248 5255)">
      <path id="Caminho_4213" data-name="Caminho 4213" d="M777,852.024c-.041-6.823-.014-13.649-.022-20.474-.006-4.3-2.4-6.653-6.756-6.659q-10.415-.012-20.829,0-16.292,0-32.581.006c-3.265,0-5.39,1.606-6.169,4.543q-.007,22.33-.016,44.66a5.681,5.681,0,0,0,5.768,4.56c4.154.035,8.308.01,12.462.01h5.932c-1.413,2.245-2.615,4.2-3.864,6.117-.537.826-1.05,1.656-.56,2.635.523,1.047,1.536,1.169,2.593,1.166,5.1-.013,10.208-.054,15.311.027,1.344.021,1.535-.5,1.524-1.656-.051-5.4-.076-10.8.013-16.2.023-1.47-.378-1.888-1.861-1.88-10.148.064-20.3.035-30.444.033-3.139,0-4.227-1.044-4.23-4.118q-.014-16.379,0-32.758c0-3.09,1.109-4.21,4.176-4.211q26.35-.009,52.7,0c2.787,0,3.892,1.119,3.9,3.879.006,6.766.02,13.532-.016,20.3-.007,1.1.079,1.719,1.473,1.718C776.862,853.717,777.006,853.154,777,852.024Zm-33.307,19.431a2.5,2.5,0,1,1-2.5,2.5A2.5,2.5,0,0,1,743.693,871.455Z" transform="translate(212.442 296.529)" fill="#8298c5"/>
      <rect id="Retângulo_69" data-name="Retângulo 69" width="23.48" height="8.179" rx="2.469" transform="translate(970.175 1159.806)" fill="#8298c5"/>
      <rect id="Retângulo_70" data-name="Retângulo 70" width="23.48" height="8.179" rx="2.469" transform="translate(970.175 1169.625)" fill="#8298c5"/>
      <rect id="Retângulo_71" data-name="Retângulo 71" width="23.48" height="8.179" rx="2.469" transform="translate(970.175 1179.444)" fill="#8298c5"/>
      <path id="Caminho_4214" data-name="Caminho 4214" d="M780.169,874.134c0-5.043.009-10.086,0-15.128-.01-4.28-2.4-6.778-6.693-6.815q-9.966-.087-19.933,0c-4.261.031-6.731,2.569-6.735,6.794q-.012,15.306,0,30.611c0,4.026,2.513,6.579,6.536,6.594q10.145.038,20.289,0c4.054-.013,6.519-2.5,6.536-6.571C780.183,884.456,780.169,879.3,780.169,874.134Zm-16.672,21.1a1.8,1.8,0,1,1,1.8-1.8A1.8,1.8,0,0,1,763.5,895.236Zm13.683-7.549c0,2.024-.46,2.46-2.553,2.461q-11.214.009-22.426,0c-2.062,0-2.388-.325-2.391-2.37q-.014-7.565,0-15.128c0-5.043.038-10.086-.021-15.128-.02-1.694.658-2.322,2.327-2.313,7.533.043,15.069.012,22.6.02,2.022,0,2.461.463,2.462,2.558Q777.191,872.737,777.18,887.687Z" transform="translate(218.418 301.034)" fill="#8298c5"/>
      <rect id="Retângulo_72" data-name="Retângulo 72" width="54.788" height="11.28" rx="2.469" transform="translate(928.785 1127.348)" fill="#8298c5"/>
      <rect id="Retângulo_73" data-name="Retângulo 73" width="26.328" height="11.28" rx="2.469" transform="translate(928.785 1139.594)" fill="#8298c5"/>
      <rect id="Retângulo_74" data-name="Retângulo 74" width="26.328" height="11.28" rx="2.469" transform="translate(957.245 1139.594)" fill="#8298c5"/>
    </g>
  </g>
</svg>
