<svg xmlns="http://www.w3.org/2000/svg" width="453.292" height="202.462" viewBox="0 0 453.292 202.462"><path d="M1127.985-5275.936a47.083,47.083,0,0,1-15.08-6.5l7.539-16.937a48.8,48.8,0,0,0,12.644,5.8,48.155,48.155,0,0,0,14.152,2.2q13.224,0,13.224-6.612,0-3.479-3.77-5.161a69.3,69.3,0,0,0-12.122-3.538,115.637,115.637,0,0,1-15.312-4.235,25.755,25.755,0,0,1-10.555-7.249q-4.409-4.988-4.408-13.456a23.3,23.3,0,0,1,4.059-13.4,27.181,27.181,0,0,1,12.123-9.455q8.061-3.479,19.778-3.479a69.79,69.79,0,0,1,15.775,1.8,48.3,48.3,0,0,1,13.688,5.279l-7.076,17.052q-11.6-6.265-22.5-6.264-6.843,0-9.975,2.029a6.087,6.087,0,0,0-3.133,5.279q0,3.246,3.713,4.871a67.221,67.221,0,0,0,11.949,3.365,111.9,111.9,0,0,1,15.37,4.233,26.556,26.556,0,0,1,10.555,7.192q4.466,4.93,4.466,13.4a22.843,22.843,0,0,1-4.059,13.224q-4.06,5.917-12.181,9.455t-19.72,3.538A75.055,75.055,0,0,1,1127.985-5275.936Zm-89.727-3.016a40.97,40.97,0,0,1-16.123-15.08,40.9,40.9,0,0,1-5.859-21.692,40.889,40.889,0,0,1,5.859-21.692,40.949,40.949,0,0,1,16.123-15.08,48.555,48.555,0,0,1,23.143-5.452,48.553,48.553,0,0,1,23.141,5.452,40.953,40.953,0,0,1,16.124,15.08,40.9,40.9,0,0,1,5.858,21.692,40.908,40.908,0,0,1-5.858,21.692,40.974,40.974,0,0,1-16.124,15.08,48.57,48.57,0,0,1-23.141,5.452A48.572,48.572,0,0,1,1038.257-5278.952Zm12.006-57.072a20.863,20.863,0,0,0-7.888,8.177,24.768,24.768,0,0,0-2.9,12.123,24.759,24.759,0,0,0,2.9,12.122,20.857,20.857,0,0,0,7.888,8.178,21.747,21.747,0,0,0,11.137,2.9,21.742,21.742,0,0,0,11.135-2.9,20.857,20.857,0,0,0,7.888-8.178,24.758,24.758,0,0,0,2.9-12.122,24.768,24.768,0,0,0-2.9-12.123,20.863,20.863,0,0,0-7.888-8.177,21.743,21.743,0,0,0-11.135-2.9A21.748,21.748,0,0,0,1050.264-5336.024Zm-220.806,57.072a40.983,40.983,0,0,1-16.124-15.08,40.908,40.908,0,0,1-5.857-21.692,40.9,40.9,0,0,1,5.857-21.692,40.962,40.962,0,0,1,16.124-15.08,48.554,48.554,0,0,1,23.142-5.452,48.555,48.555,0,0,1,23.143,5.452,40.962,40.962,0,0,1,16.124,15.08,40.9,40.9,0,0,1,5.857,21.692,40.908,40.908,0,0,1-5.857,21.692,40.983,40.983,0,0,1-16.124,15.08A48.572,48.572,0,0,1,852.6-5273.5,48.571,48.571,0,0,1,829.458-5278.952Zm12.006-57.072a20.863,20.863,0,0,0-7.888,8.177,24.768,24.768,0,0,0-2.9,12.123,24.759,24.759,0,0,0,2.9,12.122,20.858,20.858,0,0,0,7.888,8.178,21.745,21.745,0,0,0,11.135,2.9,21.747,21.747,0,0,0,11.137-2.9,20.857,20.857,0,0,0,7.888-8.178,24.758,24.758,0,0,0,2.9-12.122,24.768,24.768,0,0,0-2.9-12.123,20.863,20.863,0,0,0-7.888-8.177,21.748,21.748,0,0,0-11.137-2.9A21.746,21.746,0,0,0,841.464-5336.024ZM746-5275.936a47.084,47.084,0,0,1-15.08-6.5l7.539-16.937a48.825,48.825,0,0,0,12.644,5.8,48.156,48.156,0,0,0,14.153,2.2q13.224,0,13.224-6.612,0-3.479-3.77-5.161a69.267,69.267,0,0,0-12.122-3.538,115.635,115.635,0,0,1-15.312-4.235,25.774,25.774,0,0,1-10.555-7.249q-4.409-4.988-4.408-13.456a23.3,23.3,0,0,1,4.06-13.4,27.177,27.177,0,0,1,12.122-9.455q8.063-3.479,19.778-3.479a69.8,69.8,0,0,1,15.777,1.8,48.3,48.3,0,0,1,13.687,5.279l-7.075,17.052q-11.6-6.265-22.5-6.264-6.845,0-9.977,2.029a6.089,6.089,0,0,0-3.131,5.279q0,3.246,3.711,4.871a67.223,67.223,0,0,0,11.949,3.365,111.905,111.905,0,0,1,15.37,4.233,26.537,26.537,0,0,1,10.555,7.192q4.466,4.93,4.467,13.4a22.835,22.835,0,0,1-4.06,13.224q-4.06,5.917-12.181,9.455t-19.719,3.538A75.066,75.066,0,0,1,746-5275.936Zm237.1.812-.232-43.036-20.88,35.032H951.78L931.016-5317v41.876H909.788v-81.2H928.7l28.536,46.864,27.839-46.864h18.908l.232,81.2Zm-30.695-84.394a44.639,44.639,0,0,1-12.568-6.584,107.817,107.817,0,0,1-14.165-12.835,51.409,51.409,0,0,1-21.546-8.644,46.441,46.441,0,0,1-14.7-16.758,47.438,47.438,0,0,1-5.254-22.211,46.9,46.9,0,0,1,6.716-24.871,46.968,46.968,0,0,1,18.488-17.29,55.684,55.684,0,0,1,26.534-6.252,55.683,55.683,0,0,1,26.533,6.252,46.968,46.968,0,0,1,18.488,17.29,46.9,46.9,0,0,1,6.716,24.871,46.568,46.568,0,0,1-8.578,27.731A47.038,47.038,0,0,1,956-5381.6a16.947,16.947,0,0,0,5.253,4.124,13.319,13.319,0,0,0,5.653,1.2q7.846,0,14.1-6.517l11.437,13.566a30.44,30.44,0,0,1-11.37,8.711,35.69,35.69,0,0,1-14.7,2.994A45.8,45.8,0,0,1,952.405-5359.518Zm-29.26-90.308a23.92,23.92,0,0,0-9.044,9.376,28.4,28.4,0,0,0-3.325,13.9,28.394,28.394,0,0,0,3.325,13.9,23.911,23.911,0,0,0,9.044,9.376,24.94,24.94,0,0,0,12.769,3.325,24.939,24.939,0,0,0,12.768-3.325,23.911,23.911,0,0,0,9.044-9.376,28.394,28.394,0,0,0,3.325-13.9,28.4,28.4,0,0,0-3.325-13.9,23.92,23.92,0,0,0-9.044-9.376,24.937,24.937,0,0,0-12.768-3.324A24.939,24.939,0,0,0,923.145-5449.826Zm89.044,60.383q-11.5-11.3-11.5-32.054v-51.6h26.333v50.806q0,22.344,17.689,22.345,17.556,0,17.556-22.345V-5473.1H1088.2v51.6q0,20.749-11.5,32.054t-32.253,11.3Q1023.694-5378.138,1012.189-5389.442Zm-254.03,5.054a46.972,46.972,0,0,1-18.488-17.291,46.891,46.891,0,0,1-6.716-24.87,46.892,46.892,0,0,1,6.716-24.871,46.968,46.968,0,0,1,18.488-17.29,55.679,55.679,0,0,1,26.533-6.252,55.684,55.684,0,0,1,26.534,6.252,46.968,46.968,0,0,1,18.488,17.29,46.9,46.9,0,0,1,6.716,24.871,46.9,46.9,0,0,1-6.716,24.87,46.972,46.972,0,0,1-18.488,17.291,55.684,55.684,0,0,1-26.534,6.25A55.678,55.678,0,0,1,758.159-5384.389Zm13.765-65.437a23.92,23.92,0,0,0-9.044,9.376,28.4,28.4,0,0,0-3.325,13.9,28.394,28.394,0,0,0,3.325,13.9,23.911,23.911,0,0,0,9.044,9.376,24.939,24.939,0,0,0,12.768,3.325,24.943,24.943,0,0,0,12.769-3.325,23.929,23.929,0,0,0,9.044-9.376,28.394,28.394,0,0,0,3.325-13.9,28.4,28.4,0,0,0-3.325-13.9,23.939,23.939,0,0,0-9.044-9.376,24.942,24.942,0,0,0-12.769-3.324A24.938,24.938,0,0,0,771.924-5449.826Zm334.1,69.826v-93.1h73.016v20.35h-46.948v15.694h41.363v19.685h-41.363v17.023h48.678V-5380Z" transform="translate(-730.292 5475.462)" fill="#fff" stroke="rgba(0,0,0,0)" stroke-width="1"/></svg>